<svg width="208" height="37" viewBox="0 0 208 37" fill="none" xmlns="http://www.w3.org/2000/svg">
<path d="M55.7235 16.1191C60.0157 16.346 61.1886 15.2644 62.1618 10.9168C62.3769 9.9618 63.3962 9.20203 64.0467 8.35256C64.3745 9.38142 65.0352 10.4367 64.9686 11.4391C64.7893 14.1986 64.9686 14.3674 67.7293 14.072C71.5042 13.6657 74.644 12.4311 76.5084 8.69551C77.3176 7.07571 77.3842 5.8147 76.1806 4.37957C75.7042 3.81502 75.7298 2.80726 75.525 2C76.4776 2.30602 77.7735 2.31657 78.3267 2.98137C80.0784 5.07075 79.7352 10.0251 78.1781 12.4363C75.8733 16.0083 72.5491 17.6281 68.6154 18.2929C65.7574 18.7783 63.3347 19.7597 62.884 23.2684C62.8225 23.7538 62.0593 24.139 61.6188 24.5716C61.3269 23.9965 60.7123 23.3686 60.7891 22.8516C61.2808 19.5751 59.9952 19.2638 57.1986 19.9022C49.6488 21.6328 42.0274 23.0151 34.452 24.6297C33.2278 24.8882 32.0344 25.5266 30.9588 26.2178C28.5669 27.7532 28.2186 29.7001 29.4325 32.3013C29.8627 33.2193 29.8934 34.3801 29.8986 35.4301C29.8986 35.62 28.6744 36.1529 28.4081 35.9577C27.4247 35.2296 26.1391 34.417 25.8061 33.3618C24.5308 29.2727 27.4042 22.8727 31.3891 21.6592C37.4791 19.8072 42.7973 18.4615 49 17C54 19.5 51.5 21.1491 55.7132 16.1191H55.7235Z" fill="#1A1A1A"/>
<path d="M149.124 24.3573C148.755 23.7883 148.145 23.2552 148.058 22.6452C147.597 19.3286 145.193 18.4674 142.446 18.0317C138.494 17.4114 135.131 15.8838 132.907 12.3417C131.118 9.48132 131.133 6.51842 132.399 3.56578C132.702 2.8635 133.722 2.39703 134.511 2.02795C134.793 1.89467 135.475 2.26375 135.757 2.59182C135.926 2.79174 135.818 3.48376 135.587 3.71957C134.368 4.99597 133.163 6.22111 134.214 8.18441C135.379 9.20514 134.5 10 135.667 11C135.595 12.9004 133.749 14.2733 135.757 14.7417C136.418 14.8955 141.518 13.6232 142.194 13.736C146.157 14.4024 146.1 14.4075 145.936 10.4758C145.905 9.80426 146.551 9.10198 146.884 8.41508C147.5 8.95845 148.484 9.38905 148.678 10.0554C149.814 13.9044 149.044 17.4825 151 18C151.93 18.2461 154.358 15.8528 156.259 16.094C164.424 17.1295 172.682 18.0676 180.34 21.5021C183.774 23.045 186.68 29.8064 185.019 33.1024C184.522 34.0867 182.61 35.2195 181.729 34.9632C179.766 34.3891 180.837 32.8666 181.518 31.6671C183.02 29.0221 182.374 26.7204 179.458 25.403C177.3 24.4291 175.004 23.6499 172.692 23.1732C165.865 21.7532 158.996 20.5178 152.138 19.2363C150.857 18.9954 150.242 19.5387 150.278 20.9228C150.308 21.9788 150.108 23.0399 150.011 24.0959C149.714 24.183 149.422 24.2701 149.124 24.3573Z" fill="#1A1A1A"/>
<path d="M29.8384 15.6009C35.9547 17.1924 39.476 14.8361 38.2118 10.152C39.8905 9.6057 40.2488 10.6223 40.4382 11.7625C40.95 14.8266 38.2169 18.0475 34.7263 18.5083C34.2247 18.5748 33.7078 18.5938 33.2011 18.6081C30.555 18.6746 27.7912 18.5036 26.7778 21.8717C26.5986 21.734 26.4195 21.5914 26.2403 21.4537V18.361C23.886 18.2233 21.7261 18.019 19.5611 17.981C15.9067 17.924 5.5 13 8.59798 18.0048C4.80029 18.1425 4.06328 19.0831 4.26289 22.5891C4.28848 23.0451 3.68453 23.5297 3.37232 24C2.73767 23.3729 1.69356 22.8171 1.55025 22.1045C1.10497 19.8812 3.69989 16.2328 6.13102 16.0095C10.5071 15.6057 14.9241 15.6057 19.3257 15.4774C20.4261 15.4442 21.5777 15.4252 22.6269 15.677C25.4368 16.3468 27.7093 16.2328 28.651 13.1211C28.7585 12.7601 29.5057 12.5653 29.951 12.2898C30.1199 12.7506 30.4424 13.2209 30.4168 13.677C30.3861 14.2708 30.079 14.8551 29.8333 15.6057L29.8384 15.6009Z" fill="#1A1A1A"/>
<path d="M181.838 17.0453V20.4724C180.007 16.841 176.684 17.5765 173.719 17.2956C170.006 16.9432 167.078 13.6182 167.55 10.1911C167.668 9.34837 168.524 8.60268 169.483 8C168.904 10.2779 168.776 12.0809 170.873 13.511C173.155 15.0636 175.478 14.747 177.899 14.2924V10.5639C178.694 11.4935 179.32 12.7295 180.325 13.2709C181.55 13.9349 183.089 14.2771 184.494 14.2975C190.017 14.3843 195.551 14.0677 201.059 14.3486C204.125 14.5069 206.53 17.6889 206.5 20.7482C206.495 21.4735 205.92 22.2703 205.423 22.8832C205.248 23.1028 204.136 22.9649 204.115 22.8576C203.977 22.1681 203.869 21.4071 204.028 20.7329C204.592 18.3426 202 15 201.248 17.0453C197 15.5 193.428 16.6367 189.51 16.6112C187.048 16.5959 184.586 16.8717 181.827 17.0351L181.838 17.0453Z" fill="#1A1A1A"/>
<path d="M108.896 8.29398C111.333 10.092 113.349 12.0117 112.138 15.1418C111.81 15.9978 110.763 16.5803 110.045 17.2894C109.845 17.1171 109.645 16.95 109.445 16.7778C109.538 16.3169 109.604 15.8509 109.727 15.3951C110.548 12.3966 107.29 7.82294 104.176 8.29904C103.469 8.40541 103.977 11.7483 103.762 12.5182C103.336 14.0427 103.398 15.699 103.09 17.2691C102.962 17.9225 102.423 18.976 102.028 18.9963C101.207 19.0368 100.079 18.7481 99.5712 18.1707C98.0478 16.4435 97.5452 14.377 98.0735 12.0421C98.2325 11.3482 97.976 10.3352 97.5195 9.78308C96.1654 8.1319 96.0782 4.46993 97.7554 3.08719C98.3402 2.60602 99.484 2.78329 100.377 2.66173C100.069 3.41641 99.8174 4.20148 99.443 4.92071C99.0173 5.74123 98.4787 6.50098 97.9914 7.28605C99.3558 7.84319 100.689 8.5371 102.105 8.85619C102.413 8.9271 103.177 7.7267 103.475 7.00748C103.952 5.8476 104.126 4.57123 104.577 3.39615C105.326 1.45121 107.209 0.539513 108.83 1.22835C110.676 2.01342 111.399 4.26226 110.363 6.16669C110.004 6.82514 109.512 7.41774 108.896 8.29904V8.29398ZM102.567 11.5254C100.059 12.1737 98.7352 12.8423 99.2943 14.7417C99.443 15.2482 100.592 15.466 101.284 15.8104C101.659 14.5695 102.028 13.3286 102.567 11.5254ZM108.922 5.97929C107.999 5.10811 107.517 4.6472 107.029 4.19135C106.357 4.91564 105.614 5.59435 105.085 6.40474C105.003 6.53137 106.044 7.73683 106.306 7.65073C107.111 7.38735 107.788 6.7441 108.922 5.97422V5.97929Z" fill="#1A1A1A"/>
<path d="M50.2148 16.5143C50.3969 16.6026 50.6258 16.8125 50.8361 16.9494C51.692 17.513 52.013 17.8494 52.6471 18.4003C52.7362 18.4857 52.929 18.5989 52.8361 18.5573C52.7838 18.5305 52.5837 18.5573 52.5659 18.5809C52.5375 18.5994 52.6002 18.5605 52.6613 18.5004C52.9422 18.2286 53.3286 17.7355 53.685 17.3209C54.4069 16.469 55.1004 15.7663 55.3356 15.8028L55.4774 15.6294L55.7132 15.6266C55.72 15.6391 55.7235 15.6521 55.7235 15.6655C55.7235 15.6655 55.7235 15.6655 55.7235 15.6656C55.7235 15.67 55.7231 15.6744 55.7223 15.679C55.7212 15.6859 55.7181 15.6928 55.7132 15.6998L55.5124 15.7022L55.3918 15.8499C55.4141 15.9476 55.296 16.2246 55.3375 16.3146C55.3788 16.4173 55.8954 16.7747 55.6179 17.1684C55.2247 17.7135 54.1055 18.8896 53.8374 19.1908C53.752 19.2904 53.6613 19.4142 53.538 19.5481C53.4069 19.6779 53.2506 19.865 52.8773 19.94C52.5709 19.9911 52.3187 19.8826 52.1712 19.8038C52.0253 19.7248 51.9192 19.6457 51.8264 19.5767C51.6395 19.4349 51.5003 19.3193 51.3498 19.2054C51.0583 18.9843 50.7669 18.7934 50.3633 18.6105C50.1155 18.3423 49.8706 18.0935 49.5933 17.8404C49.3582 17.73 49.0723 17.5475 48.8064 17.3873L49.0993 17.4214C48.8649 17.4571 48.6576 17.4868 48.5353 17.5184C48.3026 17.5784 48.1807 17.6736 47.9391 17.7341C47.6665 17.8028 47.2321 17.8347 46.7395 17.9638C45.9316 18.1755 45.8266 18.3745 45.3449 18.5138C44.8455 18.6583 44.0394 18.7625 43.411 18.9807C43.3348 19.0189 43.2587 19.057 43.1827 19.0951C43.2505 19.1213 43.3184 19.1474 43.3863 19.1736C43.0677 19.2735 42.9075 19.2253 42.6101 19.2988C42.2601 19.3855 42.1019 19.5098 41.8669 19.5694C41.6742 19.6183 41.3972 19.6221 41.1486 19.6906C40.7864 19.7901 40.8896 19.8608 40.6985 19.9287C40.6219 19.9546 39.1945 20.3851 39.114 20.4086C38.4977 20.5777 38.4101 20.468 37.9155 20.591C36.543 20.9335 35.1746 21.4295 33.9312 21.8348C33.3764 22.0155 32.7906 22.1817 32.2267 22.3301C33.0117 21.7489 30.9908 22.0906 31.8685 22.3647C31.7819 22.3806 31.6996 22.3992 31.6204 22.4201C31.1915 22.5337 30.9109 22.7788 30.5112 23.0024C30.2134 23.1755 29.9677 23.2589 29.5834 23.6019C28.8917 24.2187 28.4716 25.1696 28.0183 25.1938C27.4507 26.1562 26.9488 27.019 27.107 27.5095C27.0178 27.7773 26.6051 28.4134 26.5029 28.7254C26.3361 29.0008 25.9634 31.3311 26.0664 31.7101C26.0781 32.0909 26.1832 32.744 26.3022 33.0338C26.3227 33.0877 26.3493 33.1367 26.3794 33.183C26.5504 33.3908 26.7616 33.4291 26.9085 34.0734C27.5062 34.6124 27.7687 34.7855 28.4069 35.3107C28.5245 35.406 28.5043 35.4637 28.5758 35.5161C28.6061 35.5382 28.642 35.5624 28.6817 35.5881C28.5105 35.4904 28.5844 35.5416 28.6478 35.5105C28.7192 35.4917 28.8169 35.4591 28.9179 35.4239C29.3517 35.2696 29.5857 35.2261 29.4377 35.1043C29.4471 35.0942 29.4528 35.0844 29.44 35.0923C29.4363 35.1238 29.3594 35.0502 29.3038 35.4301C29.2769 35.1517 29.248 34.8754 29.2112 34.6059C29.2425 34.4876 29.2724 34.3694 29.3003 34.251C29.2481 34.0774 29.1916 33.9082 29.1293 33.7459C29.446 33.8977 29.0431 32.7606 28.9746 33.177C28.9423 32.9694 28.8957 32.7701 28.8307 32.5833C28.6685 32.1507 28.5306 31.7075 28.434 31.2481C28.5966 31.2503 28.4891 30.8777 28.3753 30.4909C28.2561 30.1087 28.1453 29.6946 28.0623 29.7713C28.0609 29.6807 28.0621 29.5898 28.066 29.4981C28.1817 28.7151 28.3469 27.9266 28.9659 27.1824C29.6047 26.4827 29.5984 26.6153 29.888 26.5284C30.038 26.3864 30.1971 26.2506 30.3587 26.1236C30.4694 25.9624 30.5709 25.8525 30.6715 25.7701C31.1516 25.3947 31.4289 25.6499 32.6703 24.7785C33.0652 24.7681 33.7001 24.5112 34.3892 24.3323C34.7806 24.2278 35.172 24.1089 35.5013 24.0113C35.6037 23.981 35.5957 23.9341 35.7314 23.8907C36.0634 23.7848 36.9417 23.665 36.881 23.5211C37.1898 23.5025 37.4986 23.4842 37.8073 23.4661C38.0468 23.3884 38.2863 23.311 38.5258 23.2336C38.515 23.187 38.5042 23.1404 38.4934 23.0937C39.0196 23.1527 39.7827 22.934 40.1731 22.895C40.2508 22.8874 40.2804 22.9487 40.5206 22.9186C40.8014 22.8838 41.313 22.7609 41.6467 22.7149C41.7605 22.6174 41.8742 22.52 41.988 22.4226C42.5697 22.2654 42.8148 22.4132 43.1639 22.3585C43.2267 22.3486 44.3608 22.1072 44.4212 22.0908C44.9161 21.9581 44.742 21.8259 46.1983 21.5686C46.4577 21.5228 46.6776 21.5364 46.9113 21.4915C47.3242 21.4125 48.5393 21.0334 48.6128 20.8964C49.142 20.9409 50.4646 20.6052 50.8661 20.5649C50.9874 20.553 51.0336 20.6406 51.4023 20.5838C51.7013 20.538 52.4461 20.3025 52.823 20.2347C53.2232 20.1632 53.3819 20.2105 53.5611 20.1776C53.7303 20.1463 53.8717 20.0498 54.1007 20.0002C54.816 19.8466 55.4852 19.8044 56.0499 19.6793C56.4156 19.5984 56.7533 19.4832 57.0741 19.359C57.4833 19.2033 57.878 19.0439 58.2909 18.9435C58.4846 18.9314 58.6738 18.9541 58.8837 18.9458C59.2904 18.9341 59.7512 18.9447 60.2528 19.1496C60.7631 19.3425 61.2146 19.8609 61.3708 20.3486C61.6869 21.3277 61.5441 22.1539 61.4316 22.948C61.407 22.9011 61.4845 23.179 61.6439 23.4168C61.7969 23.6702 61.9938 23.9371 62.171 24.2913L61.1849 24.1298C61.3742 23.9505 61.552 23.822 61.7141 23.7007C61.8414 23.6059 61.9952 23.5004 62.1263 23.3945C62.2614 23.2935 62.3421 23.168 62.3368 23.1991C62.5074 22.0467 63.1108 20.933 62.6078 21.3092C62.6478 21.1059 63.0379 20.2878 63.7029 19.6635C64.3534 19.0242 65.1751 18.6531 65.4218 18.5376C65.923 18.3001 66.3082 18.0877 66.7163 17.9641C67.3625 17.773 67.9103 17.6787 68.4948 17.5825C68.9915 17.502 69.5183 17.3949 70.1533 17.1974C70.4993 17.0899 70.8393 16.8909 71.0401 16.8263C71.2815 16.7495 71.5701 16.7435 71.8797 16.6288C72.6272 16.372 73.9009 15.6622 74.5036 15.226C74.6156 15.1496 74.701 15.1847 74.8719 15.0858C75.5446 14.7026 76.1495 14.0729 75.8641 14.0064C76.601 13.4593 77.0527 12.7139 77.4929 11.9942C77.5199 11.9497 77.5469 11.9044 77.5739 11.858C78.563 10.3846 78.9815 6.67052 78.4027 5.19877C78.1125 4.3921 78.0159 4.31273 77.57 3.61571C77.5604 3.59531 77.5394 3.56005 77.468 3.50645C77.3255 3.39841 77.0481 3.27888 76.6527 3.16921C76.2281 3.04893 75.7657 2.91836 75.2892 2.73409L76.2723 1.81033C76.3799 2.41443 76.414 2.89442 76.6266 3.23024C76.6679 3.5474 76.7519 3.76316 76.8135 3.84553C77.2944 4.44665 77.6577 5.1471 77.6635 5.87448C77.7391 5.98407 77.8095 6.10131 77.8735 6.22412C77.8935 6.40356 77.8998 6.58378 77.8938 6.76151C77.8429 6.81471 77.791 6.8657 77.7381 6.91467C77.6744 7.63365 77.4522 8.39267 77.1911 9.03661C77.014 9.47821 76.8125 9.88902 76.6051 10.2057C76.1916 10.8574 75.2848 11.9736 74.1189 12.7501C72.9667 13.5469 71.6613 13.9788 70.968 14.1485C70.2289 14.3253 70.2077 14.425 69.743 14.3094C69.5819 14.3585 69.4214 14.4048 69.259 14.4492C69.1641 14.5139 69.0693 14.5776 68.9727 14.6408C68.6034 14.7016 68.2053 14.7441 67.8049 14.7739C67.1802 14.8148 66.5584 14.8696 65.8999 14.8195C65.6164 14.7864 65.2255 14.7533 64.8229 14.4169C64.4229 14.0632 64.3231 13.6011 64.2708 13.2666C64.1819 12.5778 64.2237 11.9897 64.2465 11.3922C64.2737 10.8422 63.9472 10.1178 63.721 9.4784C63.6261 9.21091 63.541 8.87074 63.466 8.53757L64.5305 8.72308C64.4261 8.83758 64.3264 8.94268 64.2409 9.04174C63.8438 9.49689 63.8341 9.70606 63.4014 10.2144C63.1865 10.4732 62.9449 10.786 62.8601 11.0741C62.5484 12.2627 62.0446 13.6474 61.5697 14.4572C61.3747 14.799 61.3077 14.9891 61.1301 15.2156C60.3611 16.1826 59.3048 16.5752 58.2556 16.8187C57.0831 16.8004 57.204 16.548 56.8562 16.3646C56.6003 16.2208 55.859 15.8454 55.7586 15.7045C55.6885 15.608 55.9745 15.5024 55.8745 15.395C57.0985 15.357 57.5884 15.4421 58.5192 15.3976C60.23 15.0949 60.9449 13.3779 61.3878 11.5904C61.4834 11.4433 61.5786 11.2896 61.6716 11.1382C61.6718 11.1383 61.6719 11.1383 61.672 11.1383C61.7088 11.0279 61.7376 10.9243 61.7602 10.8269C61.9198 10.2266 62.038 9.92904 62.2289 9.61249C62.5989 9.03599 63.1299 8.51173 63.5291 7.95623L64.2749 6.96221L64.6678 8.15466C64.9286 9.00257 65.6812 9.9286 65.664 11.4853C65.6382 11.8962 65.6117 12.3068 65.6133 12.6909C65.6019 13.0675 65.7018 13.4362 65.7178 13.4068C65.6864 13.4338 66.0701 13.5268 66.4478 13.5075C66.8352 13.5009 67.247 13.4647 67.6604 13.4279C69.423 13.2767 71.0316 12.8935 72.1796 12.3291C73.0233 12.0666 74.9743 10.1842 75.2901 9.68198C75.394 9.57304 75.4889 9.58634 75.5805 9.45132C75.7648 9.13948 75.9317 8.81653 76.0835 8.48348C76.5411 7.504 76.7433 6.50101 76.317 5.67712C76.1972 5.35265 76.0012 5.03391 75.7607 4.73176C75.0658 3.74279 75.2305 2.83682 75.016 2.12918L74.7747 1.21773L75.6856 1.50004C76.5232 1.82093 77.6475 1.5816 78.7538 2.62594C79.4296 3.42547 79.7454 4.38215 79.9248 5.30438C80.3371 7.85775 80.0632 10.4581 78.7123 12.7813C76.5955 16.2993 72.6147 18.3947 68.7305 18.9739C66.7312 19.2986 64.783 19.9968 64.0349 21.6764C63.8058 22.1515 63.6547 22.7318 63.5839 23.3583C63.4319 24.1164 63.0256 24.3115 62.7815 24.5485C62.5166 24.7648 62.2728 24.9405 62.1254 25.0874L61.4353 25.7813L60.9742 24.8989C60.8116 24.5753 60.4873 24.2001 60.2465 23.6647C60.1362 23.4066 60.0603 23.0991 60.1283 22.7534C60.2132 22.4305 60.3038 22.1308 60.235 21.6045C60.2722 21.5963 60.3094 21.588 60.3466 21.5796C60.2802 20.908 60.0936 20.5705 59.7556 20.4259C59.52 20.2232 58.1044 20.3778 57.3514 20.5715C57.2233 20.5995 57.1121 20.6233 57.0252 20.641C56.7049 20.7066 56.8083 20.6117 56.5113 20.6792C56.0031 20.7956 54.9364 21.1312 54.2332 21.2836C53.5964 21.4226 52.5056 21.5735 52.0181 21.6879C50.2623 22.1009 48.3619 22.6105 46.4733 22.9585C45.9516 23.0545 45.2652 23.1002 45.1029 23.1353C44.7859 23.2043 44.7085 23.3093 44.4971 23.3632C43.4233 23.6366 41.7122 23.8728 40.6492 24.0833C38.6693 24.475 36.6279 24.9019 34.6033 25.3399C33.4771 25.584 32.3839 26.1745 31.3533 26.8317C31.1573 26.9567 30.9725 27.0868 30.7993 27.224C30.2065 27.6865 29.618 28.3823 29.502 29.2533C29.3661 30.1237 29.6776 31.1462 30.0677 32.0048C30.3804 32.702 30.4608 33.3506 30.5011 33.8709C30.5288 34.3446 30.4215 34.2248 30.4399 34.6114C30.4541 35.0159 30.5115 35.2391 30.5235 35.427C30.5237 35.5735 30.4802 35.6781 30.453 35.7346C30.2851 36.0198 30.2221 36.0116 30.1426 36.0849C30.0678 36.1401 30.0006 36.182 29.9325 36.2217C29.7961 36.3006 29.6583 36.3678 29.5078 36.4312C29.3569 36.4942 29.1973 36.5529 29.007 36.6009C28.9108 36.6245 28.8086 36.6464 28.6752 36.6568C28.5356 36.65 28.3906 36.7226 28.0154 36.4935C27.0034 35.78 25.5114 34.8345 25.167 33.5634C25.1487 33.4965 25.1331 33.4344 25.1196 33.3754C25.06 33.1142 25.0956 32.914 25.0659 32.7608C25.0511 32.6822 24.9682 32.5185 24.9324 32.2712C24.676 30.1022 25.0702 28.531 25.8504 26.6245C26.8222 24.4387 28.4157 21.9749 31.1996 21.0369C32.7265 20.5641 34.2578 20.1141 35.7401 19.7175C36.5781 19.4932 37.1914 19.4801 37.3081 19.4464C37.5655 19.3729 37.7037 19.2309 38.2207 19.0657C39.9388 18.5158 42.316 18.0173 43.966 17.5594C44.7808 17.3323 45.8813 16.9342 46.6838 16.7131C47.189 16.5735 48.2487 16.3497 48.812 16.202L49.0906 16.1328L49.3667 16.2667C49.5214 16.3396 49.6356 16.3912 49.6986 16.4109C49.8732 16.4648 50.0119 16.4162 50.2148 16.5143ZM29.1268 23.9278C29.0681 23.7174 28.4131 24.6957 28.7689 24.4226C28.8441 24.3595 29.1375 23.9768 29.1268 23.9278ZM61.2699 21.3357C61.3186 21.3205 61.3672 21.3049 61.4156 21.289C61.3819 21.1027 61.3379 20.9213 61.274 20.7347C61.2703 20.8519 61.2575 20.9543 61.2418 21.0637C61.2541 21.1513 61.2639 21.249 61.2699 21.3357ZM153.121 20.4352C152.919 20.4098 152.648 20.2936 152.413 20.2462C152.249 20.213 152.102 20.1821 151.967 20.1529C151.711 20.0947 151.537 20.083 151.427 20.0905C151.311 20.1082 151.313 20.0838 151.247 20.1596C151.193 20.2211 151.108 20.4927 151.12 20.901C151.149 22.0671 150.895 23.3637 150.743 24.1633L150.703 24.6524L150.218 24.801C149.674 24.9021 149.29 24.9247 149.252 24.7926C149.252 24.7926 149.252 24.7926 149.252 24.7926C149.251 24.7883 149.25 24.7839 149.249 24.7794C149.239 24.6931 149.539 24.5069 149.56 24.3995C149.581 24.2921 149.365 23.7016 149.821 23.5309C149.828 23.5282 149.836 23.5255 149.843 23.5228L149.416 24.041C149.447 23.2869 149.814 21.7139 149.789 21.3676C149.79 21.2369 149.773 21.0906 149.751 20.9381C149.732 20.7798 149.72 20.6109 149.732 20.4329C149.765 19.8263 150.019 19.1895 150.56 18.8556C151.094 18.5314 151.622 18.5178 152.185 18.5273C152.212 18.537 152.239 18.5469 152.266 18.5571C152.601 18.6975 152.936 18.8379 153.271 18.9782C153.765 19.0316 154.482 19.2743 154.779 19.3233C155.022 19.3636 155.176 19.3265 155.429 19.3704C155.713 19.4193 156.136 19.5685 156.653 19.6538C157.502 19.794 157.683 19.6565 158.194 19.7296C158.724 19.8056 159.525 20.0476 160.207 20.1147C160.294 20.1122 160.382 20.1097 160.47 20.1073C160.417 20.0548 160.364 20.0024 160.312 19.95C160.653 19.994 160.783 20.1055 161.093 20.1652C161.458 20.2355 161.66 20.1906 161.906 20.2372C162.107 20.2754 162.368 20.3909 162.63 20.4362C163.012 20.5025 162.946 20.3943 163.155 20.4157C163.238 20.4242 164.759 20.6606 164.844 20.6766C165.494 20.7972 165.526 20.9347 166.041 21.0455C167.469 21.3526 168.96 21.54 170.293 21.7685C170.889 21.8705 171.505 22.0035 172.09 22.1451C171.095 22.2771 173.097 22.9521 172.434 22.2879C172.58 22.3354 172.719 22.37 172.854 22.3969C173.317 22.4896 173.73 22.5037 174.213 22.6453C174.618 22.7655 174.88 22.9093 175.455 23.0783C176.473 23.3755 177.64 23.5918 177.792 24.0461C178.559 24.2949 179.219 24.6235 179.732 24.7958C180.029 24.8976 180.275 24.9633 180.484 24.9501C180.813 25.0953 181.456 25.7907 181.708 26.108C181.831 26.2453 182.418 26.8887 182.677 27.7317C182.959 28.5683 182.848 29.4437 182.811 29.6688C182.757 30.1438 182.499 30.9099 182.36 31.2643C182.269 31.5142 182.269 31.7581 182.152 32.0269C182.062 32.2367 181.904 32.4423 181.585 32.6513C181.217 33.4048 181.08 33.7488 181.197 34.0717C181.229 34.1332 181.197 34.1809 181.236 34.2195C181.316 34.2982 181.538 34.3844 181.808 34.4611C181.829 34.4672 181.849 34.4734 181.87 34.4795C182.078 34.5372 182.419 34.5377 182.311 34.3832C182.577 34.288 182.856 34.1332 183.115 33.9546C183.229 33.933 183.343 33.9066 183.458 33.8754C183.581 33.7485 183.696 33.6161 183.799 33.4809C183.806 33.649 184.024 33.5147 184.162 33.3398C184.301 33.1641 184.337 32.9804 184.174 33.0586C184.27 32.9679 184.353 32.8736 184.409 32.7941C184.638 32.435 184.799 31.9992 184.899 31.5345C185.235 31.6659 184.982 30.1069 184.791 30.2609C184.786 30.1867 184.78 30.1143 184.773 30.0411C184.788 29.3877 184.606 28.7994 184.425 28.0126C184.23 27.2234 184.266 27.2885 184.312 27.0027C184.234 26.8246 184.151 26.6484 184.064 26.4742C183.273 25.7387 184.005 25.5395 182.779 24.2444C182.669 23.6437 181.643 22.6425 180.861 22.2389C180.772 22.1899 180.745 22.2283 180.623 22.1703C180.507 22.1149 180.325 22.0115 180.145 21.9348C179.839 21.8024 179.541 21.6905 179.521 21.7826C179.254 21.6193 178.984 21.4585 178.713 21.3008C178.466 21.2311 178.22 21.1637 177.973 21.0986C177.957 21.1437 177.941 21.1889 177.925 21.234C177.508 20.8967 176.729 20.6829 176.366 20.5189C176.294 20.4859 176.3 20.4175 176.072 20.3221C175.807 20.21 175.291 20.0635 174.97 19.9431C174.821 19.9735 174.672 20.0046 174.524 20.0364C173.928 19.8993 173.775 19.6566 173.432 19.5451C173.371 19.5223 172.224 19.2323 172.161 19.2235C171.646 19.1303 171.754 19.3141 170.293 18.9449C170.033 18.8802 169.833 18.7785 169.596 18.7257C169.177 18.6291 167.884 18.5061 167.762 18.6066C167.28 18.3606 165.896 18.1808 165.497 18.0739C165.377 18.0408 165.365 17.9421 164.992 17.8617C164.689 17.7959 163.889 17.7496 163.503 17.6801C163.093 17.6054 162.957 17.5054 162.773 17.4732C162.598 17.443 162.428 17.4839 162.19 17.4501C161.446 17.3438 160.785 17.1509 160.196 17.0716C159.343 16.9568 158.565 17.0504 157.84 17.044C157.664 17.0093 157.495 16.9466 157.309 16.9228C156.937 16.8749 156.558 16.8252 156.173 16.774C155.546 16.6831 154.679 17.0398 153.873 17.4654C153.463 17.6796 153.052 17.9174 152.613 18.1474C152.393 18.2619 152.166 18.3756 151.906 18.4752C151.639 18.562 151.36 18.7072 150.842 18.5955C150.649 18.5417 150.461 18.462 150.287 18.3526C149.523 17.9237 149.227 16.734 149.127 16.0266C149.008 15.2836 148.924 14.796 148.751 15.1864C148.623 14.7871 148.509 12.105 148.378 11.6252C148.284 11.1326 148.116 10.7694 148.01 10.3984C147.997 10.3532 147.984 10.3085 147.971 10.2643C147.969 10.1955 147.746 9.94252 147.461 9.73762C147.174 9.51692 146.827 9.31132 146.406 8.95696L147.535 8.73062C147.378 9.06287 147.192 9.35654 147.029 9.65508C146.844 9.98022 146.81 10.2966 146.804 10.3662C146.796 10.3997 146.785 10.4211 146.773 10.4375C146.754 10.644 146.722 10.8551 146.728 11.0945C146.735 11.5249 146.777 12.1316 146.741 12.8181C146.713 13.1661 146.692 13.5442 146.453 13.9957C146.213 14.4714 145.652 14.7324 145.364 14.775C145.141 14.8162 145.057 14.7464 144.797 14.7296C143.826 14.6235 142.958 14.4322 143.068 14.7146C142.728 14.6142 142.401 14.5411 142.069 14.4829C142.153 14.4857 141.908 14.4934 141.779 14.5194C141.625 14.5439 141.471 14.5752 141.309 14.6095C140.992 14.6774 140.671 14.7539 140.347 14.8185C139.775 14.9324 139.066 15.0746 138.295 15.2215C137.909 15.2946 137.507 15.3693 137.096 15.437C136.886 15.4713 136.678 15.5034 136.459 15.5304C136.344 15.5443 136.231 15.5565 136.11 15.5645C135.961 15.5673 135.897 15.5964 135.571 15.5379C135.203 15.4348 134.767 15.3709 134.307 14.8439C134.086 14.5768 133.989 14.1888 133.996 13.9216C133.999 13.6464 134.051 13.4457 134.1 13.2721C134.31 12.6095 134.502 12.2256 134.59 11.8835C134.718 11.4056 134.694 11.2024 134.684 10.9629L135.027 11.7464C134.847 11.6048 134.64 11.4252 134.422 11.0979C134.197 10.7851 134.02 10.2071 133.992 9.77018C133.951 9.37931 133.962 9.27867 133.829 9.05766C133.783 8.98556 133.724 8.90737 133.651 8.82689L133.461 8.58739C133.001 7.61637 133.009 6.46799 133.165 5.55922C133.748 4.31728 134.452 3.72813 135.081 3.23527C135.054 3.29479 135.108 3.26791 135.144 3.23195C135.115 3.16559 135.081 3.09352 135.039 3.03223C135.052 2.96336 135.041 2.86638 135.047 2.91492C135.1 2.92213 135.151 2.94215 135.243 2.98786C135.249 2.99516 135.255 3.00278 135.262 3.01064C135.209 2.94335 135.046 2.82628 134.893 2.76125C134.816 2.72752 134.736 2.7027 134.683 2.69681C134.638 2.67886 134.579 2.74792 134.817 2.67601C134.242 2.99868 133.747 3.32506 133.465 3.55656C133.332 3.66041 133.197 3.80479 133.159 3.89303C132.389 5.38713 132.07 8.04453 132.331 9.11045C132.44 9.78822 132.565 9.78471 132.484 10.2294C132.55 10.3714 132.619 10.5123 132.692 10.6499C132.772 10.7223 132.854 10.7919 132.936 10.8601C133.097 11.2159 133.286 11.5981 133.5 11.9705C133.771 12.4393 134.074 12.8902 134.381 13.2543C135.355 14.4994 137.362 15.7358 138.814 16.3518C139.172 16.5191 139.614 16.7735 139.992 16.8847C140.544 17.0433 140.718 16.9262 141.425 17.0793C141.743 17.1456 142.132 17.2313 142.558 17.3159C143.85 17.55 145.453 18.108 146.304 18.6851C146.646 18.9039 146.834 18.9828 147.054 19.1719C147.975 19.9873 148.413 20.9629 148.735 22.0383C148.751 22.2475 148.749 22.4084 148.741 22.5503C148.688 22.6732 148.684 22.829 148.655 22.9377C148.629 23.0524 148.591 23.1475 148.6 23.3039C148.613 23.5884 148.854 24.4315 148.769 24.5738C148.728 24.6785 148.491 24.5431 148.459 24.6779C148.015 24.1277 147.47 23.6723 147.359 22.745C147.352 22.4648 147.344 22.1827 147.297 21.8464C146.837 20.1151 145.211 19.1707 143.378 18.8118C143.225 18.7205 143.067 18.6318 142.907 18.5451C142.907 18.545 142.907 18.5449 142.907 18.5448C142.706 18.4888 142.533 18.4587 142.38 18.4426C141.985 18.4004 141.725 18.4342 141.429 18.3994C138.855 18.2147 134.33 16.2971 132.356 12.6876C131.269 10.9367 130.857 8.93175 130.93 7.40264C130.892 6.59669 131.325 4.35972 131.862 3.33547C132.021 2.9954 132.214 2.81877 132.325 2.72511C132.487 2.59759 132.583 2.62952 132.741 2.51123C133.247 2.10669 133.791 1.84306 134.302 1.58132C134.643 1.44055 134.826 1.51413 134.994 1.54466C135.159 1.58637 135.297 1.64306 135.429 1.70714C135.693 1.84073 135.924 1.98142 136.166 2.23981C136.389 2.53575 136.365 2.69544 136.388 2.85059C136.397 3.00234 136.388 3.13615 136.369 3.26887C136.315 3.53767 136.296 3.77498 136.002 4.12494C135.938 4.19652 135.87 4.27226 135.803 4.34757C134.634 5.40078 133.873 6.65259 134.681 7.9342L134.563 7.7855C135.062 8.15981 135.437 8.96175 135.481 9.50939C135.561 10.0462 135.685 10.2663 136.038 10.5668L136.244 10.7394L136.237 11.0215C136.22 11.6791 136.019 12.2818 135.807 12.8076C135.633 13.2398 135.421 13.7081 135.42 13.9201C135.434 14.0168 135.394 13.9289 135.461 13.9954C135.534 14.0471 135.708 14.1117 135.894 14.1522C135.823 14.1439 136.008 14.1499 136.108 14.1356C136.226 14.1239 136.353 14.1068 136.483 14.0874C136.739 14.0489 137.005 14.0017 137.267 13.953C137.794 13.8546 138.326 13.7459 138.859 13.6373C139.982 13.4393 140.801 13.1315 142.301 13.0977C142.878 13.1905 143.442 13.286 143.995 13.3539C144.512 13.4334 145.173 13.4038 145.17 13.332C145.223 13.3683 145.34 12.7329 145.317 12.2096C145.312 11.6537 145.281 11.0864 145.255 10.5042C145.318 9.20815 146.032 8.70274 146.265 8.11454L146.648 7.30116L147.34 7.89895C147.816 8.39588 148.749 8.51491 149.344 9.86097C149.833 11.4934 149.989 13.1777 150.163 14.7602C150.272 15.8313 150.565 17.2745 151.185 17.3017C151.051 17.2984 151.328 17.2741 151.52 17.1744C151.73 17.0833 151.955 16.9656 152.173 16.8517C152.764 16.5443 153.062 16.5035 153.858 15.9976C153.883 16.027 153.908 16.0565 153.932 16.086C154.663 15.724 155.144 15.3576 156.292 15.41C156.309 15.4117 156.327 15.4137 156.345 15.4158C157.099 15.5044 158.963 15.734 159.591 15.83C159.923 15.8801 159.79 15.9331 160.101 15.9731C160.632 16.0408 161.781 16.0969 162.514 16.2009C163.179 16.2935 164.287 16.5394 164.799 16.609C166.643 16.8555 168.667 17.0961 170.608 17.5633C171.144 17.6914 171.812 17.945 171.979 17.9843C172.307 18.0599 172.426 17.9998 172.649 18.0451C173.781 18.2713 175.479 18.8787 176.546 19.2502C177.906 19.7147 179.281 20.2427 180.634 20.8452C183.029 22.0279 184.334 24.2223 185.247 26.3322C185.956 28.0555 186.814 31.0723 185.643 33.4165C185.256 34.1065 184.791 34.4367 184.388 34.7275C183.959 35.0071 184.021 34.8496 183.655 35.0584C183.242 35.2782 183.014 35.4253 182.788 35.5008C182.498 35.5804 182.144 35.723 181.548 35.5857C181.195 35.4823 180.773 35.3528 180.37 34.9404C179.94 34.5232 179.86 33.7796 179.978 33.3327C180.205 32.4025 180.651 31.8198 180.924 31.3292C181.049 31.1179 181.149 30.9311 181.232 30.7712C181.334 30.5753 181.46 30.4507 181.502 30.3249C181.524 30.2617 181.523 30.1033 181.566 29.9037C181.933 28.1372 181.102 26.9586 179.457 26.0997C179.373 26.0571 179.288 26.0158 179.2 25.975C177.192 25.0508 174.901 24.2781 172.561 23.8094C170.901 23.4729 169.241 23.1422 167.649 22.8085C166.78 22.6263 166.21 22.3646 166.087 22.3422C165.818 22.2931 165.626 22.3581 165.076 22.2776C163.249 22.0087 160.824 21.4449 159.088 21.173C158.23 21.0384 157.034 20.9459 156.189 20.8178C155.514 20.7155 153.938 20.3724 153.63 20.3718C153.443 20.3713 153.34 20.4623 153.121 20.4352ZM176.039 23.3473C175.869 23.4696 177.147 23.7503 176.715 23.5051C176.618 23.4482 176.083 23.3132 176.039 23.3473ZM154.52 16.8421C154.55 16.8828 154.58 16.9238 154.61 16.9647C154.745 16.8833 154.88 16.8072 155.019 16.7377C154.927 16.7378 154.836 16.7404 154.742 16.7458C154.668 16.7764 154.594 16.8085 154.52 16.8421ZM27.6254 13.0484C27.6393 12.9866 27.6823 12.9167 27.7239 12.8406C27.8155 12.5814 27.9664 12.4126 28.0732 12.3015C28.5835 11.845 28.7764 11.8599 28.9873 11.7586C29.1825 11.6849 29.3658 11.6232 29.498 11.5576L30.3724 10.9943L30.7594 11.9935C30.7646 12.0119 30.7708 12.0319 30.778 12.0535C30.8108 12.2948 31.2266 12.6493 31.2486 13.7236C31.0541 15.0653 30.5317 15.7142 30.3021 15.7591L29.4978 15.2441C29.5098 15.2503 29.5206 15.2584 29.5299 15.2684C29.5299 15.2684 29.5299 15.2685 29.5299 15.2685C29.5329 15.2717 29.5358 15.2751 29.5385 15.2788C29.5428 15.2845 29.546 15.2912 29.5485 15.2987L30.2313 15.736C30.1657 15.6778 30.1426 15.4797 30.0691 15.4218C29.9886 15.3599 29.3885 15.1697 29.4668 14.8599C29.5587 14.5187 29.8704 13.9503 29.9092 13.6507C29.9262 13.5894 29.922 13.5173 29.9115 13.4798C29.8833 13.3734 29.7723 13.2426 29.6808 13.0687C29.5808 12.8768 29.4864 12.6904 29.4077 12.4889L30.2555 12.7819C29.8879 13.0121 29.5939 13.1252 29.3766 13.3655C29.2334 13.3679 29.1567 13.406 29.1543 13.271C29.1134 13.3333 29.0726 13.3916 29.0314 13.4484C28.9653 13.7847 28.6536 14.2191 28.5552 14.4001C28.477 14.552 28.4789 14.6744 28.3795 14.8275C28.2642 15.0028 28.0198 15.2148 27.7467 15.4769C27.2874 15.8915 27.2493 16.0759 26.9016 16.2677C26.5312 16.4631 25.9033 16.5188 25.426 16.6044C25.3658 16.6272 25.3055 16.6491 25.2452 16.67C25.2909 16.7101 25.3365 16.7497 25.385 16.7887C25.133 16.8222 25.0245 16.7364 24.8002 16.7302C24.5378 16.7202 24.399 16.7895 24.2246 16.7729C24.081 16.7587 23.8981 16.671 23.7185 16.6482C23.456 16.6135 23.4985 16.7146 23.3548 16.7077C23.3102 16.7074 22.7276 16.6239 22.4159 16.5621C22.3266 16.5461 22.2625 16.5367 22.2505 16.5343C21.8932 16.4688 21.8764 16.34 21.5727 16.2943C20.8604 16.1957 20.0892 16.2804 19.352 16.349C19.2072 16.3621 19.0652 16.3742 18.9257 16.3844C18.5397 16.4126 18.1366 16.4152 17.7513 16.4038C18.3491 16.0595 17.0029 15.8345 17.5162 16.3389C17.0866 16.2754 16.7865 16.4215 16.3808 16.4069C16.1185 16.3973 15.9355 16.3297 15.5617 16.3399C14.8982 16.3584 14.1791 16.5794 13.9793 16.2167C13.2035 16.301 12.5265 16.1885 12.2575 16.5223C12.0583 16.5484 11.5394 16.3732 11.3139 16.3558C11.1008 16.3366 9.47075 16.3239 9.20486 16.3371C8.93883 16.3468 8.47349 16.3699 8.25193 16.4133C7.97282 16.4673 7.8027 16.8158 7.27425 16.4616C6.78737 16.5267 6.56394 16.5424 6.18072 16.5481C6.12348 16.5479 6.06084 16.5495 5.99007 16.5548C5.90987 16.5613 5.88781 16.507 5.83978 16.518C5.74033 16.5412 5.5875 16.6304 5.41933 16.7059C5.14554 16.8295 4.93071 16.8213 5.05274 16.9659C4.89371 17.0912 4.74009 17.2306 4.59739 17.3771C4.51824 17.3912 4.43919 17.407 4.35949 17.4252C4.29742 17.5268 4.24001 17.6289 4.18479 17.733C4.09353 17.4367 3.63616 18.1175 3.93281 18.041C3.61396 18.291 3.31175 18.5764 3.03393 18.8882C2.79707 18.6611 2.52684 19.6574 2.73166 19.6583C2.71038 19.6992 2.68962 19.7402 2.66942 19.7812C2.42109 20.1101 2.34414 20.481 2.1911 20.9255C2.05184 21.3757 2.04756 21.3283 1.89346 21.4649C1.89725 21.5795 1.90776 21.6894 1.92559 21.797C1.99689 21.8824 2.04314 21.9464 2.07006 22.0004C2.18961 22.0933 1.81595 22.4608 2.69342 22.8722C2.77292 23.1603 3.18487 23.4431 3.59342 23.7762L3.11024 23.826C3.23682 23.6003 3.36864 23.4116 3.47124 23.2531C3.50889 23.1953 3.47395 23.1634 3.51844 23.0868C3.57263 22.994 3.6903 22.8543 3.73512 22.7524C3.78303 22.6446 3.75253 22.6182 3.67797 22.6119C3.68618 22.6124 3.69395 22.6161 3.70244 22.6205C3.72879 22.4468 3.75736 22.283 3.78801 22.1107C3.75489 21.9466 3.72396 21.7731 3.69674 21.602C3.64889 21.6027 3.60103 21.6034 3.55318 21.6042C3.7137 21.2578 3.68592 20.6998 3.77301 20.4209C3.78996 20.3664 3.85454 20.3659 3.90606 20.1962C3.96365 20.001 4.05321 19.6161 4.18852 19.3894C4.16528 19.2673 4.15094 19.1387 4.14715 19.0057C4.40144 18.5439 4.69915 18.5612 4.9209 18.4015C4.95112 18.3394 5.74122 17.9208 5.7868 17.9279C6.12958 17.7895 5.99903 17.6045 7.0444 17.4721C7.2313 17.453 7.37926 17.494 7.54668 17.4804C7.75853 17.4612 8.28627 17.3569 8.57106 17.2626L7.96654 18.3956C7.883 18.3162 7.81839 18.2668 7.78248 18.2656C7.7325 17.9151 7.18589 16.9441 7.33734 16.3727C7.3834 16.2332 7.41854 16.1959 7.68306 15.8012C7.92641 15.4059 8.67207 15.142 8.96146 15.1535C9.27362 15.1461 9.39047 15.2368 9.51368 15.246C9.63284 15.2566 9.76532 15.2013 9.92158 15.2177C10.4426 15.2754 10.8568 15.4624 11.2422 15.5445C11.7966 15.665 12.3117 15.5981 12.7915 15.6355C12.8994 15.6765 12.9985 15.7451 13.1159 15.7769C14.5628 16.1695 16.154 16.6909 17.5601 17.0595C18.2199 17.2695 19.7939 17.6903 19.3946 17.2112C19.4284 17.2011 19.4942 17.1991 19.5733 17.1993C20.1294 17.1986 21.4169 17.3806 21.6962 17.401C22.03 17.4222 22.299 17.3612 22.5609 17.3767C23.351 17.4241 23.901 17.5206 24.8594 17.5184C25.1068 17.5176 25.3764 17.4434 25.5216 17.4538C25.6969 17.4666 25.8794 17.5672 26.1061 17.5865C26.161 17.5911 26.221 17.5955 26.2849 17.5998L27.0159 17.656L27.0029 18.361C26.9984 18.9278 27.0205 19.795 27.0067 20.2646C27.0037 20.3601 26.9257 20.3937 26.9014 20.5302C26.8378 20.8854 26.8203 21.2693 26.8899 21.4537L26.6363 20.9388C26.7324 20.969 26.8008 20.9513 26.8232 20.8639C26.9586 21.021 27.0979 21.1545 27.2403 21.2703L26.0512 21.6531C26.212 21.1629 26.347 20.6593 26.6207 20.1983C26.999 19.5087 27.9138 18.6376 28.9523 18.286C29.978 17.9099 30.9519 17.8579 31.5536 17.7705C32.2638 17.6786 32.2963 17.5837 33.1765 17.6303C33.2321 17.6332 33.2941 17.6366 33.3599 17.6405C33.5942 17.6543 33.8233 17.6747 34.0945 17.6808C34.2763 17.6848 34.4516 17.697 34.6194 17.702C35.0269 17.7169 35.423 17.6732 35.676 17.4021C36.329 17.2507 36.7717 16.9568 37.3099 16.8514C37.3311 16.7755 37.351 16.6994 37.369 16.6237C37.4353 16.5746 37.5004 16.5242 37.5648 16.4724C37.6149 16.495 37.6655 16.517 37.7164 16.5386C38.2084 16.1709 38.5683 15.468 38.8315 15.0647C39.3162 14.4832 39.9244 12.7734 39.7403 11.879C39.7295 11.7743 39.7192 11.684 39.71 11.6079C39.6522 11.1911 39.5457 11.2333 39.665 10.963C39.6187 10.8992 39.5703 10.846 39.5229 10.8068C39.4629 10.8044 39.4069 10.8123 39.3578 10.8299C39.2907 10.7699 39.2386 10.7222 39.0568 10.6993C38.8822 10.679 38.6395 10.7118 38.4161 10.7799L38.8492 9.97998C38.8641 10.0391 38.8784 10.0967 38.8925 10.1527C39.2062 11.216 39.3872 13.1463 38.6222 14.262C38.4527 14.5367 38.1434 14.8024 37.9386 15.0237C37.6352 15.3398 37.661 15.5432 37.1872 15.8709C36.3569 16.4806 34.6124 16.6592 33.7959 16.6714C33.5497 16.6858 33.4316 16.7457 33.2625 16.7514C32.5433 16.771 31.9637 16.7068 31.2764 16.6921C30.5803 16.4176 30.6935 16.2262 30.5176 15.9868C30.3795 15.8043 29.9875 15.3483 29.9514 15.2006C29.9274 15.0984 30.1346 15.0282 30.0934 14.912C30.887 15.025 31.1928 15.1727 31.814 15.4085C32.9958 15.5626 34.2065 15.5661 35.2888 15.2548C35.4008 15.281 35.5196 15.3022 35.6353 15.3207C35.6353 15.3208 35.6353 15.3209 35.6354 15.3211C36.0769 15.2295 36.1775 15.0058 36.3554 14.8664C37.433 14.1524 38.1416 12.3272 37.5643 10.3268L37.3904 9.72656L38.0042 9.51426C38.6095 9.32804 39.5936 9.15466 40.2967 9.84917C40.9039 10.5136 40.9231 11.1587 41.0189 11.666C41.07 12.0135 41.0824 12.3453 41.0708 12.6503C41.1576 13.3315 40.4817 15.3795 40.0946 15.6602C40.0138 15.7434 39.9249 15.722 39.8553 15.8179C39.2987 16.7208 38.5366 17.4985 37.6419 18.095C36.7578 18.5548 35.7984 18.8902 34.7953 19.0309C34.257 19.1066 33.7288 19.1351 33.2166 19.1607C32.5764 19.1902 31.9526 19.2072 31.3537 19.2521C29.3853 19.3138 27.8321 20.2264 27.398 22.0584L27.1463 22.9513L26.3829 22.3852C26.1959 22.2441 26.017 22.1043 25.8417 21.9721L25.5925 21.7876L25.5864 21.4537C25.5772 20.4212 25.569 19.3904 25.5624 18.361L26.2007 19.0378C23.9518 18.9222 21.7359 18.7184 19.549 18.6714C19.5297 18.671 19.509 18.6705 19.4882 18.6699C18.2901 18.6182 16.9602 18.318 15.9588 18.015C15.5383 17.8842 15.4027 17.7033 14.8269 17.6496C14.8312 17.6121 14.8355 17.5746 14.8398 17.5371C14.3494 17.4466 14.0212 17.4415 13.4875 17.3024C13.035 17.1816 11.8563 16.8754 11.4654 16.7753C11.2651 16.722 11.3529 16.6704 11.1629 16.6288C10.8381 16.557 10.1296 16.5187 9.70733 16.4852C9.32718 16.43 8.68444 16.4222 8.67572 16.4955C8.65156 16.5277 8.69256 16.4826 8.68959 16.5138C8.69112 16.5457 8.71075 16.6586 8.75623 16.7712C8.85529 17.0294 9.02231 17.3031 9.23122 17.6128L9.9167 18.6813L8.62498 18.749C8.15196 18.786 7.68055 18.8272 7.23486 18.8761C6.91586 18.9074 6.51205 18.9091 6.42402 18.9397C6.24943 18.9955 6.22871 19.0976 6.12983 19.1476C5.59264 19.3827 5.14551 19.8264 5.03903 20.4841C4.92299 21.0961 4.93653 21.818 4.97949 22.5483C4.97138 23.2698 4.64342 23.5324 4.46548 23.7925C4.26635 24.0387 4.07894 24.2435 3.97682 24.4013L3.50999 25.1331L2.86236 24.5161C2.6036 24.2634 2.24318 24.0065 1.87364 23.6998C1.52145 23.3793 1.03704 23.0569 0.834917 22.2484C0.793841 22.0401 0.775434 21.8328 0.773431 21.6327C0.719636 19.7729 2.22892 17.4925 3.43017 16.6007C3.68609 16.4037 3.67836 16.5346 3.89213 16.3718C4.13061 16.1963 4.2363 16.0566 4.35701 15.9782C4.71381 15.7501 5.31401 15.4199 6.0691 15.3353C6.85837 15.2438 7.68977 15.1787 8.16429 15.1855C8.32353 15.1877 8.44309 15.2557 8.53778 15.2495C8.58571 15.2466 8.6909 15.1886 8.84121 15.1745C10.1684 15.0512 11.1395 15.0428 12.4403 15.0184C14.585 14.9787 17.0147 14.8763 19.3066 14.8234C19.6796 14.8144 20.0557 14.8093 20.4311 14.8179C21.0211 14.8305 21.4235 15.0134 21.5054 15.0186C21.6887 15.0322 21.8157 14.9389 22.1994 14.9717C22.3826 14.9888 22.5759 15.0176 22.7749 15.0603C23.8063 15.2855 25.0411 15.5196 25.8283 15.2959C26.2964 15.1861 26.7535 14.7996 27.0041 14.487C27.2347 14.2726 27.6826 13.5435 27.6783 13.3522C27.6835 13.2478 27.5989 13.1656 27.6254 13.0484ZM15.1616 16.2653C15.2353 16.0903 14.4229 16.2532 14.7311 16.339C14.8004 16.3583 15.1426 16.3107 15.1616 16.2653ZM14.9563 16.6019C14.9625 16.5522 14.9686 16.5025 14.9747 16.4529C14.8657 16.4437 14.7573 16.4346 14.6484 16.4254C14.6984 16.4704 14.7484 16.5153 14.7983 16.5602C14.8508 16.5741 14.9035 16.5879 14.9563 16.6019ZM187.189 17.6698C187.063 17.6884 186.879 17.6336 186.728 17.6392C186.095 17.6624 185.857 17.6347 185.279 17.6506C184.464 17.6758 182.09 17.9246 181.857 17.5443L182.187 16.6738C182.181 16.6931 182.172 16.7099 182.158 16.724C182.158 16.724 182.158 16.724 182.158 16.724C182.155 16.7271 182.151 16.7301 182.148 16.733C182.139 16.7402 182.127 16.745 182.113 16.7479L181.851 17.4398C181.897 17.3609 182.059 17.2693 182.082 17.1836C182.107 17.0846 182.045 16.4607 182.349 16.4058C182.789 16.3317 183.867 16.4138 184.105 16.3886C184.267 16.3716 184.462 16.2998 184.67 16.2743C185.339 16.1921 185.693 16.2079 186.292 16.0143C186.541 16.0802 186.789 16.1472 187.037 16.2157C187.354 16.1604 187.841 16.2475 188.034 16.2356C188.193 16.2254 188.284 16.1582 188.45 16.1511C188.637 16.1429 188.924 16.2069 189.263 16.1959C189.358 16.1929 189.44 16.1858 189.512 16.176C189.849 16.1275 189.958 16.0064 190.223 15.9823C190.554 15.9521 191.079 16.0178 191.505 15.9283C191.557 15.9061 191.609 15.8839 191.662 15.8615C191.62 15.8225 191.579 15.7835 191.538 15.7444C191.751 15.7098 191.851 15.7882 192.05 15.7741C192.284 15.7573 192.398 15.666 192.556 15.6531C192.686 15.6425 192.868 15.6924 193.036 15.6738C193.283 15.6471 193.221 15.5578 193.353 15.529C193.404 15.5165 194.391 15.3866 194.45 15.3842C194.88 15.3524 194.925 15.4794 195.27 15.4744C196.226 15.4613 197.227 15.3686 198.143 15.4255C198.55 15.4496 198.977 15.5187 199.373 15.6153C198.692 15.8211 200.009 16.3409 199.603 15.7326C200.03 15.898 200.373 15.8421 200.783 15.9884C201.029 16.0784 201.184 16.1949 201.512 16.3198L200.524 16.779C200.535 16.7492 200.547 16.7187 200.56 16.6876C200.645 16.4794 200.767 16.21 201.013 15.9699C201.253 15.7222 201.678 15.5606 202 15.5803C202.649 15.6266 202.882 15.9216 202.885 16.1291C203.75 16.7059 203.926 17.4552 204.374 17.5955C204.504 17.7982 204.542 18.4232 204.578 18.6737C204.646 18.8633 204.806 20.2374 204.571 20.8611C204.549 20.9351 204.537 20.9951 204.531 21.0286C204.487 21.239 204.484 21.6515 204.535 21.8528C204.595 22.1085 204.939 22.2164 204.665 22.7473C204.626 22.5809 204.535 22.5045 204.504 22.4786C204.317 22.3321 204.386 22.4023 204.381 22.3875C204.391 22.389 204.411 22.3927 204.432 22.3957C204.474 22.4021 204.521 22.4078 204.565 22.4125C204.654 22.422 204.737 22.4287 204.816 22.4344C204.894 22.4399 204.972 22.4444 205.042 22.4455C205.077 22.4461 205.111 22.4451 205.129 22.4454C205.143 22.4575 205.158 22.4085 205.019 22.5528C205.017 22.5547 205.016 22.5568 205.014 22.5588C205.083 22.4879 205.135 22.5151 205.169 22.4719C205.24 22.3822 205.325 22.2032 205.434 22.0393C205.612 21.7711 205.8 21.6766 205.621 21.613C205.694 21.4237 205.748 21.2369 205.768 21.0707C205.82 21.0271 205.87 20.9819 205.916 20.9341C205.898 20.8607 205.873 20.7958 205.841 20.7436C205.834 20.7205 205.826 20.6995 205.819 20.6786C206.1 20.8087 205.9 20.0249 205.759 20.2935C205.785 19.8984 205.767 19.4912 205.706 19.0833C206.034 19.0463 205.437 18.2094 205.306 18.3679C205.288 18.3257 205.269 18.2837 205.25 18.2419C205.152 17.8404 204.91 17.5453 204.666 17.1153C204.41 16.6871 204.452 16.711 204.459 16.4994C204.372 16.4149 204.284 16.3337 204.194 16.2548C203.479 16.1332 204.015 15.6291 202.926 15.3208C202.749 14.9286 201.864 14.7255 201.313 14.7589C201.248 14.7603 201.243 14.8072 201.158 14.8146C201.124 14.8177 201.081 14.8179 201.034 14.8174C200.771 14.8137 200.372 14.7747 200.383 14.9035C200.186 14.8507 199.988 14.7986 199.79 14.7472C199.626 14.7692 199.462 14.7918 199.298 14.8147C199.297 14.8626 199.296 14.9104 199.296 14.9583C198.973 14.785 198.454 14.8356 198.2 14.7921C198.15 14.7832 198.14 14.7169 197.982 14.6962C197.798 14.6716 197.454 14.6863 197.235 14.6635C197.148 14.7357 197.062 14.808 196.976 14.8804C196.583 14.9169 196.446 14.7235 196.215 14.7077C196.173 14.7045 195.414 14.7181 195.373 14.7228C195.038 14.7566 195.134 14.9192 194.165 14.8908C193.993 14.8858 193.853 14.8302 193.697 14.8294C193.421 14.8276 192.592 14.9664 192.528 15.0866C192.192 14.9414 191.297 15.0147 191.032 14.9752C190.952 14.9631 190.933 14.8683 190.688 14.8514C190.489 14.8376 189.978 14.9205 189.726 14.9108C189.458 14.9002 189.362 14.8214 189.242 14.8171C189.128 14.8132 189.025 14.8788 188.87 14.88C188.388 14.8826 187.95 14.7822 187.569 14.7823C187.018 14.7821 186.531 14.9733 186.068 15.0565C185.953 15.0437 185.84 15.0022 185.72 15.0011C185.319 14.9972 184.905 14.9893 184.483 14.9773C183.264 14.9444 182.018 14.6777 180.941 14.2247C180.711 14.1284 180.379 13.9481 180.066 13.7487C179.365 13.3048 178.965 12.7138 178.974 13.1687C178.658 13.0134 177.761 11.4362 177.584 11.2235C177.518 11.1388 177.449 11.0682 177.381 11.0068L178.58 10.5639C178.603 10.7546 178.636 10.9258 178.637 11.096C178.64 11.8824 178.584 12.4361 178.652 13.3933C178.669 13.6405 178.761 13.9054 178.76 14.0518C178.76 14.1288 178.742 14.2083 178.723 14.2924L178.71 14.9906L178.051 15.1018C177.938 15.0971 177.817 15.0895 177.687 15.1098C177.144 15.2001 176.104 15.3872 175.543 15.4028C175.441 15.4067 175.401 15.3314 175.255 15.3141C174.689 15.2513 174.055 15.2126 174.149 15.4681C173.415 15.278 172.704 15.2633 172.026 15.0229C171.549 14.8551 170.967 14.5702 170.413 14.1878C169.237 13.4921 168.34 11.8616 168.264 10.9218C168.145 10.0568 168.023 10.0297 168.303 8.86943C168.371 8.61763 168.453 8.37524 168.549 8.08584C168.582 7.98347 168.619 7.88688 168.658 7.78993L169.937 8.72142C169.46 8.92849 168.997 9.1365 168.892 9.54197C168.533 9.83283 168.4 10.1103 168.298 10.2958C168.254 10.4182 168.206 10.5375 168.145 10.6601C168.193 10.7212 168.242 10.7803 168.291 10.8375C168.291 10.9167 168.293 10.9959 168.297 11.0748C168.249 11.1011 168.202 11.1281 168.154 11.156C168.162 11.7533 168.55 12.4241 168.747 12.8592C168.976 13.657 170.401 15.3319 171.129 15.7331C171.485 15.9801 171.552 15.8886 171.685 16.1901C171.78 16.2175 171.876 16.2428 171.972 16.2657C172.046 16.2453 172.119 16.2235 172.191 16.2006C172.679 16.3851 173.269 16.589 173.782 16.6395C173.805 16.642 173.829 16.6443 173.852 16.6463C174.848 16.7425 176.454 16.5726 177.582 16.8099C177.862 16.8661 178.199 17.0217 178.473 17.0859C178.872 17.1848 179.019 17.0508 179.534 17.2505C180.481 17.5512 181.692 18.9498 182.075 19.6927C182.211 19.9126 182.314 19.9808 182.403 20.1379C182.41 20.1508 182.417 20.1637 182.424 20.1767L181.181 20.4724C181.155 19.816 181.158 19.2714 181.067 18.6375C181.221 17.9432 181.42 18.0032 181.62 17.788C181.771 17.6249 182.121 17.1249 182.253 17.0539C182.346 17.0041 182.466 17.1902 182.568 17.1204C182.65 17.9522 182.56 18.3017 182.416 18.9772C182.418 19.4756 182.421 19.974 182.423 20.4724L181.315 20.736C180.999 20.1165 180.602 19.5708 180.1 19.1509C180.061 19.0449 180.015 18.9375 179.966 18.8327C179.966 18.8326 179.966 18.8325 179.966 18.8324C179.645 18.5262 179.4 18.5733 179.182 18.5061C177.981 18.0766 175.907 18.1659 173.656 17.965C171.906 17.7786 170.384 16.905 169.453 16.079C168.92 15.7248 167.604 14.0829 167.564 13.6019C167.538 13.489 167.603 13.4254 167.56 13.315C167.098 12.3601 166.867 11.2616 166.959 10.1615C166.962 10.1447 166.965 10.1279 166.969 10.1111C167.321 8.72384 168.351 8.14992 169.201 7.5512L170.311 6.83625L169.997 8.13069C169.759 9.12768 169.591 10.1396 169.758 10.9999C169.908 11.8366 170.458 12.4987 171.221 13.0002C173.085 14.3102 175.442 14.1102 177.773 13.6229L177.218 14.2924C177.211 13.0474 177.206 11.8047 177.205 10.5639L177.186 8.69208L178.426 10.113C179.013 10.8043 179.437 11.5159 179.926 12.0592C180.142 12.301 180.395 12.5195 180.658 12.6514C181.273 12.9698 181.983 13.1892 182.584 13.3541C182.969 13.4562 183.117 13.6281 183.657 13.5883C183.658 13.626 183.66 13.6636 183.662 13.7013C183.981 13.704 184.222 13.6684 184.504 13.6422C184.646 13.6299 184.798 13.6215 184.975 13.6208C185.439 13.6207 186.669 13.6189 187.08 13.6309C187.293 13.6373 187.214 13.7073 187.413 13.7061C187.754 13.7037 188.481 13.602 188.951 13.5968C189.377 13.5925 190.097 13.6636 190.425 13.6475C191.606 13.5906 192.893 13.452 194.158 13.474C194.507 13.4801 194.957 13.5683 195.066 13.5654C195.279 13.5594 195.343 13.4716 195.487 13.4601C196.216 13.4012 197.355 13.5126 198.071 13.5305C199.06 13.5536 200.076 13.5813 201.095 13.6285C202.701 13.6961 204.171 14.5331 205.165 15.6142C206.309 16.7175 207.337 19.1976 207.171 20.755C207.169 20.8121 207.165 20.8691 207.158 20.9236C207.09 21.3273 207.009 21.1973 206.923 21.4894C206.814 21.7999 206.788 21.9736 206.724 22.1061C206.558 22.4459 206.27 22.8864 205.944 23.3061C205.711 23.5685 205.562 23.572 205.452 23.6147C205.34 23.6459 205.252 23.6584 205.17 23.6679C205.006 23.6854 204.864 23.6859 204.724 23.6806C204.584 23.6749 204.45 23.6625 204.309 23.6407C204.239 23.6294 204.168 23.6165 204.083 23.5948C204.039 23.5832 203.997 23.5718 203.93 23.5464C203.9 23.5343 203.86 23.5192 203.798 23.4838C203.763 23.4625 203.735 23.4484 203.668 23.3906C203.619 23.3407 203.495 23.249 203.437 22.9873C203.36 22.6071 203.313 22.2396 203.31 21.9683C203.307 21.7918 203.377 21.6595 203.375 21.5537C203.374 21.5001 203.321 21.3777 203.326 21.2009C203.332 20.9931 203.355 20.7869 203.399 20.5847C203.546 19.7745 203.383 18.9521 202.938 18.0818C202.736 17.701 202.446 17.319 202.156 17.1258C202.012 17.0246 201.91 17.0381 201.96 17.035C202 17.0093 201.902 17.0804 201.844 17.2642L201.64 17.8505L201.031 17.6415C199.587 17.125 198.023 16.9125 196.521 16.8736C195.974 16.8574 195.588 16.7262 195.509 16.73C195.337 16.7398 195.231 16.8437 194.885 16.8883C193.736 17.0349 192.145 17.0998 191.003 17.2071C190.568 17.2499 190.005 17.3488 189.504 17.3933C189.366 17.4068 189.234 17.4185 189.112 17.4256C188.688 17.4468 187.677 17.4322 187.489 17.4992C187.375 17.5383 187.327 17.6491 187.189 17.6698ZM200.955 16.1886C200.981 16.2988 201.163 16.0475 201.462 15.8913C201.751 15.7397 202.044 15.6951 201.697 15.6819C201.619 15.6825 201.378 15.7547 201.209 15.8887C201.041 16.0147 200.947 16.1644 200.955 16.1886ZM183.707 14.6424C183.71 14.6924 183.713 14.7424 183.716 14.7924C183.831 14.782 183.945 14.7699 184.058 14.7558C183.997 14.7225 183.936 14.6886 183.876 14.6542C183.819 14.6507 183.763 14.6468 183.707 14.6424ZM111.823 4.69544C111.826 4.82784 111.739 5.00225 111.709 5.14938C111.569 5.7679 111.439 5.97598 111.176 6.46332C111.156 6.49716 111.135 6.5342 111.112 6.57396C110.668 7.3521 109.659 8.70464 109.299 8.58056L108.421 9.86658L108.405 8.29904C108.417 8.29569 108.43 8.29398 108.443 8.29398C108.443 8.29398 108.443 8.29398 108.443 8.29398C108.447 8.29398 108.452 8.29417 108.456 8.29456C108.463 8.29511 108.47 8.29665 108.476 8.29904L108.49 9.63829L109.241 8.53956C109.191 8.47044 109.204 8.30086 109.145 8.23018C109.081 8.15317 108.557 7.80625 108.674 7.5837C108.848 7.26152 109.476 6.68114 109.566 6.52781C109.631 6.42274 109.667 6.26613 109.736 6.13157C109.782 6.04342 109.823 5.96509 109.86 5.89213C109.994 5.61849 110.081 5.40618 110.04 5.07207C110.158 4.94053 110.266 4.79467 110.363 4.63548C110.35 4.41798 110.443 4.08403 110.417 3.94761C110.398 3.83804 110.324 3.78541 110.298 3.6767C110.268 3.55607 110.284 3.34585 110.183 3.13361C110.01 2.78964 109.82 2.82793 109.685 2.66829C109.544 2.50633 109.367 2.18923 109.098 2.07431C109.059 2.0691 109.02 2.06481 108.981 2.06143C108.978 2.10999 108.975 2.15816 108.97 2.20587C108.852 2.14855 108.847 2.04622 108.738 1.98562C108.658 1.94256 108.588 1.9444 108.526 1.94326C108.488 1.94331 108.454 1.94267 108.421 1.93033C108.352 1.90409 108.273 1.81085 108.174 1.79297C108.031 1.76883 108.046 1.86948 107.971 1.87603C107.939 1.86062 107.408 1.92457 107.382 1.94809C107.16 1.996 107.103 1.8818 106.912 1.94101C106.376 2.11907 105.982 2.62102 105.735 3.08416C105.623 3.28619 105.508 3.49902 105.405 3.71472C105.402 3.7213 105.398 3.72854 105.395 3.73578C105.392 3.72547 105.388 3.71567 105.385 3.70636C105.317 3.54079 105.198 3.53566 105.108 3.60035C104.963 3.709 104.907 3.97296 105.271 3.86738C105.099 4.13548 105.168 4.39324 105.062 4.68081C104.994 4.86848 104.889 4.98465 104.817 5.27008C104.692 5.77356 104.721 6.41985 104.319 6.46245C104.258 6.75506 104.15 7.01982 104.065 7.25036C103.956 7.54062 103.885 7.75654 103.976 7.95919C103.91 8.1283 103.513 8.41232 103.377 8.55741C103.34 8.59856 103.239 8.72681 103.087 8.8906C103.009 8.97332 102.922 9.06448 102.8 9.16611C102.74 9.21602 102.671 9.27067 102.567 9.32937C102.462 9.3768 102.318 9.4927 101.973 9.42914C101.669 9.34062 101.402 9.24456 101.316 9.21638C101.103 9.14877 100.74 9.0184 100.557 8.98009C100.33 8.93301 100.048 9.18613 99.8202 8.66598C99.3726 8.51322 99.2249 8.43454 98.8481 8.22004C98.78 8.1812 98.7954 8.12414 98.7537 8.10587C98.6679 8.06836 98.5049 8.04425 98.3506 7.9835C98.0971 7.88368 98.0019 7.71148 97.9573 7.89631C97.8914 7.88155 97.8255 7.86706 97.7599 7.85297L97.0826 7.55794L97.4711 6.96311C97.516 6.85342 97.5614 6.74448 97.6071 6.63624C97.6725 6.60104 97.7379 6.56625 97.8032 6.53177C97.823 6.42794 97.8429 6.32443 97.8626 6.22133C98.0295 6.46404 98.2635 5.80575 98.0128 5.90674C98.2484 5.64456 98.4783 5.38569 98.6966 5.12136C98.8604 5.25454 98.9894 4.91863 98.9856 4.68339C98.984 4.57081 98.9536 4.48196 98.8953 4.47631C98.9118 4.44349 98.9281 4.4104 98.9443 4.37707C99.1583 4.11725 99.2133 3.80512 99.4159 3.43083C99.619 3.05288 99.6335 3.09796 99.813 3.02636C99.8418 2.92823 99.871 2.8297 99.9011 2.73083C99.871 2.61298 99.8672 2.52681 99.881 2.45966L100.449 3.19198C100.124 3.28798 100.013 2.88828 99.2857 3.15365C99.005 2.9131 98.252 3.09057 98.0539 3.34798C98.0329 3.37137 98.0507 3.40377 98.042 3.43541C98.0394 3.44141 98.0357 3.44786 98.0308 3.45458C97.9375 3.56558 97.6455 3.82415 97.7804 3.90828C97.6685 3.98414 97.5586 4.07455 97.4538 4.17532C97.4242 4.28883 97.4012 4.40278 97.3833 4.51815C97.4277 4.53602 97.4721 4.55391 97.5165 4.57182C97.277 4.71232 97.2324 5.09043 97.16 5.25889C97.1449 5.29274 97.0779 5.28615 97.039 5.39668C96.9926 5.52577 96.9782 5.7794 96.9458 5.94004C97.0136 6.00892 97.0826 6.07588 97.1527 6.14054C97.1805 6.42097 96.992 6.52177 96.9829 6.69423C96.9755 6.72569 97.0405 7.28188 97.055 7.30995C97.1307 7.54598 97.2525 7.45973 97.3993 8.12455C97.4284 8.24145 97.4069 8.35361 97.4435 8.45644C97.5003 8.65076 97.8823 9.0875 98.0064 9.0394C98.002 9.11958 98.0384 9.21829 98.0951 9.311C98.3519 9.66738 98.5432 10.0837 98.5754 10.2583C98.5884 10.3353 98.5094 10.3827 98.5531 10.6054C98.5926 10.7825 98.7522 11.2391 98.7394 11.4911C98.731 11.7542 98.6368 11.845 98.6168 11.9621C98.605 12.0255 98.6134 12.0906 98.614 12.1659C98.6185 12.2059 98.6211 12.2501 98.6108 12.2984C98.5357 12.6443 98.3896 12.95 98.3647 13.2327C98.3286 13.6422 98.525 14.0008 98.6373 14.312C98.632 14.3929 98.5997 14.4759 98.6102 14.5602C98.726 15.6019 99.195 16.7163 99.8627 17.5744C99.9065 17.632 99.956 17.7024 100.013 17.7813C100.185 18.1258 101.049 18.5193 100.883 18.0783C100.992 18.0665 101.593 18.2871 101.994 18.302C101.791 18.338 101.824 18.3795 101.832 18.3689C101.848 18.3637 101.874 18.3425 101.887 18.3275C101.993 18.2104 102.02 18.0118 102.094 17.8654C102.224 17.603 102.336 17.3522 102.384 17.1305C102.429 16.9095 102.462 16.6648 102.473 16.3594C102.48 16.1715 102.411 15.9602 102.424 15.8485C102.439 15.7141 102.542 15.5765 102.564 15.3986C102.616 14.9776 102.661 14.1581 102.74 13.7272C102.754 13.6489 102.835 13.6324 102.876 13.5241C103.034 13.1026 103.142 12.6141 102.88 12.6423C102.936 12.5322 102.982 12.4222 103.023 12.3118C103.051 12.2968 103.059 12.0685 103.043 11.898C103.029 11.7148 103.003 11.5238 102.995 11.3294C102.98 10.9295 102.96 10.3887 102.966 9.79657C102.971 9.49669 102.979 9.19333 103.023 8.84992C103.048 8.67731 103.074 8.50305 103.156 8.27522C103.201 8.15712 103.255 8.02813 103.38 7.87014C103.498 7.71678 103.754 7.51726 104.053 7.47597C104.417 7.41013 104.751 7.40024 105.017 7.40201C105.74 7.44371 105.806 7.309 106.716 7.82497C106.911 7.94716 107.091 8.08327 107.3 8.25218C107.794 8.6545 108.045 9.16974 108.538 9.32969C108.948 9.86068 109.295 10.271 109.371 10.7939C109.444 10.8152 109.517 10.8377 109.59 10.8614C109.633 10.9304 109.674 10.9997 109.714 11.0701C109.684 11.1158 109.653 11.1612 109.622 11.2062C109.885 11.7056 110.343 12.3161 110.47 12.8133C110.628 13.3564 110.793 14.597 110.453 15.5937C110.344 15.9221 110.265 16.2579 110.202 16.4785C110.137 16.7133 110.152 16.8188 110.104 16.9098L109.884 16.2686C109.912 16.3139 109.927 16.3742 109.935 16.4814C110.008 16.5239 110.081 16.5666 110.155 16.6097C110.225 16.608 110.296 16.6065 110.367 16.6054C110.417 16.6477 110.468 16.6924 110.519 16.7392L109.535 16.7728C109.903 16.4301 110.331 16.1747 110.622 15.9292C110.979 15.6366 111.373 15.2063 111.463 14.8828C111.592 14.5109 111.68 14.156 111.758 13.8658C111.805 13.6944 111.917 13.476 111.912 13.2982C111.901 13.0398 111.74 12.9949 111.68 12.6966C111.61 12.1876 111.231 11.1636 110.812 10.7418C110.697 10.6156 110.599 10.5986 110.513 10.5172C110.152 10.1803 109.841 9.89943 109.405 9.66003C109.092 9.20892 109.244 9.08177 109.234 8.81985C109.226 8.62245 109.117 8.10391 109.149 7.96345C109.172 7.86476 109.363 7.85771 109.379 7.74199C109.967 8.07793 110.142 8.32889 110.474 8.79492C111.254 9.45257 112.023 10.2024 112.55 11.1872C112.548 11.303 112.541 11.4168 112.531 11.5299C112.531 11.5299 112.531 11.53 112.531 11.53C112.638 11.9333 112.818 12.0585 112.909 12.2776C113.245 13.0518 113.235 14.2947 112.788 15.3932C112.194 16.7122 111.097 17.1352 110.492 17.7413L110.095 18.1518L109.631 17.7708C109.437 17.592 109.24 17.4156 109.048 17.2395L108.784 17.0226L108.848 16.6581C108.955 16.1981 109.041 15.7253 109.159 15.3026C109.164 15.2851 109.169 15.2662 109.175 15.2459C109.35 14.8392 109.19 13.5958 109.169 13.3089C109.174 13.2309 109.252 13.1885 109.234 13.1083C108.99 12.4195 108.62 11.773 108.172 11.2015C107.459 9.89623 106.029 8.85699 104.697 8.85263C104.551 8.85117 104.408 8.86224 104.266 8.88624C104.436 8.86009 104.5 8.74427 104.493 8.75716C104.493 8.75721 104.474 8.80745 104.462 8.8633C104.435 8.98165 104.419 9.141 104.41 9.30258C104.392 9.62989 104.398 9.98179 104.41 10.3368C104.413 11.0827 104.551 11.6625 104.387 12.6931C104.006 14.1161 104.083 15.7258 103.767 17.4019C103.674 17.8527 103.527 18.2082 103.337 18.5764C103.24 18.7587 103.133 18.9389 102.986 19.1263C102.911 19.2203 102.827 19.3168 102.706 19.4191C102.579 19.5151 102.422 19.6583 102.064 19.6892C101.541 19.7112 101.061 19.6413 100.582 19.5055C100.106 19.3581 99.5423 19.1771 99.0348 18.6424C98.6944 18.2729 98.3916 17.8651 98.1811 17.4747C98.0041 17.138 98.0513 16.944 97.7605 16.5344C97.7928 16.5151 97.8252 16.4959 97.8576 16.4768C97.6555 16.1014 97.4849 15.8631 97.3643 15.3905C97.2437 14.9954 97.1469 13.9132 97.192 13.5575C97.2057 13.3724 97.2722 13.4448 97.2819 13.274C97.2946 12.9838 97.2814 12.3499 97.3727 11.9564C97.3776 11.9341 97.383 11.911 97.389 11.8872C97.4516 11.7083 97.4897 11.2751 97.4289 11.0847C97.3409 10.7615 97.1607 10.4242 96.9683 10.2389C96.5096 9.7338 96.2092 9.13787 96.043 8.53458C95.9576 8.23179 95.968 7.82674 95.9505 7.73478C95.9131 7.55285 95.8194 7.51109 95.7914 7.38681C95.6403 6.75444 95.7647 5.74656 95.9019 5.12791C96.0849 4.23078 96.4496 3.24758 97.2963 2.53022C98.6094 1.69109 99.5435 2.09699 100.278 1.93865L101.51 1.74521L101.052 2.9373C101.003 3.05723 100.954 3.17885 100.905 3.30158C100.701 3.80918 100.458 4.53185 100.08 5.25232C99.6889 5.99149 99.2347 6.63883 98.9132 7.07834C98.7777 7.26224 98.7296 7.15915 98.6272 7.31966C98.5544 7.43396 98.5268 7.52866 98.5041 7.60427L98.2195 6.7274C98.2651 6.7337 98.3045 6.73966 98.3391 6.75192C99.0164 6.98957 100.42 7.55888 100.979 7.82371C101.086 7.87689 101.142 7.97655 101.21 7.99971C101.244 8.01151 101.338 7.98954 101.446 8.01911C101.735 8.09811 101.997 8.16325 102.249 8.21746C101.851 8.18583 101.925 8.28275 101.92 8.25383C101.935 8.24262 101.974 8.20726 102.011 8.16732C102.087 8.08545 102.172 7.97897 102.254 7.86657C102.419 7.64039 102.585 7.38252 102.738 7.09662C102.797 6.98766 102.852 6.87491 102.897 6.76866C103.333 5.75952 103.485 4.46527 103.968 3.16185C104.254 2.39875 104.742 1.6938 105.389 1.20169C105.818 0.875199 106.225 0.865706 106.286 0.834066C106.43 0.768181 106.485 0.6279 106.805 0.511622C107.449 0.274375 108.356 0.317913 109.075 0.651339C109.532 0.852939 109.929 1.13492 110.243 1.40876C110.646 1.74046 111.164 2.29704 111.373 2.79772C111.58 3.18669 111.654 4.1932 111.681 4.37948C111.713 4.4937 111.82 4.55294 111.823 4.69544ZM104.656 5.5553C104.506 5.44951 104.472 6.12377 104.627 5.90925C104.662 5.86004 104.695 5.58181 104.656 5.5553ZM98.6779 16.0206C98.7218 15.9971 98.7658 15.9738 98.8098 15.9506C98.7622 15.8862 98.7157 15.8201 98.6704 15.7531C98.6569 15.8044 98.644 15.8562 98.6318 15.9085C98.6468 15.9461 98.6622 15.9834 98.6779 16.0206ZM101.44 11.8083C101.433 11.7911 101.501 11.7901 101.509 11.7746C101.544 11.7104 101.594 11.6987 101.637 11.6438C101.701 11.5633 101.7 11.2672 102.132 11.3956C102.132 11.3956 102.132 11.3956 102.132 11.3956C102.136 11.3969 102.141 11.3982 102.145 11.3995C102.227 11.4251 102.31 11.4752 102.402 11.5064C102.494 11.5376 103.095 11.7145 103.119 11.7575C103.149 11.8185 102.961 11.8864 102.961 11.914C102.96 11.9328 103.008 11.9704 103.011 11.9953C103.021 12.0761 102.97 12.1022 103.099 12.2104C103.014 12.2127 102.928 12.2155 102.842 12.218C102.868 12.2626 102.75 12.2821 102.749 12.3045C102.749 12.3228 102.808 12.3511 102.805 12.3695C102.803 12.3902 102.727 12.4004 102.727 12.4388C102.726 12.5021 102.884 12.5609 102.894 12.602C102.904 12.6445 102.799 12.675 102.842 12.7384C102.858 12.7496 102.874 12.7607 102.89 12.7718C102.932 12.7796 102.973 12.7874 103.014 12.7952C103.026 12.8241 102.941 12.8096 102.933 12.8305C102.924 12.855 102.998 12.8915 102.992 12.9084C102.988 12.9223 102.92 12.9226 102.918 12.9417C102.916 12.9696 103.008 12.9908 103.02 13.0099C103.025 13.0171 103.044 13.1373 103.043 13.1432C103.033 13.1889 102.908 13.1559 102.887 13.1886C102.828 13.279 102.897 13.4105 102.907 13.5137C102.912 13.5599 102.892 13.5998 102.86 13.6353C102.563 13.4763 102.275 13.5456 102.785 13.64C102.701 13.6644 102.825 13.7362 102.79 13.7728C102.767 13.7964 102.692 13.7952 102.682 13.8353C102.665 13.9075 102.837 14.0423 102.478 13.9577C102.516 14.0591 102.366 14.0928 102.668 14.2156C102.681 14.2425 102.479 14.2421 102.447 14.2586C102.417 14.2741 102.281 14.4229 102.268 14.4501C102.254 14.4773 102.235 14.5254 102.255 14.5576C102.279 14.5979 102.596 14.7156 102.202 14.6561C102.214 14.7278 102.197 14.7467 102.136 14.7915C102.125 14.7996 102.068 14.7841 102.066 14.7902C102.063 14.8029 102.097 14.8368 102.096 14.8608C102.093 14.9002 101.969 14.8862 102.15 14.936C102.173 14.9695 102.196 15.003 102.218 15.0365C102.181 15.0346 102.144 15.0328 102.107 15.0309C102.14 15.0554 102.174 15.0798 102.208 15.1043C101.953 15.0108 102.079 15.1489 102.237 15.1639C102.169 15.1949 102.101 15.2265 102.033 15.2575C101.739 15.162 101.967 15.3514 102.131 15.3904C102.129 15.3958 102.127 15.4011 102.125 15.4065C102.032 15.4303 102.084 15.4933 102.013 15.5353C101.943 15.5773 101.916 15.5632 101.775 15.5398C101.778 15.5558 101.782 15.5717 101.786 15.5877C102.137 15.7715 101.495 15.5643 101.745 15.7729C101.543 15.747 101.569 15.8315 101.614 15.9098L101.412 16.3213L101.131 16.1186C101.114 16.1263 101.097 16.135 101.081 16.1426C101.071 16.1474 101.051 16.1902 101.036 16.1997C101.002 16.2222 100.976 16.1433 100.915 16.2841C100.916 16.2359 100.915 16.1874 100.914 16.1386C100.888 16.1576 100.862 16.177 100.836 16.1964C100.818 16.2407 100.799 16.2849 100.781 16.3291C100.813 16.1659 100.74 16.204 100.73 16.1581C100.728 16.1488 100.751 16.087 100.742 16.0641C100.732 16.0372 100.69 16.0421 100.676 16.0145C100.641 16.0796 100.607 16.1448 100.572 16.21C100.519 16.2324 100.573 16.0465 100.555 16.0236C100.551 16.0196 100.469 16.0039 100.463 16.0062C100.417 16.024 100.371 16.1823 100.281 16.1119C100.265 16.0993 100.27 16.0404 100.254 16.0322C100.226 16.0177 100.092 16.1054 100.042 16.2142C100.058 16.0609 99.9374 16.0799 99.9231 16.0278C99.9189 16.0119 99.952 15.9228 99.9321 15.8931C99.9161 15.8691 99.8301 15.9163 99.8058 15.8922C99.7806 15.8666 99.8012 15.7885 99.7898 15.7774C99.779 15.7671 99.7414 15.821 99.7238 15.8128C99.6685 15.7859 99.6619 15.6683 99.6192 15.6451C99.5581 15.6117 99.411 15.7497 99.3067 15.7872C99.2974 15.7675 99.3035 15.7234 99.2879 15.7135C99.1057 15.5897 98.8321 15.3744 98.7232 14.9537C98.7203 14.9411 98.7182 14.9268 98.7169 14.9112C98.7292 14.8017 98.8802 14.5796 98.5004 14.7242C98.4168 14.7075 98.5409 14.4372 98.5393 14.3928C98.5353 14.3478 98.4538 14.3219 98.4484 14.2834C98.433 14.1695 98.4824 14.0879 98.4145 13.9454C98.3969 13.9086 98.3063 13.863 98.3084 13.8393C98.311 13.8106 98.4013 13.7853 98.4095 13.7508C98.4274 13.6662 98.4214 13.5006 98.456 13.4184C98.4623 13.4037 98.5396 13.4151 98.5681 13.4C98.6792 13.3412 98.6983 13.2556 98.4562 13.1954C98.6247 13.1302 98.5415 12.9914 98.5824 12.8869C98.6629 12.6629 98.9506 12.3769 99.0084 12.1794C99.0454 12.05 98.9688 11.9663 99.1633 11.9257C99.2054 11.9182 99.252 11.9174 99.3022 11.9104C99.4237 11.8917 99.6066 12.0153 99.5298 11.7674C99.6524 11.7628 99.7038 11.6782 99.8734 11.8254C99.8552 11.777 99.8372 11.7285 99.8195 11.6799C99.8297 11.6726 99.84 11.6653 99.8502 11.658C99.8775 11.6985 99.9047 11.739 99.9317 11.7796C100.012 11.7493 100.016 11.522 100.084 11.4905C100.196 11.4356 100.507 11.3847 100.632 11.4077C100.699 11.4185 100.663 11.3208 100.77 11.5088C100.777 11.4904 100.783 11.472 100.79 11.4536C100.78 11.407 100.771 11.3603 100.762 11.3136C100.832 11.2854 100.936 11.3251 101.001 11.3016C101.119 11.2585 101.257 11.0775 101.4 11.1218C101.436 11.133 101.503 11.2136 101.531 11.2041C101.572 11.1901 101.535 11.0334 101.588 11.0146C101.682 10.9816 101.902 11.1127 101.984 11.0752C102.009 11.0642 102.005 11.0034 102.021 10.9924C102.087 10.9458 102.151 10.9336 102.198 10.8259C102.313 10.9543 102.357 11.1481 102.431 11.3357C102.487 11.4772 102.629 11.8021 102.67 11.9283C102.699 12.017 102.709 12.1379 102.742 12.2351C102.674 12.3371 102.615 12.2595 102.508 12.1391C102.377 12.1798 102.25 12.2208 102.122 12.2634C102.095 12.213 102.068 12.1627 102.04 12.1124C102.04 12.1123 102.04 12.1122 102.04 12.1121C101.973 12.0644 101.991 12.2091 101.974 12.2482C101.808 12.6212 101.256 12.5462 100.987 12.6246C100.927 12.6407 100.786 12.7869 100.712 12.7232C100.693 12.7064 100.652 12.6303 100.641 12.6319C100.573 12.7224 100.512 12.8137 100.46 12.9045C100.226 12.8876 100.129 13.0988 100.04 13.2244C99.7899 13.5769 99.8271 13.888 99.9113 14.3756C99.9212 14.4287 99.9551 14.481 99.9826 14.5391C99.9772 14.4931 99.9591 14.4622 99.9377 14.464C99.9157 14.4639 99.8184 14.564 99.9011 14.5002C99.876 14.5277 99.8509 14.5553 99.8259 14.583C99.8726 14.5643 99.9346 14.5053 99.964 14.5153C99.9868 14.5236 100.067 14.5636 100.092 14.5919C100.104 14.6063 100.067 14.6655 100.083 14.673C100.11 14.6855 100.21 14.6263 100.25 14.6437C100.286 14.6596 100.321 14.7608 100.356 14.7624C100.482 14.7688 100.65 14.7042 100.769 14.7817C100.802 14.8033 100.818 14.9053 100.83 14.9072C100.854 14.9104 100.891 14.8306 100.91 14.8256C101.007 14.8004 101.095 14.9444 101.174 14.9797C101.305 15.0387 101.451 15.0915 101.607 15.162L100.591 15.6012C100.623 15.4766 100.655 15.3525 100.698 15.2356C100.755 15.0835 100.817 14.8213 100.924 14.6969C100.946 14.67 101.036 14.706 101.044 14.6801C101.052 14.6513 100.995 14.6171 100.994 14.6021C100.987 14.4985 100.985 14.2742 101.075 14.2053C101.092 14.1921 101.168 14.2017 101.171 14.1916C101.172 14.1865 101.127 14.1604 101.126 14.143C101.124 13.989 101.183 13.8949 101.241 13.7622C101.352 13.5074 101.352 13.1746 101.484 12.9118C101.513 12.8543 101.668 12.8559 101.669 12.8469C101.672 12.8274 101.58 12.7865 101.567 12.7417C101.527 12.593 101.68 12.4544 101.667 12.3204C101.661 12.2545 101.564 12.1366 101.554 12.0707C101.546 12.0183 101.627 11.9221 101.579 11.8861C101.551 11.8639 101.449 11.8272 101.44 11.8083ZM102.59 13.8539C102.426 13.7961 102.538 13.9241 102.637 13.9182C102.659 13.9169 102.632 13.8689 102.59 13.8539ZM99.2129 15.2851C99.181 15.3229 99.1492 15.3609 99.1176 15.3989C99.1453 15.3959 99.1721 15.3916 99.1987 15.3867C99.2099 15.3574 99.2216 15.3285 99.2338 15.2998C99.2269 15.295 99.2202 15.2904 99.2129 15.2851ZM107.924 5.45315C107.928 5.43572 107.98 5.47801 107.994 5.47196C108.055 5.4472 108.101 5.46972 108.163 5.45749C108.247 5.44013 108.391 5.25827 108.609 5.5133L109.305 4.86236L109.479 5.97422C109.448 5.97751 109.414 5.97929 109.376 5.97929C109.376 5.97929 109.376 5.97929 109.376 5.97929C109.371 5.97929 109.367 5.97926 109.362 5.97922C109.337 5.97896 109.311 5.97698 109.285 5.97422L109.171 5.25071L108.718 5.67429C108.748 5.73074 108.777 5.79238 108.813 5.85029C108.865 5.93231 109.22 6.44935 109.216 6.49464C109.208 6.55621 109.034 6.4811 109.02 6.49983C109.01 6.51258 109.027 6.56997 109.017 6.5896C108.984 6.65262 108.933 6.63737 108.976 6.79666C108.911 6.74329 108.845 6.68985 108.779 6.63682C108.776 6.6851 108.677 6.62407 108.666 6.63947C108.656 6.65205 108.687 6.70963 108.676 6.72121C108.664 6.73449 108.601 6.69383 108.582 6.72089C108.549 6.76529 108.641 6.90697 108.628 6.94254C108.616 6.97913 108.52 6.93569 108.522 7.00778C108.529 7.02577 108.535 7.04376 108.542 7.06175C108.57 7.09331 108.598 7.1249 108.625 7.15648C108.62 7.18442 108.562 7.12077 108.546 7.13091C108.526 7.14285 108.565 7.21523 108.553 7.22392C108.542 7.23094 108.49 7.18849 108.479 7.2015C108.463 7.22015 108.523 7.29293 108.523 7.3147C108.524 7.32313 108.478 7.42119 108.474 7.42503C108.443 7.45219 108.364 7.35026 108.331 7.36068C108.24 7.38931 108.225 7.52927 108.178 7.6116C108.157 7.64852 108.12 7.66613 108.076 7.67185C107.934 7.36819 107.676 7.23656 108.016 7.62826C107.938 7.59344 107.994 7.72484 107.946 7.72967C107.915 7.73259 107.859 7.68418 107.828 7.70782C107.775 7.74929 107.823 7.96192 107.603 7.66653C107.571 7.76586 107.44 7.69118 107.588 7.98178C107.58 8.01047 107.429 7.87621 107.395 7.86601C107.363 7.85771 107.167 7.87131 107.139 7.88036C107.111 7.89026 107.064 7.90962 107.055 7.94639C107.045 7.99134 107.175 8.30346 106.948 7.97646C106.904 8.03359 106.877 8.03396 106.802 8.01724C106.789 8.01421 106.764 7.96126 106.758 7.96377C106.746 7.96902 106.743 8.01757 106.723 8.03167C106.69 8.05497 106.624 7.94896 106.698 8.12163C106.685 8.1607 106.672 8.19982 106.657 8.23892C106.635 8.20837 106.614 8.17768 106.593 8.14685C106.593 8.18882 106.593 8.2309 106.592 8.27306C106.517 8.01139 106.476 8.19493 106.556 8.3325C106.545 8.3268 106.534 8.32105 106.523 8.31525C106.153 8.36027 106.073 8.22231 105.998 8.15725C106.115 7.87565 105.853 8.04788 105.776 8.19523C105.768 8.19053 105.761 8.18581 105.754 8.18107C105.732 8.07166 105.65 8.09524 105.625 8.00715C105.604 7.92129 105.629 7.90215 105.703 7.77964C105.687 7.77638 105.671 7.77401 105.655 7.77095C105.342 8.01542 105.796 7.51844 105.506 7.65729C105.645 7.45193 105.492 7.48272 105.394 7.48883C105.383 7.48969 105.349 7.52283 105.332 7.52604C105.29 7.53339 105.292 7.447 105.182 7.55372C105.199 7.5076 105.217 7.46177 105.235 7.41625C105.203 7.42252 105.171 7.42856 105.139 7.43439C105.103 7.4666 105.068 7.49882 105.033 7.53103C105.13 7.39529 105.046 7.39591 105.058 7.34966C105.06 7.34044 105.109 7.29614 105.112 7.27177C105.115 7.243 105.077 7.22869 105.078 7.19736C105.016 7.23743 104.954 7.27722 104.892 7.31673C104.834 7.3088 104.974 7.17452 104.97 7.14613C104.969 7.14148 104.907 7.08529 104.902 7.08415C104.854 7.07527 104.729 7.18435 104.689 7.06993C104.682 7.04911 104.72 7.00365 104.71 6.98591C104.696 6.95837 104.528 6.93483 104.416 6.97786C104.524 6.84643 104.367 6.79113 104.379 6.44106C104.401 6.37345 104.412 6.3394 104.588 6.08251C104.598 6.0829 104.606 6.08313 104.612 6.08105C104.637 6.07259 104.604 5.98513 104.63 5.96996C104.657 5.95416 104.729 5.99112 104.74 5.98402C104.752 5.97729 104.705 5.93155 104.714 5.9184C104.745 5.87788 104.856 5.90131 104.881 5.87089C104.916 5.82709 104.794 5.67285 104.756 5.58224C104.773 5.58005 104.813 5.59552 104.821 5.58575C104.921 5.46532 105.058 5.35278 105.188 5.2643C105.249 5.22182 105.557 5.26482 105.203 5.01263C105.162 4.94333 105.411 4.92801 105.435 4.90602C105.459 4.88323 105.42 4.81134 105.437 4.7913C105.488 4.73098 105.567 4.72893 105.583 4.6135C105.587 4.58356 105.539 4.50125 105.549 4.49143C105.563 4.47976 105.64 4.5274 105.66 4.51501C105.706 4.48489 105.754 4.39284 105.8 4.36687C105.809 4.36226 105.867 4.41404 105.894 4.42142C105.998 4.45036 106.032 4.4033 105.846 4.23751C105.994 4.28838 105.944 4.15514 105.98 4.10619C106.057 4.00301 106.259 3.8777 106.256 3.72751C106.255 3.63277 106.172 3.5579 106.31 3.55161C106.319 3.55117 106.329 3.55121 106.34 3.55141L107.229 2.89687L107.672 3.50422C107.672 3.52806 107.672 3.55383 107.674 3.5801C107.681 3.66913 107.584 3.86098 107.791 3.71424C107.8 3.81141 107.874 3.81829 107.768 4.01013C107.807 3.97742 107.847 3.94472 107.887 3.91203C107.894 3.91731 107.902 3.92252 107.909 3.92773C107.878 3.96502 107.846 4.00231 107.815 4.0396C107.853 4.09326 108.049 4.00376 108.088 4.04218C108.152 4.1064 108.269 4.32383 108.287 4.43077C108.296 4.48725 108.369 4.41345 108.241 4.58702C108.259 4.58321 108.276 4.57933 108.294 4.57554C108.331 4.54589 108.368 4.51625 108.404 4.48663C108.449 4.52578 108.449 4.62615 108.49 4.6642C108.565 4.73301 108.765 4.74458 108.78 4.87613C108.784 4.90943 108.741 5.00118 108.76 5.01783C108.788 5.04229 108.904 4.93115 108.94 4.96099C109.001 5.01203 108.982 5.2504 109.046 5.29123C109.065 5.30363 109.114 5.26775 109.129 5.27358C109.195 5.29776 109.231 5.33828 109.339 5.31378C109.283 5.47199 109.141 5.61159 109.019 5.77153C108.927 5.8921 108.722 6.18011 108.636 6.28119C108.576 6.35217 108.48 6.42668 108.415 6.5058C108.3 6.50963 108.338 6.4217 108.389 6.27201C108.298 6.19353 108.207 6.11552 108.115 6.03698C108.146 5.98903 108.176 5.94063 108.207 5.89251C108.207 5.89243 108.207 5.89234 108.207 5.89225C108.217 5.81341 108.105 5.90519 108.064 5.91146C107.676 5.97461 107.503 5.47431 107.337 5.26868C107.302 5.22444 107.117 5.15301 107.151 5.06053C107.16 5.03647 107.217 4.97195 107.212 4.96193C107.107 4.93376 107.003 4.90576 106.899 4.87789C106.867 4.73205 106.767 4.65527 106.657 4.5888L107.428 4.56151C107.388 4.62782 107.35 4.69685 107.304 4.75645C106.968 5.19239 106.644 5.6086 106.3 5.96543C106.233 6.03466 106.203 6.16748 106.113 6.2111C106.076 6.22934 105.958 6.15419 106.006 6.25854C105.977 6.23546 105.948 6.21239 105.918 6.18933C105.925 6.25232 105.974 6.32702 105.951 6.37051C105.931 6.40712 105.87 6.49583 105.838 6.51611C105.821 6.52678 105.769 6.47994 105.759 6.49424C105.742 6.51925 105.784 6.62659 105.761 6.65926C105.74 6.68884 105.639 6.6948 105.634 6.72489C105.631 6.73583 105.63 6.74729 105.629 6.7591C105.804 6.44223 105.726 6.35501 105.736 6.29809C105.733 6.25057 105.731 6.22769 105.734 6.21478C105.738 6.18729 105.754 6.18555 105.768 6.18473C105.799 6.18612 105.832 6.20732 105.842 6.24654C105.849 6.27146 105.797 6.352 105.804 6.35791C105.819 6.36829 105.891 6.31832 105.907 6.32011C105.985 6.32858 105.963 6.46522 105.999 6.51316C106.114 6.66736 106.292 6.79417 106.402 6.90598C106.43 6.93449 106.469 6.96404 106.484 6.97633C106.49 6.98214 106.492 6.98319 106.458 6.97342C106.42 6.97256 106.35 6.91281 106.089 6.99043C106.113 6.99012 106.136 6.99226 106.157 6.99751C106.182 7.00366 106.21 7.09575 106.227 7.08911C106.247 7.0816 106.234 7.01697 106.241 7.0086C106.29 6.95062 106.393 6.82994 106.482 6.857C106.499 6.86245 106.543 6.92449 106.549 6.92051C106.553 6.91863 106.536 6.86923 106.544 6.85879C106.617 6.76606 106.7 6.75079 106.805 6.70528C107.006 6.61726 107.166 6.38584 107.395 6.28228C107.446 6.25941 107.563 6.35786 107.569 6.35205C107.58 6.33975 107.53 6.25242 107.542 6.21251C107.585 6.08002 107.772 6.07506 107.831 5.97003C107.86 5.91789 107.845 5.77136 107.873 5.71696C107.894 5.67357 108.006 5.65446 107.989 5.59794C107.979 5.56371 107.92 5.47244 107.924 5.45315ZM107.747 7.66212C107.656 7.51455 107.668 7.68065 107.746 7.73997C107.764 7.75318 107.771 7.70038 107.747 7.66212ZM105.186 5.61316C105.147 5.58264 105.108 5.55213 105.069 5.52163C105.078 5.54312 105.087 5.56456 105.096 5.58595C105.123 5.59977 105.15 5.61365 105.177 5.62757C105.18 5.62277 105.183 5.61797 105.186 5.61316Z" fill="#1A1A1A"/>
</svg>
