<svg width="206" height="37" viewBox="0 0 206 37" fill="none" xmlns="http://www.w3.org/2000/svg">
<path d="M54.7235 16.1191C59.0157 16.346 60.1886 15.2644 61.1618 10.9168C61.3769 9.9618 62.3962 9.20203 63.0467 8.35256C63.3745 9.38142 64.0352 10.4367 63.9686 11.4391C63.7893 14.1986 63.9686 14.3674 66.7293 14.072C70.5042 13.6657 73.644 12.4311 75.5084 8.69551C76.3176 7.07571 76.3842 5.8147 75.1806 4.37957C74.7042 3.81502 74.7298 2.80726 74.525 2C75.4776 2.30602 76.7735 2.31657 77.3267 2.98137C79.0784 5.07075 78.7352 10.0251 77.1781 12.4363C74.8733 16.0083 71.5491 17.6281 67.6154 18.2929C64.7574 18.7783 62.3347 19.7597 61.884 23.2684C61.8225 23.7538 61.0593 24.139 60.6188 24.5716C60.3269 23.9965 59.7123 23.3686 59.7891 22.8516C60.2808 19.5751 58.9952 19.2638 56.1986 19.9022C48.6488 21.6328 41.0274 23.0151 33.452 24.6297C32.2278 24.8882 31.0344 25.5266 29.9588 26.2178C27.5669 27.7532 27.2186 29.7001 28.4325 32.3013C28.8627 33.2193 28.8934 34.3801 28.8986 35.4301C28.8986 35.62 27.6744 36.1529 27.4081 35.9577C26.4247 35.2296 25.1391 34.417 24.8061 33.3618C23.5308 29.2727 26.4042 22.8727 30.3891 21.6592C36.4791 19.8072 42.7227 18.4829 48.9254 17.0214C50.8205 16.5729 52.7823 16.4146 54.7132 16.1191H54.7235Z" fill="#1A1A1A"/>
<path d="M148.124 24.3573C147.755 23.7883 147.145 23.2552 147.058 22.6452C146.597 19.3286 144.193 18.4674 141.446 18.0317C137.494 17.4114 134.131 15.8838 131.907 12.3417C130.118 9.48132 130.133 6.51842 131.399 3.56578C131.702 2.8635 132.722 2.39703 133.511 2.02795C133.793 1.89467 134.475 2.26375 134.757 2.59182C134.926 2.79174 134.818 3.48376 134.587 3.71957C133.368 4.99597 132.163 6.22111 133.214 8.18441C134.546 10.6706 136.274 12.7159 139.175 13.3925C139.836 13.5463 140.518 13.6232 141.194 13.736C145.157 14.4024 145.1 14.4075 144.936 10.4758C144.905 9.80426 145.551 9.10198 145.884 8.41508C146.5 8.95845 147.484 9.38905 147.678 10.0554C149.354 15.7352 149.36 15.3456 155.259 16.094C163.424 17.1295 171.682 18.0676 179.34 21.5021C182.774 23.045 185.68 29.8064 184.019 33.1024C183.522 34.0867 181.61 35.2195 180.729 34.9632C178.766 34.3891 179.837 32.8666 180.518 31.6671C182.02 29.0221 181.374 26.7204 178.458 25.403C176.3 24.4291 174.004 23.6499 171.692 23.1732C164.865 21.7532 157.996 20.5178 151.138 19.2363C149.857 18.9954 149.242 19.5387 149.278 20.9228C149.308 21.9788 149.108 23.0399 149.011 24.0959C148.714 24.183 148.422 24.2702 148.124 24.3573Z" fill="#1A1A1A"/>
<path d="M28.8384 15.6009C34.9547 17.1924 38.476 14.8361 37.2118 10.152C38.8905 9.6057 39.2488 10.6223 39.4382 11.7625C39.95 14.8266 37.2169 18.0475 33.7263 18.5083C33.2247 18.5748 32.7078 18.5938 32.2011 18.6081C29.555 18.6746 26.7912 18.5036 25.7778 21.8717C25.5986 21.734 25.4195 21.5914 25.2403 21.4537V18.361C22.886 18.2233 20.7261 18.019 18.5611 17.981C14.9067 17.924 11.2472 17.867 7.59798 18.0048C3.80029 18.1425 3.06328 19.0831 3.26289 22.5891C3.28848 23.0451 2.68453 23.5297 2.37232 24C1.73767 23.3729 0.69356 22.8171 0.550251 22.1045C0.104969 19.8812 2.69989 16.2328 5.13102 16.0095C9.50706 15.6057 13.9241 15.6057 18.3257 15.4774C19.4261 15.4442 20.5777 15.4252 21.6269 15.677C24.4368 16.3468 26.7093 16.2328 27.651 13.1211C27.7585 12.7601 28.5057 12.5653 28.951 12.2898C29.1199 12.7506 29.4424 13.2209 29.4168 13.677C29.3861 14.2708 29.079 14.8551 28.8333 15.6057L28.8384 15.6009Z" fill="#1A1A1A"/>
<path d="M180.838 17.0453V20.4724C179.007 16.841 175.684 17.5765 172.719 17.2956C169.006 16.9432 166.078 13.6182 166.55 10.1911C166.668 9.34837 167.524 8.60268 168.483 8C167.904 10.2779 167.776 12.0809 169.873 13.511C172.155 15.0636 174.478 14.747 176.899 14.2924V10.5639C177.694 11.4935 178.32 12.7295 179.325 13.2709C180.55 13.9349 182.089 14.2771 183.494 14.2975C189.017 14.3843 194.551 14.0677 200.059 14.3486C203.125 14.5069 205.53 17.6889 205.5 20.7482C205.495 21.4735 204.92 22.2703 204.423 22.8832C204.248 23.1028 203.136 22.9649 203.115 22.8576C202.977 22.1681 202.869 21.4071 203.028 20.7329C203.592 18.3426 202.171 17.2139 200.248 17.0453C196.356 16.698 192.428 16.6367 188.51 16.6112C186.048 16.5959 183.586 16.8717 180.827 17.0351L180.838 17.0453Z" fill="#1A1A1A"/>
<path d="M107.896 8.29398C110.333 10.092 112.349 12.0117 111.138 15.1418C110.81 15.9978 109.763 16.5803 109.045 17.2894C108.845 17.1171 108.645 16.95 108.445 16.7778C108.538 16.3169 108.604 15.8509 108.727 15.3951C109.548 12.3966 107.686 10.1275 104.573 10.6036C103.865 10.71 102.977 11.7483 102.762 12.5182C102.336 14.0427 102.398 15.699 102.09 17.2691C101.962 17.9225 101.423 18.976 101.028 18.9963C100.207 19.0368 99.079 18.7481 98.5712 18.1707C97.0478 16.4435 96.5451 14.377 97.0735 12.0421C97.2325 11.3482 96.976 10.3352 96.5195 9.78308C95.1654 8.1319 95.0782 4.46993 96.7554 3.08719C97.3402 2.60602 98.484 2.78329 99.3765 2.66173C99.0688 3.41641 98.8174 4.20148 98.443 4.92071C98.0173 5.74123 97.4787 6.50098 96.9914 7.28605C98.3558 7.84319 99.6894 8.53709 101.105 8.85619C101.413 8.9271 102.177 7.7267 102.475 7.00748C102.952 5.8476 103.126 4.57123 103.577 3.39615C104.326 1.45121 106.209 0.539513 107.83 1.22835C109.676 2.01342 110.399 4.26226 109.363 6.16669C109.004 6.82514 108.512 7.41774 107.896 8.29904V8.29398ZM101.567 11.5254C99.0585 12.1737 97.7352 12.8423 98.2943 14.7417C98.443 15.2482 99.592 15.466 100.284 15.8104C100.659 14.5695 101.028 13.3286 101.567 11.5254ZM107.922 5.97929C106.999 5.10811 106.517 4.6472 106.029 4.19135C105.357 4.91564 104.614 5.59435 104.085 6.40474C104.003 6.53137 105.044 7.73683 105.306 7.65073C106.111 7.38735 106.788 6.7441 107.922 5.97422V5.97929Z" fill="#1A1A1A"/>
<path d="M46.6851 22.2521C43.1328 22.9057 40.3998 23.7362 36.0858 24.5836C35.0719 24.7835 34.2596 24.9382 33.5461 25.0714C32.2574 25.332 31.3359 25.7896 30.1462 26.5095C29.3974 26.9925 28.4006 27.6929 28.1355 29.0949C27.9612 30.1147 28.2939 31.1924 28.7399 32.1578C29.2408 33.2794 29.2131 34.4208 29.2218 35.4285C29.1839 35.7069 29.101 35.6971 29.062 35.7544C29.0172 35.7955 28.9778 35.8239 28.9405 35.8495C28.865 35.9005 28.7946 35.9397 28.724 35.9764C28.583 36.049 28.4441 36.1079 28.302 36.1596C28.1597 36.2108 28.016 36.2547 27.8597 36.2851C27.6934 36.2965 27.5672 36.3953 27.2233 36.2098C26.0287 35.3333 24.8575 34.531 24.5034 33.4573C24.4599 33.3263 24.4227 33.2013 24.39 33.0826C23.9653 30.7841 24.0889 30.4525 24.9822 27.3558C26.147 24.3744 27.4984 22.5333 30.2158 21.5104C30.2537 21.4987 30.2929 21.4872 30.3332 21.4758C33.1185 20.6256 41.2659 18.6879 44.2461 17.9484C45.7548 17.5603 47.3818 17.2009 48.8907 16.8739C50.4127 16.546 51.834 16.4282 52.8935 16.3027C53.5544 16.2274 54.0745 16.171 54.4733 16.1262C54.6073 16.1113 54.685 16.1083 54.7124 16.1138C54.7201 16.1163 54.7235 16.1188 54.7235 16.1214C54.7235 16.1214 54.7235 16.1214 54.7235 16.1214C54.7235 16.124 54.72 16.1266 54.7132 16.1291C54.6835 16.1463 54.5715 16.1744 54.3918 16.2022C53.3451 16.3736 51.7629 16.5449 49.9382 16.9351C49.5794 17.0138 49.2563 17.0915 48.9602 17.1683C46.4322 17.8202 45.6779 17.8936 41.5836 18.8984C37.4595 19.9271 34.8374 20.648 30.4688 21.9215C30.019 22.0545 29.5661 22.2622 29.1231 22.5405C27.1181 23.9028 26.3558 25.4662 25.7036 27.0184C25.1513 28.5946 24.4665 30.4939 25.1414 33.2572C25.2931 33.7745 25.7613 34.2861 26.3365 34.7686C26.754 35.1195 27.1803 35.4233 27.5786 35.7274C27.4795 35.6952 27.6724 35.7283 27.7747 35.6944C27.8951 35.6698 28.0189 35.6314 28.1378 35.5873C28.2565 35.543 28.3725 35.4921 28.4762 35.4371C28.5282 35.4096 28.5778 35.3803 28.6171 35.3528C28.6364 35.3393 28.6537 35.3253 28.6608 35.3184C28.6718 35.3215 28.651 35.2782 28.6293 35.4301C28.6354 34.2194 28.5566 33.202 28.1736 32.4226C27.1316 30.5423 26.8344 27.5562 29.7094 25.8292C30.46 25.335 31.3326 24.7951 32.469 24.3919C32.7522 24.2933 33.0457 24.2082 33.3492 24.1431C40.8438 22.5321 50.0179 20.9391 54.4289 19.9113C54.9693 19.7894 55.5311 19.6608 56.1122 19.5254C57.0558 19.3559 58.0802 18.9547 59.3307 19.5075C60.627 20.3613 60.296 21.8347 60.19 22.9117C60.1388 23.1707 60.6406 23.7558 60.9827 24.3869L60.3329 24.2805C60.5902 24.0313 60.8495 23.8562 61.0746 23.673C61.2982 23.5024 61.489 23.2766 61.4789 23.2171C61.6231 21.2094 63.132 19.1233 65.1902 18.5055C65.947 18.2284 66.7431 18.0534 67.5516 17.917C71.062 17.4013 74.8019 15.5658 76.8386 12.2173C78.162 9.9551 78.4456 6.92791 77.7249 4.50834C77.5714 4.0456 77.3556 3.59156 77.0475 3.21541C76.5881 2.67163 75.4509 2.64806 74.4222 2.31984L74.8506 1.91736C75.055 2.76296 75.0149 3.66361 75.4196 4.1779C75.9379 4.79943 76.369 5.59726 76.3906 6.46627C76.4185 7.33181 76.1025 8.11889 75.7493 8.81588C73.8004 13.0455 69.1153 14.07 66.7463 14.2292C66.7463 14.2292 66.7463 14.2292 66.7463 14.2292C66.1811 14.281 65.6698 14.3292 65.1797 14.3147C64.7182 14.312 64.1244 14.1627 63.9537 13.6905C63.6765 12.8308 63.8428 12.1274 63.8642 11.4324C63.9188 10.438 63.3463 9.56791 62.9459 8.38466L63.1306 8.41684C62.7226 8.96403 62.1473 9.45709 61.6606 10.1421C61.4957 10.3823 61.3504 10.65 61.2854 10.9446C60.9922 12.1802 60.6931 13.6427 59.7442 14.8349C58.766 16.0694 57.065 16.2285 55.7307 16.1919C54.1717 16.1083 54.5303 16.0953 56.0915 16.0669C57.2249 16.0212 58.2709 15.8033 58.9738 15.2668C59.6811 14.737 60.0199 14.0317 60.2226 13.4944C60.5828 12.4736 60.7108 11.6832 60.8812 10.854C61.112 9.80436 61.9863 9.18143 62.8284 8.18539L63.1458 7.76656L63.3086 8.26909C63.3405 8.37855 63.3769 8.49138 63.4172 8.60784C63.7961 9.66918 64.2717 10.5434 64.2318 11.4566C64.2217 12.6476 64.0672 13.8431 64.9322 13.813C65.5209 13.8705 65.9479 13.8305 66.6975 13.7747C67.2881 13.7185 68.1046 13.6539 69.3833 13.3187C70.624 12.9597 72.5047 12.3598 74.148 10.2899C74.5829 9.73281 74.9326 9.14633 75.2223 8.55275C76.0412 7.06762 75.8444 5.58703 74.9062 4.6097C74.2275 3.67187 74.3735 2.77182 74.1602 2.09258L73.9901 1.43664L74.64 1.6417C75.5961 1.96328 76.7367 1.81915 77.631 2.72813C78.9322 4.45103 78.899 6.17118 78.9192 7.49758C78.8723 8.81831 78.6899 10.7547 77.5222 12.6586C75.7475 15.6233 72.0072 17.8597 68.6519 18.4847C68.3456 18.5528 68.0224 18.617 67.6802 18.6763C65.5194 18.9414 62.4466 20.216 62.2839 23.3198C62.1736 23.8857 61.8282 24.0847 61.5891 24.3018C61.3348 24.5071 61.084 24.682 60.9024 24.8603L60.5122 25.2482L60.258 24.7548C60.036 24.2232 59.3939 23.8635 59.3868 22.7918C59.5539 21.7123 59.5662 20.4429 58.8738 20.1831C58.1358 19.8834 57.0925 20.1434 56.2934 20.3174C55.672 20.4641 55.1125 20.595 54.6318 20.7082C50.2732 21.7199 50.2366 21.5916 46.6851 22.2521ZM172.523 18.7533C174.98 19.4864 177.089 20.0672 179.529 21.0786C180.625 21.5477 181.555 22.3983 182.354 23.465C183.678 25.3199 184.073 26.5906 184.443 27.9064C184.692 29.2203 185.309 30.7397 184.317 33.2522C184.298 33.2887 184.279 33.3247 184.258 33.3606C183.381 34.5461 182.266 35.4183 180.634 35.2875C180.253 35.1701 179.851 35.0096 179.549 34.6338C179.238 34.2516 179.239 33.7224 179.339 33.3543C179.548 32.597 179.945 32.0479 180.245 31.512C181.172 29.992 181.126 28.4372 180.648 27.6812C179.913 26.5246 179.376 26.1959 178.353 25.6355C177.837 25.3832 177.186 25.0872 176.23 24.7429C174.448 24.1088 173.053 23.7303 171.642 23.4178C170.69 23.2085 169.737 22.9943 168.651 22.7507C165.942 22.1278 157.559 20.5029 154.491 20.0176C153.386 19.841 152.231 19.6268 151.107 19.4042C150.612 19.3035 150.074 19.3044 149.763 19.6267C149.451 19.9472 149.393 20.4667 149.392 20.9198C149.395 21.7892 149.262 22.5601 149.177 23.2002C149.131 23.5362 149.09 23.8349 149.059 24.1003L149.057 24.1329L149.025 24.1425C148.777 24.2085 148.56 24.266 148.37 24.3147C148.206 24.357 148.127 24.367 148.124 24.3551C148.124 24.3551 148.124 24.3551 148.124 24.3551C148.119 24.3403 148.232 24.2917 148.44 24.2281C148.612 24.1755 148.799 24.1179 149 24.0565L148.97 24.0921C149.028 23.2384 149.231 22.1539 149.174 20.9258C149.161 20.6798 149.165 20.4265 149.212 20.1656C149.285 19.6674 149.636 19.2206 150.056 19.1014C150.468 18.9699 150.841 19.0141 151.169 19.0701C152.836 19.372 153.946 19.6278 157.304 20.2117C161.937 21.0221 164.737 21.4265 170.15 22.5917C170.723 22.7159 171.25 22.8278 171.743 22.9305C174.426 23.5178 176.087 23.9966 178.606 25.0753C179.919 25.6085 182.225 27.234 181.502 30.0543C181.334 30.7312 181.059 31.3019 180.765 31.8069C180.346 32.5162 179.938 33.1454 179.878 33.7133C179.804 34.2724 180.291 34.5564 180.807 34.6961C181.888 34.7666 183.155 33.858 183.683 32.9326C184.298 31.543 184.208 29.5343 183.176 26.937C182.369 25.0131 181.065 22.8942 179.14 21.9462C173.739 19.4623 167.818 18.287 164.518 17.7521C161.875 17.3217 158.689 16.932 155.208 16.4983C153.91 16.3231 152.576 16.2299 151.172 15.9114C150.479 15.7473 149.691 15.4282 149.168 14.8012C148.647 14.1864 148.381 13.4872 148.132 12.8011C147.833 11.9488 147.581 11.07 147.313 10.1632C147.165 9.67552 146.313 9.28391 145.632 8.70102L146.228 8.58159C145.866 9.31196 145.301 9.94676 145.322 10.4581C145.347 11.0319 145.378 11.594 145.383 12.1899C145.343 12.7693 145.513 13.4308 144.873 14.1294C144.103 14.676 143.464 14.4353 142.874 14.4058C142.274 14.3303 141.708 14.2312 141.127 14.1352C140.467 14.0257 139.778 13.9494 139.083 13.7878C137.085 13.3516 135.36 12.045 134.232 10.4993C133.741 9.84534 133.302 9.1193 132.9 8.35261C132.476 7.59305 132.296 6.51797 132.711 5.63757C133.1 4.7617 133.765 4.1314 134.365 3.50662C134.417 3.46072 134.493 3.27774 134.519 3.12268C134.557 2.97872 134.518 2.73873 134.53 2.78367C134.418 2.65239 134.236 2.51899 134.056 2.42243C133.892 2.322 133.618 2.26998 133.632 2.28444C132.838 2.65239 131.951 3.02756 131.637 3.66805C130.074 6.91162 130.798 10.4144 132.046 12.2547C132.131 12.3933 132.213 12.5227 132.297 12.6487C135.162 16.3846 136.635 16.8664 141.038 17.8411C141.178 17.8645 141.319 17.8871 141.465 17.909C142.602 18.0905 143.948 18.3435 145.12 19.1184C146.317 19.8764 146.996 21.3006 147.126 22.6358C147.167 22.9643 147.359 23.2607 147.553 23.5321C148.476 24.7793 148.213 24.55 147.246 23.3029C147.118 23.1077 147.01 22.8927 146.974 22.6572C146.737 20.6698 145.44 19.4411 144.489 19.0709C143.305 18.574 142.419 18.4863 141.399 18.3257C140.569 18.2032 139.637 18.0271 138.376 17.5857C135.552 16.5301 134.303 15.6844 133.061 14.4071C132.514 13.794 132.249 13.4406 131.662 12.4956C131.153 11.436 129.318 9.15895 130.766 4.37501C130.872 4.05464 130.989 3.74443 131.115 3.44381C131.675 2.38679 132.635 2.11754 133.37 1.72634C133.645 1.61477 133.809 1.67766 133.96 1.71025C134.108 1.75159 134.236 1.80755 134.358 1.87034C134.601 1.99975 134.815 2.14196 135.018 2.36711C135.185 2.5915 135.171 2.73191 135.185 2.86786C135.191 3.00176 135.18 3.12338 135.16 3.24297C135.11 3.48292 135.07 3.70404 134.841 3.96735C133.406 5.31818 132.754 6.79544 133.558 8.00013C134.636 10.0043 135.833 11.3069 137.033 12.0484C137.601 12.4056 138.353 12.7648 139.271 12.9809C139.863 13.1226 140.536 13.2052 141.262 13.3289C142.262 13.4737 143.614 13.8495 144.307 13.5697C144.54 13.4721 144.609 12.8215 144.607 12.2646C144.61 11.6862 144.581 11.0916 144.558 10.4916C144.604 9.40986 145.279 8.87422 145.545 8.25057L145.758 7.80461L146.134 8.13256C146.564 8.51269 147.145 8.78995 147.649 9.29588C147.803 9.45717 147.965 9.66406 148.05 9.94686C148.507 11.2767 148.813 13.1892 149.908 14.4191C151.11 15.4841 153.41 15.3794 155.31 15.6921C159.02 16.1503 162.55 16.6123 164.627 16.937C169.044 17.6547 169.038 17.7844 172.523 18.7533ZM5.09015 18.6721C3.43438 19.1292 3.58688 20.8925 3.73374 22.5623C3.74555 23.1036 3.48225 23.3772 3.3075 23.6258C3.11853 23.869 2.91919 24.0826 2.78854 24.2763L2.4602 24.7811L2.02119 24.3554C1.94608 24.2803 1.86222 24.2037 1.77253 24.1252C1.08913 23.5113 0.355142 23.1208 0.133376 22.1883C0.0157392 20.8128 0.327706 19.7978 1.59988 17.9678C2.46746 16.8325 3.67922 15.8254 5.10124 15.6853C6.79991 15.5456 8.24448 15.4915 9.08272 15.4141C10.5385 15.2854 10.6997 15.4715 12.7668 15.3713C14.8341 15.2757 16.087 15.2813 17.8948 15.2953C18.0197 15.2962 18.1623 15.2965 18.3204 15.2961C19.1266 15.3034 20.3646 15.2406 21.6569 15.5519C22.6765 15.8044 23.7924 15.9911 24.7562 15.834C25.7308 15.6955 26.4211 15.1157 26.7315 14.6564C27.0631 14.1927 27.3025 13.6439 27.4823 13.0701C27.6474 12.68 27.9515 12.611 28.1857 12.486C28.4305 12.3751 28.6721 12.2845 28.876 12.1686L29.0227 12.0759L29.0849 12.2407C29.2403 12.7127 29.5457 13.1735 29.5084 13.6821C29.4802 14.0003 29.3861 14.2744 29.3002 14.5121C29.1474 14.92 29.0061 15.2271 28.9096 15.4688C28.8769 15.549 28.8532 15.5938 28.8386 15.6074L28.8295 15.6016C28.8347 15.6003 28.8382 15.6007 28.84 15.6026C28.84 15.6026 28.84 15.6026 28.84 15.6026C28.8418 15.6046 28.8418 15.6081 28.8402 15.6131L28.8114 15.6397L28.8237 15.6025C28.8189 15.5775 28.8319 15.5033 28.8694 15.3917C29.0012 14.9501 29.3041 14.3758 29.3373 13.6728C29.3426 13.3473 29.1571 13.0189 28.9749 12.6666C28.9177 12.5559 28.8644 12.4474 28.8196 12.338L29.0247 12.4088C28.4621 12.759 27.911 12.9161 27.814 13.1697C27.4816 13.9725 27.351 15.1175 25.4491 15.9572C23.9952 16.4261 22.7573 16.156 21.5679 15.9245C20.613 15.7184 19.5851 15.7252 18.3341 15.7549C17.9065 15.7638 17.4546 15.7697 16.9711 15.7722C13.3702 15.8011 12.5476 16.0331 7.48319 16.144C6.57863 16.1719 5.8198 16.2184 5.1556 16.2759C3.76393 16.4752 2.98911 17.336 2.31301 18.188C1.71084 19.0624 0.838968 20.2981 1.03389 22.0076C1.03563 22.0155 1.03778 22.0239 1.0403 22.0326C1.16412 22.4743 2.02405 22.9764 2.72263 23.6455L1.95708 23.7243C2.15189 23.4379 2.35462 23.2314 2.51889 23.0294C2.68658 22.8397 2.79279 22.6136 2.77509 22.6164C2.75504 21.2903 2.56418 19.5938 3.87072 18.4845C5.17009 17.5735 6.49303 17.682 7.58365 17.6096C8.58814 17.5831 9.47199 17.5706 10.1775 17.5564C12.4947 17.5069 15.4123 17.5149 18.5675 17.5738C19.5902 17.5939 20.6327 17.655 21.6835 17.7332C22.8197 17.8174 24.0213 17.9103 25.2627 17.9797L25.6257 18.0044L25.6224 18.361C25.625 19.3699 25.6303 20.4058 25.6352 21.4537L25.4811 21.1407C25.6647 21.2806 25.843 21.4211 26.0204 21.5563L25.3967 21.7571C25.7245 20.5623 26.5448 19.329 27.7723 18.8053C28.976 18.2673 30.231 18.2619 31.3737 18.2456C31.6424 18.2438 31.9156 18.2435 32.1918 18.2407C32.6835 18.2339 33.1845 18.224 33.6809 18.166C36.8436 17.9183 39.7916 14.5211 39.2394 11.7957C39.1418 10.8412 38.7014 10.0898 38.0211 10.1583C37.7522 10.1569 37.4942 10.2156 37.2558 10.2874L37.3492 10.1149C37.7877 12.4486 37.8674 13.9768 35.5148 15.5349C33.936 16.4398 31.3876 16.3288 29.4643 15.7977C28.4886 15.5221 28.7278 15.5367 29.721 15.7301C31.1781 15.9983 32.3976 16.0456 33.1452 15.9049C34.578 15.5534 35.3103 15.4602 36.5374 14.1687C37.5822 12.6539 37.1111 11.5974 36.9634 10.5885C36.9379 10.4626 36.9134 10.3496 36.8884 10.2393L36.8034 9.93585L37.1081 9.83351C37.4331 9.75312 37.7236 9.6541 38.2981 9.72664C38.5776 9.76831 38.9689 9.93246 39.2253 10.3057C39.4847 10.6716 39.6101 11.1547 39.7051 11.7181C39.8466 12.542 39.8113 13.6748 39.2147 14.9352C37.9009 17.5637 35.56 18.6335 33.7764 18.8881C33.2055 18.9684 32.6856 18.9874 32.2123 19.0059C31.0655 19.0397 30.1587 19.0579 29.4149 19.1873C28.3231 19.308 26.6521 20.0583 26.1555 21.9854L25.9967 22.5312L25.5372 22.1845C25.3565 22.043 25.1798 21.9 25.0032 21.762L24.8532 21.6489L24.8514 21.4537C24.8593 20.4263 24.865 19.3733 24.8637 18.361L25.2183 18.737C24.7301 18.7091 24.2527 18.68 23.7919 18.653C22.4282 18.5774 20.5294 18.4181 18.5541 18.3833C15.3761 18.3314 11.9809 18.3094 10.2064 18.378C8.92808 18.4226 8.21536 18.4378 7.61425 18.4355C6.87238 18.4528 6.26957 18.358 5.09015 18.6721ZM192.591 13.9312C194.976 13.9796 196.858 13.6688 199.779 13.8383C199.884 13.8447 199.985 13.8514 200.084 13.8582C201.545 13.9919 202.309 14.5133 203.026 15.0616C203.722 15.6468 204.459 16.3456 205.198 17.8569C205.626 18.7687 205.853 19.7802 205.836 20.7516C205.759 21.8296 205.126 22.4856 204.667 23.081C204.381 23.3428 204.261 23.27 204.114 23.3029C203.974 23.3133 203.847 23.3102 203.722 23.3024C203.598 23.2943 203.479 23.2808 203.359 23.2603C203.298 23.2498 203.238 23.2379 203.173 23.2205C203.141 23.2116 203.108 23.2022 203.065 23.1854C203.044 23.1769 203.022 23.168 202.986 23.1477C202.958 23.1153 202.892 23.1443 202.815 22.915C202.693 22.3147 202.628 21.7785 202.624 21.3595C202.62 21.0938 202.648 20.861 202.698 20.6551C202.799 20.2226 202.867 19.9174 202.871 19.517C202.862 19.1315 202.813 18.5742 202.218 18.0374C201.601 17.5188 200.878 17.3718 200.226 17.3041C199.276 17.2147 198.408 17.1276 197.349 17.0306C195.698 16.8565 190.93 16.7008 188.509 16.7472C188.251 16.7508 188.02 16.7587 187.822 16.7691C185.781 16.8752 183.438 16.9629 182.028 17.0232C181.59 17.044 181.244 17.0527 180.979 17.0547C180.9 17.0553 180.851 17.0508 180.828 17.0439L180.834 17.0289C180.838 17.0383 180.839 17.0443 180.836 17.0469C180.836 17.0469 180.836 17.0469 180.836 17.0469C180.833 17.0496 180.827 17.0488 180.818 17.0446L180.797 17.0233L180.827 17.0217C180.855 17.0091 180.927 16.9959 181.035 16.9878C181.733 16.9364 182.774 16.8341 184.002 16.6865C185.971 16.4622 186.442 16.4793 188.51 16.4574C188.851 16.4578 189.234 16.4563 189.675 16.4526C192.787 16.4361 194.666 16.3416 198.327 16.637C199.071 16.7006 199.699 16.75 200.271 16.7922C201.178 16.8681 202.007 17.0737 202.708 17.7237C203.419 18.3691 203.711 19.5657 203.381 20.8164C203.25 21.3391 203.293 22.0105 203.429 22.7946C203.349 22.5749 203.31 22.6307 203.301 22.6088C203.289 22.6028 203.291 22.6047 203.294 22.6061C203.301 22.61 203.318 22.6162 203.337 22.6221C203.498 22.6688 203.702 22.6947 203.877 22.7029C203.966 22.7068 204.052 22.7058 204.125 22.6978C204.191 22.7 204.277 22.6399 204.201 22.707C204.805 21.9973 205.23 21.3185 205.226 20.7463C205.047 18.6777 204.555 16.9988 201.731 15.2924C201.21 15.0408 200.631 14.8787 200.033 14.8478C195.33 14.6031 190.001 14.671 187.277 14.6867C186.144 14.7008 184.867 14.7128 183.488 14.6973C182.075 14.6746 180.553 14.3879 179.13 13.6296C177.937 12.9445 177.399 11.7689 176.664 10.8898C176.644 10.8653 176.623 10.8409 176.603 10.8169L177.288 10.5639C177.278 11.7442 177.278 12.9972 177.282 14.2924L177.279 14.6133L176.97 14.6683C174.722 15.1422 171.815 15.4332 169.645 13.8463C168.562 13.1644 167.721 11.8592 167.741 10.5734C167.716 9.68727 167.916 8.79734 168.152 7.91558L168.666 8.2899C167.881 8.77563 166.998 9.414 166.847 10.2327C166.277 13.8427 169.739 16.5543 171.621 16.937C172.021 17.0526 172.39 17.1208 172.732 17.1598C174.953 17.4328 175.976 16.9945 178.525 17.9367C179.471 18.3444 180.406 19.2767 180.939 20.421L180.723 20.4724C180.737 19.5369 180.76 18.5882 180.793 17.7091C180.832 16.6811 180.887 16.914 180.913 17.9488C180.937 18.9179 180.936 19.7759 180.949 20.4724L180.738 20.5227C180.556 20.1789 180.369 19.9043 180.19 19.6967C179.142 18.6106 178.602 18.261 176.763 17.8157C174.866 17.4884 173.911 17.7856 172.744 17.6451C172.725 17.643 172.706 17.6409 172.687 17.6387C172.12 17.5607 171.813 17.4987 170.959 17.1938C170.177 16.834 168.493 16.374 166.928 13.7729C166.264 12.565 166.059 11.2679 166.206 10.1437C166.507 8.74446 167.555 8.19808 168.281 7.67736L169.083 7.16671L168.853 8.09395C168.343 10.0157 168.442 11.4279 169.117 12.239C169.339 12.5345 169.67 12.8579 170.112 13.1608C171.621 14.3669 174.368 14.4903 176.83 13.9224L176.523 14.2924C176.522 13.7358 176.52 13.19 176.515 12.6658C176.51 12.0582 176.506 11.3446 176.503 10.5639L176.498 9.49388L177.2 10.3066C177.97 11.1865 178.556 12.381 179.516 12.9162C180.74 13.5738 182.205 13.8712 183.5 13.8871C185.009 13.9056 186.341 13.8888 187.254 13.8649C190.198 13.7814 190.207 13.8899 192.591 13.9312ZM95.1924 6.61902C95.2489 5.25121 95.255 3.91732 96.4548 2.72249C97.0324 2.2507 97.6721 2.2509 98.2505 2.22865C98.693 2.2228 99.0352 2.22934 99.3144 2.20522L100.098 2.08995L99.8032 2.83571C99.4272 3.64596 99.2123 4.19574 98.7423 5.07653C98.5378 5.45075 98.2819 5.87593 97.9549 6.40042C97.7293 6.76309 97.4982 7.11674 97.2809 7.46576L97.1202 6.97057C98.749 7.6653 100.189 8.37889 101.173 8.55469C101.01 8.55166 101.116 8.55625 101.145 8.50989C101.188 8.47 101.233 8.41881 101.272 8.36866C101.704 7.75387 101.926 7.53107 102.248 6.91374C102.354 6.68715 102.464 6.39912 102.569 6.00411C102.846 4.94128 103.009 4.13117 103.353 3.31005C103.506 2.94743 103.707 2.59361 103.989 2.25099C104.422 1.59464 106.214 0.335205 107.876 1.11958C109.094 1.61704 109.727 2.80984 109.893 3.47599C110.169 4.38652 109.956 5.47046 109.484 6.23258C109.145 6.79292 108.761 7.23271 108.485 7.59305C108.28 7.85632 108.116 8.06118 107.989 8.21746C107.946 8.27 107.916 8.29672 107.901 8.30209L107.891 8.31601L107.891 8.29904C107.894 8.29565 107.896 8.29398 107.899 8.29398C107.899 8.29398 107.899 8.29398 107.899 8.29398C107.901 8.29398 107.904 8.29569 107.906 8.29904L107.888 8.29337C107.888 8.2722 107.912 8.21923 107.963 8.14328C108.254 7.69904 108.751 7.06168 109.178 6.24101C109.202 6.19376 109.224 6.14765 109.246 6.1026C109.567 5.39272 109.64 4.94678 109.673 4.42369C109.679 3.91467 109.676 3.22578 109.012 2.34847C108.648 1.89606 108.203 1.60299 107.745 1.42672C106.451 0.951716 104.954 1.41131 103.993 3.09853C103.922 3.22927 103.862 3.358 103.811 3.48607C103.279 4.88006 103.308 5.79159 102.804 7.14287C102.675 7.46802 102.51 7.78786 102.294 8.13428C102.184 8.307 102.063 8.48525 101.913 8.66942C101.837 8.76154 101.755 8.85553 101.652 8.95106C101.598 8.99988 101.542 9.04859 101.462 9.09879C101.38 9.1401 101.28 9.23243 101.028 9.18974C100.789 9.12851 100.539 9.05176 100.281 8.95929C98.6709 8.35209 97.7616 7.866 96.8768 7.56669L96.5429 7.4256L96.7338 7.12619C97.1582 6.36056 97.577 5.68689 98.0434 4.71336C98.2531 4.27003 98.4452 3.7322 98.6905 3.06046C98.7612 2.86883 98.835 2.67268 98.9151 2.47355L99.4438 3.15554C98.5107 3.27778 97.4784 3.14129 97.066 3.46463C95.3459 5.05217 95.8291 8.39645 96.8141 9.54145C96.9948 9.76373 97.112 9.9873 97.2039 10.1942C97.437 10.7524 97.5999 11.3821 97.4561 12.1297C97.0199 13.9156 97.329 16.2109 98.8683 17.9086C98.9555 18.0107 99.0752 18.1063 99.2113 18.1894C99.6965 18.4808 100.376 18.6417 101.009 18.6163C100.911 18.6482 101.068 18.573 101.139 18.4638C101.225 18.3552 101.307 18.2213 101.381 18.0818C101.526 17.8026 101.651 17.4841 101.708 17.1942C101.997 15.704 101.917 14.0384 102.373 12.4095C102.654 11.5672 103.155 10.9669 103.842 10.5031C104.029 10.3882 104.242 10.2792 104.518 10.239C105.773 10.0461 107.429 10.3337 108.37 11.5283C109.325 12.7032 109.296 14.2946 108.942 15.4537C108.807 15.915 108.732 16.3819 108.635 16.8158L108.571 16.6312C108.777 16.8159 108.976 16.9896 109.16 17.1558L108.921 17.1639C109.132 16.9655 109.337 16.8034 109.52 16.6599C110.291 16.0707 110.821 15.6432 111.037 15.103C111.341 14.281 111.595 13.4772 111.196 12.183C110.811 10.9225 109.462 9.61534 108.273 8.63203C107.673 8.13293 107.847 8.19011 108.491 8.64807C109.432 9.32089 110.097 10.0092 110.526 10.4394C111.337 11.308 111.801 11.8542 111.764 13.4589C111.699 14.2337 111.542 14.7771 111.401 15.2433C111.217 15.7876 110.91 16.1403 110.561 16.4469C110.161 16.7933 109.932 16.8654 109.239 17.4859L109.063 17.6647L108.865 17.4987C108.703 17.3539 108.506 17.1868 108.269 16.9825L108.151 16.8831L108.18 16.7248C108.258 16.3567 108.314 15.8965 108.458 15.3223C108.556 14.9437 108.63 14.5054 108.621 14.0154C108.538 11.1413 105.892 10.7055 104.633 10.9977C104.099 11.1319 103.603 11.7564 103.363 12.1881C103.289 12.3227 103.216 12.4778 103.172 12.6329C102.823 13.7402 102.805 15.5181 102.464 17.3423C102.376 17.7514 102.23 18.0985 102.05 18.4414C101.959 18.6116 101.858 18.7775 101.729 18.9406C101.584 19.0915 101.49 19.3056 101.048 19.3754C100.887 19.3844 100.73 19.3822 100.579 19.3728C99.9047 19.3056 99.0412 19.2028 98.2721 18.4337C96.6756 16.8324 96.1268 13.8618 96.6666 11.95C96.7687 11.4381 96.6135 10.8749 96.4542 10.5312C96.3648 10.3384 96.2654 10.1835 96.1703 10.0718C95.1641 8.58296 95.2932 8.28415 95.1924 6.61902ZM99.6061 15.2037C99.8332 15.3596 100.135 15.1473 100.459 15.3439C100.474 15.3533 100.489 15.3628 100.502 15.3722L99.8159 15.669C99.9457 15.4093 100.097 15.3912 100.167 15.0418C100.241 14.6749 100.45 14.3489 100.436 14.1714C100.422 13.9944 100.613 14.0328 100.639 13.7949C100.665 13.5572 100.73 13.4275 100.85 13.2482C100.969 13.0687 101.202 12.4774 101.193 12.235C101.185 11.9924 101.389 11.7794 101.464 11.637C101.488 11.593 101.512 11.5596 101.534 11.535C101.543 11.5246 101.557 11.5225 101.569 11.5261C101.569 11.5261 101.569 11.5261 101.569 11.5261C101.584 11.5305 101.596 11.5435 101.593 11.5597C101.579 11.6379 101.57 11.7574 101.584 11.9055C101.61 12.1822 101.491 12.1774 101.443 12.5259C101.394 12.8758 101.437 13.1067 101.253 13.4799C101.07 13.8531 101.32 14.0262 100.997 14.534C100.674 15.0416 100.946 15.1869 100.818 15.7514C100.803 15.8182 100.784 15.8863 100.763 15.9548L100.532 16.5421L100.062 16.258C99.6614 16.0601 99.0932 15.7552 98.7894 15.6245C98.6664 15.5742 98.5269 15.517 98.3683 15.4189C98.2183 15.3192 98.0064 15.1812 97.9025 14.8567C97.8582 14.7026 97.8252 14.5437 97.8106 14.37C97.7321 13.8451 97.809 12.9406 98.3691 12.5279C98.8814 12.1016 99.6668 11.8932 100.023 11.8254C100.385 11.7595 100.468 11.7488 100.789 11.6137C100.972 11.5372 101.243 11.4832 101.483 11.5013C101.605 11.5099 101.593 11.5695 101.487 11.6241C101.335 11.7034 101.193 11.716 101.128 11.8048C100.997 11.9833 100.944 12.0527 100.714 12.0401C100.484 12.0287 100.445 12.2326 100.321 12.254C100.202 12.2794 100.147 12.1614 99.6157 12.4932C99.0984 12.8366 98.9221 13.0698 98.8237 13.2257C98.7208 13.3705 98.4901 13.6945 98.5536 14.0456C98.5746 14.1888 98.6116 14.4046 98.6811 14.6278C98.6517 14.642 98.9675 14.8514 99.1231 14.8733C99.4189 14.9409 99.3823 15.0492 99.6061 15.2037ZM104.471 6.5047C104.543 6.71609 104.88 6.66053 105.023 6.86762C105.163 7.06395 105.121 7.24636 105.314 7.32363C105.326 7.33436 105.357 7.29585 105.199 7.32694C105.423 7.25531 105.66 7.20628 105.734 7.10258C105.817 6.98106 105.929 7.14079 106.073 6.99731C106.214 6.85316 106.326 6.80451 106.507 6.75264C106.687 6.70149 107.16 6.41756 107.277 6.23805C107.395 6.0574 107.66 6.03454 107.791 5.98337C107.832 5.96749 107.867 5.95966 107.897 5.95673C107.902 5.95619 107.907 5.95728 107.912 5.95949L107.937 5.93943L107.94 5.97422C107.934 5.97765 107.927 5.97929 107.92 5.97929C107.92 5.97929 107.92 5.97929 107.92 5.97929C107.912 5.97929 107.905 5.97754 107.899 5.97422L107.935 5.99289C107.935 6.00033 107.933 6.00742 107.928 6.01244C107.876 6.05863 107.807 6.13632 107.742 6.25069C107.62 6.46381 107.533 6.38408 107.322 6.60452C107.11 6.82514 107.029 7.02075 106.695 7.1749C106.36 7.3218 106.455 7.62683 105.894 7.74376C105.645 7.78802 105.52 7.85501 105.402 7.94477C105.05 8.02938 104.997 7.94662 104.858 7.92351C104.736 7.88663 104.617 7.8306 104.493 7.7319C104.31 7.58631 104.157 7.39529 104.025 7.19631C103.96 7.09623 103.901 6.99598 103.844 6.88966C103.817 6.83775 103.789 6.78216 103.762 6.71935C103.748 6.6863 103.733 6.65014 103.718 6.60251C103.709 6.5717 103.701 6.54818 103.693 6.49386C103.692 6.44272 103.664 6.35364 103.759 6.19296C103.81 6.12819 103.853 6.07118 103.885 6.02101C104.056 5.75069 104.3 5.39553 104.626 5.09954C104.951 4.80272 105.253 4.35732 105.623 4.06978C105.671 4.03263 105.721 3.99329 105.772 3.95244L106.059 3.69665L106.269 3.93482C106.552 4.28896 106.893 4.7158 107.051 4.93825C107.233 5.19368 107.279 5.25559 107.519 5.4324C107.658 5.53389 107.815 5.71011 107.905 5.90243C107.952 5.99989 107.897 6.02359 107.806 5.97371C107.673 5.90051 107.603 5.79925 107.501 5.79685C107.298 5.792 107.215 5.78548 107.131 5.59686C107.046 5.40783 106.857 5.47688 106.791 5.38528C106.724 5.29388 106.798 5.21735 106.331 4.88836C106.088 4.71722 105.907 4.5825 105.765 4.47421L106.313 4.45478C106.211 4.58936 106.13 4.68768 106.065 4.76932C105.929 4.9403 105.549 5.19556 105.339 5.46836C105.124 5.73838 104.66 6.23884 104.559 6.49191C104.525 6.56986 104.494 6.61687 104.461 6.64951C104.575 6.42253 104.51 6.38275 104.511 6.35025C104.502 6.32678 104.493 6.31932 104.487 6.31885C104.475 6.31719 104.468 6.33087 104.462 6.34824C104.452 6.38281 104.449 6.43453 104.471 6.5047Z" fill="#1A1A1A"/>
</svg>
