<svg width="33" height="4" viewBox="0 0 33 4" fill="none" xmlns="http://www.w3.org/2000/svg">
<path d="M7.09524 0.428711H8.31855L9.11927 0.604492L9.94223 0.428711L11.5437 1.13184H14.5908L15.1914 1.67871V2.20605C14.9245 3.39095 14.2498 3.9834 13.1673 3.9834H10.1424L8.71891 3.80762L6.89506 3.9834H2.02403C0.674678 3.9834 0 3.33236 0 2.03027C0.400358 1.53548 1.14176 1.11882 2.22421 0.780273L3.24735 0.956055H5.67174C6.13141 0.956055 6.60591 0.780273 7.09524 0.428711Z" fill="#1A1A1A"/>
<path d="M24.275 0.428711H25.4984L26.2991 0.604492L27.122 0.428711L28.7235 1.13184H31.7706L32.3712 1.67871V2.20605C32.1043 3.39095 31.4296 3.9834 30.3471 3.9834H27.3222L25.8987 3.80762L24.0749 3.9834H19.2038C17.8545 3.9834 17.1798 3.33236 17.1798 2.03027C17.5802 1.53548 18.3216 1.11882 19.404 0.780273L20.4272 0.956055H22.8516C23.3112 0.956055 23.7857 0.780273 24.275 0.428711Z" fill="#1A1A1A"/>
</svg>
