<svg width="353" height="57" viewBox="0 0 353 57" fill="none" xmlns="http://www.w3.org/2000/svg">
<path d="M95.7516 24.255C103.064 24.6287 105.063 22.8472 106.721 15.6865C107.087 14.1136 108.824 12.8622 109.932 11.463C110.49 13.1576 111.616 14.8957 111.503 16.5468C111.197 21.0918 111.503 21.3699 116.206 20.8832C122.637 20.2141 127.987 18.1806 131.163 12.0279C132.542 9.36 132.655 7.28303 130.604 4.91929C129.793 3.98944 129.837 2.3296 129.487 1C131.111 1.50403 133.318 1.52141 134.261 2.61638C137.245 6.05771 136.66 14.2178 134.008 18.1893C130.081 24.0726 124.418 26.7405 117.716 27.8354C112.846 28.6349 108.719 30.2513 107.951 36.0303C107.846 36.8298 106.546 37.4642 105.796 38.1768C105.298 37.2296 104.251 36.1954 104.382 35.3438C105.22 29.9471 103.029 29.4344 98.2648 30.4859C85.4022 33.3363 72.4175 35.6132 59.5113 38.2724C57.4257 38.6982 55.3925 39.7497 53.56 40.8881C49.4848 43.417 48.8914 46.6237 50.9595 50.908C51.6925 52.4201 51.7449 54.3319 51.7536 56.0613C51.7536 56.3741 49.668 57.2518 49.2143 56.9303C47.5388 55.7311 45.3485 54.3928 44.7813 52.6547C42.6085 45.9198 47.5039 35.3785 54.293 33.3798C64.6685 30.3295 75.3059 28.1483 85.8734 25.7411C89.1022 25.0024 92.4443 24.7417 95.7342 24.255H95.7516Z" fill="#161616"/>
<path d="M253.286 38.6171C252.658 37.6343 251.618 36.7135 251.47 35.6598C250.684 29.9312 246.589 28.4437 241.908 27.6911C235.175 26.6197 229.446 23.9812 225.656 17.8629C222.609 12.9223 222.635 7.80455 224.792 2.70453C225.307 1.49151 227.045 0.685776 228.39 0.0482743C228.87 -0.181935 230.032 0.455567 230.512 1.02224C230.8 1.36755 230.617 2.56287 230.224 2.97016C228.145 5.17485 226.093 7.29101 227.883 10.6822C230.154 14.9764 233.097 18.5093 238.039 19.678C239.166 19.9436 240.327 20.0765 241.48 20.2713C248.23 21.4223 248.134 21.4312 247.855 14.64C247.802 13.4801 248.903 12.2671 249.47 11.0806C250.518 12.0191 252.195 12.7629 252.527 13.9139C255.382 23.7244 255.391 23.0515 265.442 24.3442C279.353 26.1327 293.421 27.753 306.468 33.6854C312.319 36.3505 317.27 48.0292 314.441 53.7224C313.594 55.4224 310.336 57.3792 308.834 56.9365C305.49 55.9448 307.315 53.3151 308.476 51.2432C311.035 46.6745 309.935 42.6989 304.966 40.4234C301.289 38.7411 297.377 37.3953 293.439 36.5718C281.807 34.1192 270.105 31.9854 258.421 29.7718C256.238 29.3557 255.19 30.2942 255.251 32.6848C255.304 34.5088 254.963 36.3416 254.797 38.1656C254.291 38.3161 253.793 38.4666 253.286 38.6171Z" fill="#161616"/>
<path d="M48.684 23.4018C59.1913 26.3573 65.2407 21.9813 63.0689 13.2823C65.953 12.2677 66.5685 14.1558 66.8938 16.2732C67.7731 21.9637 63.0777 27.9454 57.0811 28.8012C56.2194 28.9247 55.3313 28.96 54.4608 28.9864C49.915 29.1099 45.1669 28.7923 43.4259 35.0475C43.1181 34.7917 42.8104 34.527 42.5026 34.2711V28.5277C38.458 28.2718 34.7474 27.8924 31.0281 27.8219C24.75 27.716 18.4632 27.6101 12.194 27.866C5.66974 28.1218 4.40358 29.8687 4.7465 36.3797C4.79046 37.2267 3.75291 38.1266 3.21655 39C2.12625 37.8354 0.332526 36.8032 0.0863284 35.4798C-0.678643 31.3509 3.77929 24.5752 7.95586 24.1605C15.4737 23.4106 23.0618 23.4106 30.6236 23.1724C32.5141 23.1106 34.4924 23.0753 36.295 23.5429C41.1222 24.7869 45.0262 24.5752 46.644 18.7964C46.8287 18.1259 48.1124 17.7642 48.8774 17.2525C49.1676 18.1082 49.7215 18.9817 49.6776 19.8286C49.6248 20.9315 49.0972 22.0166 48.6752 23.4106L48.684 23.4018Z" fill="#161616"/>
<path d="M311.264 27.6786V33.6189C308.165 27.3244 302.541 28.5993 297.525 28.1124C291.242 27.5015 286.286 21.7382 287.085 15.7979C287.284 14.3372 288.734 13.0446 290.357 12C289.376 15.9484 289.159 19.0735 292.708 21.5523C296.57 24.2436 300.502 23.6947 304.598 22.9068V16.4442C305.944 18.0554 307.002 20.1978 308.703 21.1362C310.778 22.2871 313.381 22.8803 315.759 22.9157C325.106 23.0662 334.47 22.5173 343.791 23.0042C348.981 23.2786 353.052 28.794 353 34.0969C352.991 35.3541 352.019 36.7351 351.177 37.7975C350.882 38.1781 348.999 37.9391 348.964 37.7532C348.73 36.5581 348.547 35.239 348.816 34.0704C349.771 29.9272 347.367 27.9707 344.113 27.6786C337.525 27.0766 330.877 26.9703 324.247 26.9261C320.081 26.8995 315.915 27.3776 311.246 27.6609L311.264 27.6786Z" fill="#161616"/>
<path d="M185.179 22.5618C189.29 25.6585 192.692 28.9645 190.649 34.3553C190.095 35.8295 188.329 36.8327 187.118 38.0539C186.78 37.7573 186.442 37.4695 186.105 37.1729C186.261 36.3791 186.373 35.5766 186.581 34.7915C187.966 29.6275 184.824 25.7196 179.57 26.5395C178.375 26.7227 176.878 28.5109 176.514 29.8368C175.796 32.4624 175.9 35.3149 175.38 38.019C175.164 39.1443 174.255 40.9587 173.589 40.9935C172.204 41.0633 170.299 40.5661 169.442 39.5717C166.872 36.5972 166.023 33.0382 166.915 29.0169C167.183 27.8218 166.751 26.0772 165.98 25.1264C163.695 22.2827 163.548 15.976 166.378 13.5946C167.365 12.7659 169.295 13.0712 170.801 12.8619C170.282 14.1616 169.858 15.5137 169.226 16.7523C168.508 18.1655 167.599 19.4739 166.776 20.826C169.079 21.7855 171.329 22.9806 173.718 23.5301C174.238 23.6522 175.527 21.5849 176.029 20.3462C176.834 18.3486 177.129 16.1504 177.89 14.1267C179.154 10.7771 182.331 9.20694 185.066 10.3933C188.182 11.7453 189.403 15.6183 187.654 18.8982C187.048 20.0322 186.217 21.0528 185.179 22.5706V22.5618ZM174.497 28.1271C170.265 29.2437 168.032 30.3951 168.975 33.6662C169.226 34.5385 171.165 34.9136 172.333 35.5068C172.965 33.3696 173.589 31.2325 174.497 28.1271ZM185.222 18.5754C183.664 17.0751 182.85 16.2813 182.028 15.4962C180.894 16.7436 179.639 17.9125 178.747 19.3082C178.609 19.5262 180.366 21.6023 180.807 21.454C182.166 21.0004 183.309 19.8926 185.222 18.5667V18.5754Z" fill="#161616"/>
</svg>
