<svg width="50" height="51" viewBox="0 0 50 51" fill="none" xmlns="http://www.w3.org/2000/svg">
<path d="M19 1.19434V4L19.7998 3.5L19.9668 2.4541C20.0149 2.52223 20.0632 2.59311 20.1152 2.66504C20.4252 3.09433 20.6702 3.55424 20.9453 3.94629C21.1627 4.28136 21.4717 4.53013 21.8848 4.51465C22.5635 5.16288 23.274 5.33475 23.8887 5.89453C23.9934 5.81147 24.0943 5.72518 24.1904 5.63672C24.3038 5.65149 24.4175 5.66244 24.5312 5.66992C24.5583 5.7699 24.5873 5.87018 24.6182 5.96973C24.7403 5.98174 24.8681 5.9818 24.998 5.9707C25.799 5.91072 26.5736 5.40948 27.0986 5.17578C27.5703 4.98077 28.3604 4.56401 29.0098 3.90625C29.6576 3.244 30.3309 2.56669 30.8867 2.02148L31.6172 1.25098L32.5264 1.65137C32.94 1.852 33.2965 2.02992 33.5576 2.16699C34.2319 2.52099 34.3501 2.34377 34.5879 2.90527C34.7558 2.94247 34.9238 2.9794 35.0918 3.0166C35.2255 2.97055 35.3594 2.92496 35.4932 2.87891C35.9364 3.06005 36.4068 3.29122 36.8721 3.52148L37.7988 3.92969L37.7295 4.875C37.6666 5.4069 37.6038 5.93414 37.5811 6.4043C37.5645 6.74886 37.5567 7.12969 37.5527 7.53125C37.524 8.82175 38.1468 10.2108 38.6934 11.1299C38.7634 11.256 38.8291 11.4098 38.9023 11.5635C30.8198 12.6471 30.1551 9.31027 31.5 12C32.4064 13.8127 36.9827 13.4564 40.748 12.7432C41.4522 13.1298 42.527 13.5857 43.4814 13.5918C43.8791 13.5993 44.2395 13.5965 44.5322 13.5752C44.9035 13.5484 45.0711 13.421 45.3271 13.3955C45.6062 13.3673 45.8726 13.3443 46.1318 13.3213L47.1104 13.2949L47.4424 14.1494C47.752 14.8222 48.0414 15.4417 48.46 16.0957C48.6005 17.2384 48.1964 17.3025 47.958 17.7734C47.8944 17.8998 47.8092 18.1068 47.7178 18.3311L48.0098 19.0361L47.6777 19.335C47.9467 19.6837 48.3622 20.2527 48.127 20.5361C47.8651 20.8429 47.2833 21.2637 46.7744 21.6211C46.4304 21.85 46.1481 22.0946 46.0625 22.2109C45.9278 22.3923 45.8586 22.6808 45.7305 22.9287C45.3342 23.7278 45.0917 24.1867 45.2393 25.0117C45.0235 25.286 44.8275 25.5916 44.6602 25.9248C44.6641 25.9493 44.6674 25.9743 44.6699 26C44.7043 26.4276 44.6016 27.0554 44.6738 27.3086C44.7323 27.5252 44.8904 27.6173 44.9639 27.8311C45.0472 28.0683 45.0553 28.494 45.2988 28.9043C45.712 29.5674 46.085 29.4615 46.3887 29.7656C46.5316 29.9016 46.6807 30.0949 46.8594 30.2881C47.1392 30.5807 47.4467 30.8966 47.7822 31.1094C47.8719 31.1404 47.9621 31.1712 48.0518 31.2021C48.0613 31.0981 48.0705 30.9937 48.0801 30.8896C48.3667 31.0955 48.3645 31.3239 48.6016 31.542C48.7659 31.693 48.9212 31.7583 49.0596 31.8213L49.8809 32.5967L49.4531 33.5635C49.444 33.6693 49.433 33.7674 49.3926 33.8643C49.3119 34.057 49.0836 34.2691 48.9873 34.5225C48.8465 34.8919 49.0537 34.8847 49.0049 35.0947C48.9844 35.1802 48.4807 36.6677 48.4482 36.75C48.1975 37.3747 47.9362 37.3301 47.71 37.8174C47.691 37.8582 47.6728 37.8994 47.6543 37.9404L47.1953 38.9795L46.1348 38.9014C45.4412 38.8455 44.7374 38.8453 44.0449 38.8613L44.5 35L42 38L42.292 39.0723C42.2881 39.0733 42.2842 39.0742 42.2803 39.0752C41.8361 39.1902 41.3815 39.3202 40.9502 39.4805C41.3881 38.5379 39.5501 38.8825 40.6348 39.4834C40.0967 39.6144 39.9519 40.0673 39.5723 40.3574C39.5327 40.3882 39.4928 40.4161 39.4531 40.4424C39.2433 40.5831 39.0155 40.6787 38.7861 40.9971C38.2816 41.6949 38.4007 42.6358 37.6348 42.6787C37.5339 43.3869 37.4054 44.0342 37.5811 44.4727C37.6581 44.7092 37.7804 44.8953 37.9824 45.0205C38.038 45.3388 37.693 46.1788 37.6582 46.541C37.6502 46.625 37.6412 46.8461 37.6328 47.1377L37.6582 48.0684L36.8447 48.3838C35.9909 48.6611 34.5054 49.1674 34.2041 49.2842C33.8057 49.4386 33.1104 49.715 32.7998 49.9053C32.6748 49.9816 32.5861 50.1094 32.4893 50.2344L31.5898 50.583L31 49.8984C30.6813 49.7934 30.3632 49.6479 30.3945 48.8838C29.911 48.4156 29.6677 48.1478 29.3789 47.7725C29.2853 47.6474 29.1814 47.51 29.0459 47.3496C28.9587 47.2474 29.0234 47.1491 28.9629 47.0967C28.8371 46.9887 28.5659 46.8829 28.3193 46.7334C27.9165 46.4895 27.7719 46.1589 27.6523 46.5156C27.3505 46.4336 27.0459 46.3784 26.7441 46.3477C26.6673 46.2469 26.5861 46.1472 26.5 46.0498C26.3206 46.0846 26.1458 46.1269 25.9766 46.1777C26.2622 45.6567 25.0501 45.8486 25.4092 46.1982C25.2788 46.1624 25.1463 46.1309 25.0117 46.1045C24.5753 46.0184 24.1182 45.9844 23.6533 46.0068C23.5791 45.3511 22.3377 46.367 22.6367 46.6396C22.5773 46.6668 22.5184 46.6954 22.46 46.7246C21.8685 46.847 21.4915 47.2605 20.916 47.6797C20.8358 47.7391 20.7679 47.7909 20.709 47.835C20.2824 48.1775 20.2433 48.1033 19.9092 48.1084C19.7845 48.2711 19.6599 48.434 19.5352 48.5967C19.4497 49.4058 19.086 49.3246 18.6367 49.5498L18.2354 49.9756L17.7334 49.7539C17.5056 49.5351 17.152 49.3247 16.4092 49.2666C16.0544 48.5899 14.6203 48.2746 13.6777 48.0449C13.5681 48.0182 13.5294 48.105 13.3809 48.0752C13.3599 48.0709 13.3372 48.0653 13.3135 48.0586L12.6963 47.7861L12.7422 47.1553C12.7148 46.7544 12.8475 45.9397 12.5576 45.9551C12.6621 45.6391 12.7666 45.3228 12.8711 45.0068C12.8436 44.8358 12.8166 44.6642 12.7891 44.4932C12.7737 44.4102 12.7561 44.3307 12.7373 44.252C12.6416 44.2519 12.5459 44.2521 12.4502 44.252C12.7918 43.8228 12.5744 43.1199 12.5596 42.7764C12.5577 42.7059 12.6849 42.6581 12.6572 42.4355C12.6273 42.1735 12.4172 41.7366 12.3125 41.4443C12.2722 41.4351 12.2317 41.4273 12.1914 41.4189C12.3834 40.8308 12.5 40.0972 12.5 39.3008C12.5 37.3678 11.8284 35.8008 11 35.8008C10.1868 35.8008 11.9325 38.3987 9.63281 39.252C9.47978 39.1888 9.29041 39.1008 9.05176 38.9697C8.85067 38.8708 8.71528 38.7008 8.5166 38.6348C8.16057 38.4862 7.03562 38.6109 6.9668 38.8711C6.86656 38.7928 6.71699 38.7429 6.54492 38.7197C5.89275 38.6578 5.01671 38.7526 4.69824 38.7041C4.56981 38.684 4.53116 38.4956 4.13867 38.4746C4.06899 38.4709 3.97539 38.4772 3.86816 38.4893L3.0332 38.5117L2.75 37.7822C2.58067 37.4362 2.28247 36.9462 2.18066 36.6484C2.04294 36.2434 2.132 36.0414 2.06934 35.8604C2.00986 35.6893 1.82698 35.5843 1.7334 35.3564C1.44329 34.6442 1.36773 33.9214 1.13867 33.3584C1.13526 33.35 1.13239 33.3414 1.12891 33.333L0.879883 32.6904L1.37012 32.2695C1.98545 31.7142 2.30613 30.9665 2.70801 30.3682L8.58887 29.1768L6.5 27.5L4.76562 27.4707C4.9107 26.9956 4.99719 26.5018 5.01074 26.0068C5.02915 25.5011 4.97985 24.9977 4.87207 24.5195C4.81643 23.6057 3.7235 21.3935 3.44824 22.46C3.35218 22.4197 3.17769 22.2146 2.93945 21.9668C2.3118 21.336 1.46305 20.3788 1.11035 20.0225L0.408203 19.3594L0.771484 18.5312C0.793471 18.4854 0.811084 18.4461 0.824219 18.415C1.03044 17.9271 1.04695 17.4797 1.20312 17.0938C1.62783 16.0447 2.0268 15.311 2.43555 14.1045L2.86621 13.1201L3.87109 13.1934C4.01142 13.1915 4.15734 13.1884 4.30957 13.1826C4.70581 13.167 5.13755 13.0048 5.37109 13.0186C5.65236 13.0356 5.94653 13.2274 6.31055 13.2568C6.37951 13.2623 6.45352 13.2675 6.53125 13.2725C6.94912 13.3156 7.502 13.2407 8 13.1279V15H10V12.6367C10.3275 12.4189 10.4762 12.1319 10.2021 11.9492C10.3761 11.8838 10.5314 11.7901 10.668 11.6797C11.1852 11.2612 11.4117 10.6443 11.6543 10.0957C11.9445 9.45956 12.2102 8.52074 12.1562 7.5498C12.113 6.63424 12.0634 5.71041 12 4.88867L11.9678 3.68262L13.0225 3.27539C13.6519 2.99508 14.2111 2.72832 14.6357 2.49414C15.6676 1.92504 15.5549 1.73023 17.2217 1.25C17.2461 1.24296 17.2714 1.23642 17.2959 1.22949L18.5957 0.726562L19 1.19434ZM18 44.667L19 46L20 44.667L19.333 43L18 42V44.667ZM38.3711 41.3262C38.1062 41.0558 37.8833 42.1555 38.2285 41.8701C38.2982 41.8077 38.4301 41.395 38.3711 41.3262ZM18.084 12.1592C17.7265 12.0711 17.1143 13.3044 16.7178 14.9131C16.5771 15.4838 16.4832 16.0253 16.4355 16.4902C16.2392 16.6553 16.0487 16.8505 15.8555 17.1406C15.7533 17.2964 15.7573 17.5637 15.6855 17.6406C15.5983 17.7328 15.3729 17.72 15.2559 17.8418C14.9742 18.1297 14.5772 18.7642 14.3467 19.0703C14.3033 19.1252 14.1591 19.0621 14.0635 19.1221C13.6883 19.3561 13.4838 19.7657 13.959 19.9346C13.47 20.2364 13.4974 20.777 13.3389 21.2021C12.97 22.0939 12.4366 23.8105 12.585 24.6768C12.6686 25.2167 12.8826 25.2049 12.6777 25.9688C12.675 25.9794 12.6727 25.9903 12.6699 26.001C12.6283 26.1622 12.5769 26.3258 12.5371 26.5234C12.4365 27.0116 12.0777 27.5323 12.625 27.8359C12.579 28.4005 12.7618 28.8008 12.4561 29.3105C12.5673 29.3325 12.6789 29.3526 12.79 29.3721C12.8105 29.4366 12.8311 29.5014 12.8525 29.5654C12.7652 29.6131 12.6778 29.6614 12.5908 29.71C12.7079 30.2004 13.3027 30.6446 13.4629 31.0127C13.7008 31.6527 14.4734 33.2559 14.8066 33.8496C14.9702 34.1721 15.1427 34.05 14.9463 34.4824C15.021 34.5248 15.0957 34.5668 15.1709 34.6074C15.2744 34.5834 15.3779 34.5583 15.4805 34.5322C15.7813 34.8641 16.0595 35.3462 16.3857 35.6348C16.9773 36.1733 18.0741 36.6466 18.6719 37.1699C18.8211 37.3045 18.9502 37.5926 19.1279 37.6797C19.3869 37.8054 19.5857 37.547 19.9102 37.6846C20.4582 37.9283 21.4385 38.6448 22.0342 38.7422C22.2073 38.7737 22.3129 38.6741 22.4326 38.6855C22.9341 38.7303 23.3458 38.7984 23.8369 38.6592C24.3186 39.0079 24.2631 39.3956 24.4121 39.8047C24.4514 39.9145 24.5287 40.0744 24.6143 40.2471C24.7441 40.2506 24.8743 40.2529 25.0049 40.2529C25.0818 40.2529 25.1587 40.2502 25.2354 40.249C25.2466 39.8096 25.2725 39.1117 25.4404 39.0547C25.7684 38.9587 26.6053 39.2014 26.7891 39.1562C26.9116 39.1296 27.0459 38.9955 27.1982 38.9492C27.6847 38.7985 27.9705 38.8185 28.3271 38.4053C28.5429 38.5163 28.764 38.6217 28.9902 38.7217C29.1986 38.5784 29.6156 38.6585 29.7529 38.5928C29.8637 38.54 29.8832 38.3945 29.9971 38.3418C30.1241 38.2822 30.3809 38.3253 30.6084 38.1973C30.9802 37.986 30.8939 37.6489 31.0918 37.4971C31.2957 37.3397 31.7365 37.2983 31.9521 37.0205C31.9671 36.9672 31.9819 36.9136 31.9961 36.8604C31.9261 36.8059 31.8562 36.7515 31.7871 36.6963C31.9009 36.5773 32.053 36.6828 32.1787 36.6016C32.3264 36.5055 32.3047 36.3202 32.3994 36.2529C32.4768 36.1979 32.659 36.2252 32.7539 36.1426C32.8917 36.0221 32.7441 35.8979 32.7979 35.8105C32.824 35.7784 33.296 35.2427 33.3203 35.2119C33.5377 35.0034 33.7335 35.1712 33.9258 35.0146C34.4581 34.5756 34.7593 33.9005 35.0596 33.3564C35.195 33.1127 35.3688 32.8841 35.5518 32.6729C35.8646 33.4116 36.8398 32.8255 35.7607 32.6045C36.05 32.4139 35.919 32.0812 36.0967 31.8477C36.2116 31.6954 36.4007 31.641 36.5146 31.3916C36.7198 30.9416 36.5223 30.3153 37.2607 30.4326C37.337 29.8466 37.7246 29.4217 37.1455 29.0635C37.1429 28.9176 37.6029 28.635 37.6855 28.4775C37.7785 28.3384 38.115 27.1417 38.124 26.9336C38.1491 26.7309 38.1736 26.3765 38.1182 26.2041C38.0966 26.1349 38.0121 26.0715 37.9336 26.0068C37.767 25.8678 37.6277 25.7327 38.1514 25.4551C38.0666 25.0137 38.0759 24.8601 38.1201 24.4365C38.1276 24.36 38.2428 24.336 38.2373 24.292C38.2253 24.2009 38.1191 24.0605 38.083 23.9023C38.024 23.6433 38.234 23.4483 37.8711 23.5479C37.7769 23.3901 37.6801 23.2331 37.5801 23.0811C37.637 23.0064 37.6934 22.9308 37.749 22.8545C37.6501 22.7836 37.5503 22.7141 37.4502 22.6465C38.0059 22.609 37.5146 22.0635 37.2754 22.3584C37.2894 22.0118 37.2888 21.6601 37.2725 21.3047C37.8702 21.1242 37.0532 20.5811 36.7725 20.7891C36.7575 20.7544 36.7418 20.7201 36.7266 20.6855C36.737 20.3145 36.4805 20.0981 36.3799 19.6904C36.2743 19.2803 36.3417 19.2839 36.5195 19.0273C36.4539 18.9508 36.3874 18.8745 36.3203 18.7998C35.3893 18.8051 36.5621 18.1041 35.5352 17.7432C35.7463 17.2132 35.0727 16.8192 34.6406 16.5967C34.5903 16.5705 34.5222 16.6355 34.4512 16.6055C34.2802 16.5303 34.0374 16.1357 33.8408 16.373C33.7891 16.2053 33.7336 16.037 33.6738 15.8691C33.5416 15.8292 33.4093 15.792 33.2773 15.7568C33.2177 15.8316 33.1574 15.9067 33.0977 15.9814C33.1108 15.5707 32.7161 15.4297 32.6035 15.2559C32.5811 15.2205 32.6502 15.108 32.5703 15.0088C32.4769 14.8917 32.2331 14.7775 32.1104 14.6523C31.9764 14.7408 31.8437 14.8313 31.7129 14.9229C31.4215 14.8394 31.5224 14.4543 31.3799 14.3408C31.3555 14.3179 30.8244 14.0749 30.791 14.0713C30.5293 14.0214 30.4626 14.3364 29.8232 13.9941C29.7087 13.9343 29.6512 13.7908 29.542 13.7451C29.3488 13.6598 28.6742 13.714 28.5645 13.9336C28.4154 13.5735 27.737 13.5335 27.5635 13.415C27.511 13.3776 27.5358 13.1878 27.3613 13.1143C27.2185 13.0532 26.8138 13.1437 26.6309 13.0967C26.4359 13.0446 26.3791 12.8788 26.29 12.8584C26.2052 12.8397 26.1148 12.9607 25.999 12.9512C25.637 12.9192 25.3149 12.7025 25.0186 12.6982C25.0141 12.6982 25.0094 12.6982 25.0049 12.6982C24.582 12.7007 24.2328 13.0949 23.915 13.29C23.8293 13.2725 23.7394 13.1984 23.6504 13.207C22.5535 13.3054 21.3252 13.5308 20.2549 13.8682C19.7623 13.9991 18.3529 14.1478 19.0693 14.752C19.0445 14.8085 18.9224 14.8774 18.7568 14.9531C19.0556 13.54 19.0548 12.3998 18.7305 12.3193C18.6121 12.2904 18.4665 12.4067 18.3096 12.6328C18.2757 12.3598 18.2021 12.1887 18.084 12.1592ZM36.7969 30.8506C36.7398 30.8814 36.7131 31.1435 36.7881 31.1943C37.0843 31.388 37.0575 30.7092 36.7969 30.8506ZM42 19H45L43.75 17.2002L42 16V19ZM22.0654 12.8525C22.0926 12.9478 22.1205 13.0434 22.1475 13.1387C22.2181 13.0808 22.2901 13.0234 22.3623 12.9668C22.3056 12.9176 22.2467 12.8687 22.1885 12.8203C22.1475 12.8308 22.1062 12.8417 22.0654 12.8525Z" fill="#1A1A1A"/>
<path d="M23.0293 16.0041C23.4666 15.8211 24.4548 15.5741 25.0049 15.6847C25.06 15.6947 25.1107 15.708 25.1553 15.7238C25.2484 15.7572 25.3102 15.9468 25.3643 15.9484C25.3919 15.9485 25.4594 15.8232 25.5478 15.8146C26.3333 15.7446 26.9026 15.9105 27.6279 16.1437C29.0069 16.5805 30.667 17.1806 31.7471 18.3136C31.9821 18.5575 31.8833 18.9825 31.916 19.0129C31.9913 19.0773 32.215 18.946 32.4033 19.0549C33.0377 19.4232 33.389 20.3432 33.8193 20.8449C34.0376 21.0912 34.5322 21.3542 34.7344 21.6359C34.9019 21.8586 35.0092 22.4937 35.1748 22.5636C35.2778 22.6055 35.5461 22.5548 35.6064 22.631C35.6601 22.7025 35.5394 22.8611 35.5576 22.9562C35.6321 23.3593 35.5571 23.5313 35.5674 23.8976C35.6132 24.4268 35.9147 26.0222 34.7656 26.0041H34.7324C34.5182 25.998 34.2829 25.8807 34.04 25.8683C33.9763 25.8652 33.8223 25.8643 33.6279 25.8634C33.6287 25.9102 33.6318 25.9571 33.6318 26.0041C33.6318 26.0828 33.6281 26.1613 33.626 26.2394C34.0151 26.1495 34.4575 26.039 34.6709 26.009C34.9034 25.9798 35.203 26.0886 35.459 26.049C35.6579 26.5539 35.4147 26.774 35.0166 27.1242C34.9511 27.8465 34.807 28.5649 34.5859 29.2599C34.4324 29.2778 34.2788 29.2927 34.126 29.3049L34.125 29.3039C33.8826 29.498 34.1735 29.7334 34.1904 29.9045C34.4164 31.6234 31.9731 33.6979 30.5889 34.3722C30.3103 34.5577 29.4097 35.2583 29.0947 35.134C29.0154 35.1045 28.9132 34.9138 28.8525 34.9299C28.3928 35.2678 27.8932 35.5712 27.3603 35.8302C26.5514 35.7972 25.7948 35.9298 25.0049 36.0011C24.5955 36.0379 24.1832 36.0576 23.7744 36.0256C21.6679 35.8811 19.6006 35.0025 18 33.5998V29.0002L17 31.0002L17.1455 32.7492C16.6568 32.1964 16.2334 31.5858 15.8945 30.925C15.6015 30.3719 15.1384 29.6802 15.0586 29.049C15.0251 28.7857 15.3304 28.5982 15.0029 28.3351C15.0927 28.3107 15.1826 28.2862 15.2725 28.2619C15.0997 28.0092 14.8549 27.865 14.7832 27.5392C14.7175 27.2685 14.6417 26.5289 14.6777 26.2843C14.6929 26.1571 14.8674 26.2008 14.8652 26.0842C14.8647 26.0605 14.8607 26.0335 14.8545 26.0041C14.8069 25.7858 14.6339 25.414 14.6553 25.1633C14.6738 24.9068 14.9276 24.5079 14.9326 24.3146C14.9424 23.6173 14.8645 22.7685 15.2285 22.0793C15.3283 21.8894 15.6456 21.7356 15.667 21.6759C15.7081 21.5565 15.5283 21.4272 15.541 21.3361C15.6081 20.8687 16.188 20.3991 16.4414 20.0617C17.2577 18.937 18.2862 17.8293 19.499 17.1281C20.2448 16.6658 21.6013 16.0567 22.4297 16.0373C22.6058 16.0295 22.6186 16.2744 22.7559 16.2424C22.9075 16.2074 22.959 16.0316 23.0293 16.0041Z" fill="#1A1A1A"/>
</svg>
