<svg width="25" height="42" viewBox="0 0 25 42" fill="none" xmlns="http://www.w3.org/2000/svg">
<path d="M1.24672 40.2667C1.24672 39.1556 1.37795 38.3111 1.64042 37.7333C1.90289 37.1556 2.25284 36.6889 2.69029 36.3333C3.12773 36.0222 3.6308 35.7333 4.19947 35.4667C4.76815 35.2 5.33683 34.8 5.90551 34.2667C6.12423 34.0444 6.45232 33.7111 6.88976 33.2667C7.32721 32.8222 7.76466 32.3778 8.2021 31.9333C8.5958 31.4889 8.96763 31.0889 9.31759 30.7333C9.66754 30.3778 9.86439 30.1333 9.90814 30C10.6518 29.1111 11.308 28.0889 11.8766 26.9333C12.4453 25.8222 12.7297 24.6889 12.7297 23.5333C12.7297 23.2667 12.7297 22.9556 12.7297 22.6C12.6859 22.2444 12.6203 21.8889 12.5328 21.5333C12.4453 21.2222 12.3141 20.9111 12.1391 20.6C11.9641 20.3333 11.7017 20.1333 11.3517 20C11.2642 19.9556 11.0674 19.9111 10.7612 19.8667C10.4549 19.8222 10.1269 19.7556 9.7769 19.6667C9.42695 19.6222 9.09886 19.5778 8.79265 19.5333C8.48644 19.4889 8.28959 19.4444 8.2021 19.4C6.97725 19.1778 6.01487 18.7333 5.31496 18.0667C4.61505 17.4 3.87139 16.6444 3.08399 15.8C2.47157 15 1.90289 14.3778 1.37795 13.9333C0.85302 13.4889 0.393702 12.8444 7.15335e-07 12L9.13493e-07 9.73333C1.00674e-06 8.66666 0.0874912 7.73333 0.262469 6.93333C0.393703 6.17777 0.656169 5.48889 1.04987 4.86666C1.44357 4.28888 1.96851 3.77777 2.62467 3.33333C3.2371 2.88888 4.0245 2.44444 4.98688 1.99999C5.29309 1.86666 5.68679 1.68889 6.16798 1.46666C6.64917 1.28889 7.13036 1.08888 7.61155 0.866663C8.049 0.688887 8.46457 0.511107 8.85827 0.333331C9.25197 0.155551 9.49257 0.0444399 9.58006 -5.16275e-06L10.6955 -5.06523e-06C11.308 -5.01169e-06 12.1829 0.177775 13.3202 0.533332C14.4138 0.93333 15.5512 1.4 16.7323 1.93333C17.8696 2.51111 18.9195 3.11111 19.8819 3.73333C20.8005 4.4 21.413 5 21.7192 5.53333C21.7629 5.57777 21.8285 5.71111 21.916 5.93333C22.0035 6.2 22.1129 6.46666 22.2441 6.73333C22.3316 7 22.4409 7.24444 22.5722 7.46666C22.6597 7.68889 22.7034 7.82222 22.7034 7.86666C22.8346 8.26667 23.0315 8.73333 23.294 9.26667C23.5564 9.84444 23.8189 10.4222 24.0814 11C24.3438 11.6222 24.5626 12.2222 24.7375 12.8C24.9125 13.3778 25 13.8889 25 14.3333C25 14.9111 24.9125 15.4667 24.7375 16C24.5188 16.5333 24.4095 17.0889 24.4095 17.6667C24.4095 18.2889 24.5188 18.8889 24.7375 19.4667C24.9125 20.0889 25 20.7111 25 21.3333C25 22.2222 24.9781 23 24.9344 23.6667C24.8906 24.3333 24.7594 25.0667 24.5407 25.8667C24.4532 25.9556 24.3657 26.0444 24.2782 26.1333C24.147 26.2667 24.0376 26.3333 23.9501 26.3333C23.294 27.7556 22.5722 29.2667 21.7848 30.8667C20.9974 32.4667 20.0569 33.8667 18.9633 35.0667C18.7883 35.3333 18.5477 35.6 18.2415 35.8667C17.9353 36.1333 17.6509 36.4 17.3885 36.6667C17.0822 36.9778 16.8416 37.3111 16.6667 37.6667C16.4479 38.0222 16.3386 38.4222 16.3386 38.8667C16.2511 38.9111 16.0761 38.9556 15.8136 39C15.5512 39.0889 15.2887 39.1778 15.0262 39.2667C14.72 39.3556 14.4576 39.4444 14.2388 39.5333C13.9764 39.6222 13.7795 39.6667 13.6483 39.6667C13.5608 39.6667 13.3858 39.6889 13.1234 39.7333C12.8609 39.7778 12.5984 39.8222 12.336 39.8667C12.0297 39.9556 11.7454 40.0222 11.4829 40.0667C11.1767 40.1111 10.9799 40.1333 10.8924 40.1333C10.8486 40.1778 10.7393 40.2444 10.5643 40.3333C10.3456 40.4222 10.1487 40.5111 9.97375 40.6C9.75503 40.7333 9.55818 40.8444 9.3832 40.9333C9.20822 41.0222 9.12073 41.1111 9.12073 41.2C8.94576 41.2444 8.68329 41.3111 8.33333 41.4C7.93963 41.4889 7.54593 41.5778 7.15223 41.6667C6.75853 41.7556 6.40857 41.8222 6.10236 41.8667C5.75241 41.9556 5.51181 42 5.38058 42L2.29659 42C1.77165 41.9111 1.46544 41.6889 1.37795 41.3333C1.29046 40.9778 1.24672 40.6222 1.24672 40.2667Z" fill="#E1B833"/>
</svg>
