<svg width="28" height="45" viewBox="0 0 28 45" fill="none" xmlns="http://www.w3.org/2000/svg">
<path d="M27.5 33.9419C27.5 35.0354 27.4071 36.0077 27.2148 36.853L27.2139 36.8521C27.0645 37.6635 26.7699 38.4092 26.3262 39.0835L26.3213 39.0903L26.3164 39.0981C25.8682 39.7306 25.2771 40.2797 24.5557 40.7515L24.5566 40.7524C23.8854 41.2209 23.0358 41.6798 22.0166 42.1323L22.0068 42.1362C21.693 42.2676 21.2869 42.444 20.7881 42.6655L20.7705 42.6733L20.7529 42.6802C20.265 42.8535 19.7761 43.048 19.2871 43.2651L19.2764 43.27L19.2656 43.2739C18.816 43.4496 18.3896 43.6252 17.9863 43.8003C17.5724 43.98 17.3344 44.0862 17.2559 44.1245L17.1523 44.1753H15.877C15.1647 44.1753 14.1973 43.9796 13.0029 43.6206L12.9922 43.6177L12.9814 43.6138C11.8317 43.2094 10.6375 42.7382 9.39941 42.2007L9.38867 42.1958L9.37891 42.1909C8.18261 41.6066 7.07539 40.9988 6.05859 40.3667L6.04785 40.3599L6.03711 40.3521C5.08819 39.6899 4.39127 39.054 4.01074 38.4409C3.95198 38.3683 3.90881 38.2895 3.88184 38.2368L3.74512 37.9312L3.73926 37.9175L3.73438 37.9038C3.65162 37.6613 3.54711 37.416 3.4209 37.1694L3.4043 37.1372L3.39258 37.103C3.31262 36.8688 3.21418 36.6583 3.09863 36.4702L3.07715 36.436L3.0625 36.3979C3.01546 36.2831 2.97664 36.1834 2.94922 36.103C2.93567 36.0633 2.92221 36.0224 2.91211 35.9829C2.90925 35.9717 2.90545 35.9547 2.90137 35.9341C2.77497 35.5715 2.58655 35.1393 2.3291 34.6362L2.3252 34.6294L2.32227 34.6226C2.18578 34.3337 2.04957 34.0443 1.91309 33.7554L1.50293 32.8892L1.49707 32.8765C1.21776 32.2398 0.983888 31.6227 0.795898 31.0259C0.603807 30.416 0.500044 29.8523 0.5 29.3423C0.5 28.7111 0.599704 28.1007 0.799805 27.5142L0.805664 27.4966L0.813477 27.479C1.01452 27.0075 1.11426 26.5183 1.11426 26.0083C1.11422 25.4488 1.01198 24.9112 0.807617 24.3921L0.799805 24.3706L0.792969 24.3491C0.59825 23.6833 0.500032 23.0139 0.5 22.3423C0.5 21.4455 0.522865 20.6551 0.569336 19.9741C0.617719 19.2657 0.762389 18.4978 0.99707 17.6724L1.0332 17.5435L1.12793 17.4507L1.13281 17.4468C1.12367 17.4557 1.14591 17.4339 1.13672 17.4429C1.14819 17.4317 1.12915 17.4492 1.14062 17.438C1.14317 17.4355 1.14296 17.4366 1.14551 17.4341C1.15657 17.4233 1.15093 17.4284 1.16211 17.4175L1.16699 17.4136L1.17969 17.4009C1.18103 17.3996 1.18761 17.3939 1.18848 17.3931C1.18923 17.3923 1.19168 17.3889 1.19238 17.3882C1.19509 17.3855 1.19348 17.387 1.19629 17.3843C1.2114 17.3695 1.21543 17.3658 1.23047 17.3511C1.24007 17.3417 1.22966 17.3517 1.23926 17.3423C1.25016 17.3316 1.23682 17.3454 1.24805 17.3345C1.26583 17.3171 1.24699 17.3351 1.26465 17.3179C1.32296 17.2609 1.34305 17.2411 1.40137 17.1841L1.53613 17.064C1.58362 17.026 1.63358 16.9909 1.68555 16.9604C1.69995 16.952 1.71552 16.9443 1.73145 16.936C2.39149 15.5649 3.11405 14.1131 3.89844 12.5806C4.73198 10.952 5.73001 9.51989 6.89355 8.2876C7.1042 7.98839 7.37844 7.70126 7.70801 7.42529C8.01747 7.16615 8.30337 6.90784 8.56641 6.65088C8.85055 6.37329 9.06701 6.08296 9.22168 5.78076L9.23242 5.75928L9.24512 5.73877C9.41821 5.46816 9.50774 5.16309 9.50781 4.80908V4.49658L9.78809 4.35889C9.94561 4.28194 10.1805 4.23085 10.4297 4.18896C10.5558 4.14788 10.6824 4.10798 10.8086 4.06689C10.945 4.02246 11.0813 3.97754 11.2178 3.93311L11.2275 3.93018L11.2383 3.92725C11.5458 3.8414 11.8022 3.75738 12.0098 3.67627L12.0371 3.6665C12.3173 3.57527 12.5854 3.50832 12.8057 3.5083C12.8493 3.5083 12.9914 3.49434 13.2715 3.44873L13.6807 3.38135C13.8102 3.36025 13.9398 3.33896 14.0693 3.31787C14.39 3.22944 14.693 3.16107 14.9775 3.11475L14.9883 3.11377L15.3965 3.06201C15.431 3.05829 15.4637 3.05692 15.4941 3.0542C15.5097 3.04452 15.5242 3.03498 15.5381 3.02686C15.61 2.98471 15.6969 2.94046 15.7939 2.89307L15.8125 2.8833L15.8311 2.87646C16.0414 2.79426 16.2279 2.71264 16.3916 2.6333C16.6172 2.50148 16.8254 2.38914 17.0146 2.29639V2.08252L17.3955 1.98975L17.4043 1.98779L17.4092 1.98682C17.4103 1.98655 17.4123 1.98506 17.4131 1.98486C17.4304 1.98063 17.4135 1.98516 17.4307 1.98096C17.4319 1.98067 17.4475 1.9765 17.4492 1.97607C17.4667 1.97181 17.4511 1.97648 17.4688 1.97217C17.5154 1.96078 17.5 1.96381 17.5498 1.95166C17.5562 1.9501 17.5536 1.9514 17.5605 1.94971L17.5928 1.94092L17.6045 1.93896C17.6129 1.9369 17.6018 1.93911 17.6104 1.93701C17.6143 1.93605 17.6118 1.93711 17.6162 1.93604C17.6608 1.92516 17.5936 1.94118 17.6387 1.93018C17.6471 1.92811 17.6545 1.92642 17.6631 1.92432C17.6646 1.92396 17.6679 1.92361 17.6689 1.92334C17.6699 1.9231 17.6746 1.92145 17.6748 1.92139H17.6758L17.6777 1.92041H17.6807C17.6824 1.91998 17.6847 1.9189 17.6865 1.91846C17.7196 1.91038 17.7035 1.91401 17.7373 1.90576C17.7991 1.89068 17.7788 1.89623 17.8438 1.88037C17.9146 1.86307 17.8852 1.87006 17.959 1.85205C17.9849 1.84572 17.9475 1.85452 17.9736 1.84814C17.9959 1.84271 17.967 1.84968 17.9893 1.84424C18.0159 1.83773 17.9923 1.84406 18.0195 1.8374L18.082 1.82178C18.1217 1.81209 18.1072 1.81599 18.1475 1.80615C18.1723 1.80009 18.1893 1.79579 18.2148 1.78955L18.2275 1.78662L18.8418 1.65381C19.0464 1.60938 19.2514 1.56445 19.4561 1.52002C19.8646 1.43134 20.2334 1.36342 20.5615 1.31689C20.9079 1.23302 21.2041 1.17529 21.4043 1.17529H24.6523L24.6924 1.18213L24.9238 1.229C25.4559 1.36267 25.9086 1.65888 26.0518 2.21826C26.1527 2.6129 26.2031 3.01011 26.2031 3.40869C26.2031 4.5468 26.0659 5.47893 25.7461 6.15576C25.4434 6.79638 25.0325 7.32733 24.5098 7.73584L24.4971 7.74561L24.4844 7.75439C24.0014 8.0847 23.4515 8.38786 22.8379 8.66455C22.3054 8.90466 21.7589 9.27021 21.2002 9.77295C21.1992 9.77392 21.1986 9.77557 21.1973 9.77686C21.1941 9.77993 21.1945 9.77876 21.1914 9.78174L21.1904 9.78369L21.1885 9.78467L21.1641 9.80908C21.1527 9.82015 21.1521 9.82029 21.1406 9.83154L21.1172 9.85498C21.08 9.89133 21.0564 9.9138 21.0156 9.95361C21.0143 9.95495 20.9899 9.97843 20.9883 9.97998L20.9609 10.0073C20.9504 10.0177 20.9434 10.0241 20.9326 10.0347L20.918 10.0493C20.8938 10.0729 20.9282 10.0387 20.9033 10.063C20.8965 10.0696 20.8809 10.0856 20.874 10.0923C20.8699 10.0963 20.8704 10.095 20.8662 10.0991L20.8643 10.1011L20.8633 10.103L20.8594 10.1069C20.8458 10.1202 20.8573 10.1083 20.8438 10.1216C20.8401 10.1251 20.8163 10.1481 20.8125 10.1519C20.7804 10.1833 20.8137 10.1514 20.7812 10.1831C20.7201 10.2429 20.5793 10.38 20.5039 10.4536L20.4277 10.5278C20.3892 10.5655 20.4274 10.528 20.3887 10.5659C20.3826 10.5719 20.3559 10.5988 20.3496 10.605C20.3066 10.647 20.3115 10.6412 20.2676 10.6841C20.2361 10.7149 20.2789 10.6735 20.2471 10.7046C20.2462 10.7054 20.2459 10.7067 20.2451 10.7075C20.2443 10.7083 20.243 10.7087 20.2422 10.7095L20.2266 10.7251C20.2257 10.7259 20.2245 10.7263 20.2236 10.7271L20.2051 10.7456C20.2043 10.7464 20.2039 10.7477 20.2031 10.7485C20.2023 10.7493 20.201 10.7497 20.2002 10.7505C20.1941 10.7565 20.2005 10.7503 20.1943 10.7563L20.1836 10.7661C20.1035 10.8444 20.0938 10.8548 20.0137 10.9331C19.9317 11.0132 19.9248 11.02 19.8428 11.1001C19.8376 11.1051 19.8038 11.1372 19.7998 11.1411C19.7957 11.1451 19.7616 11.1794 19.7578 11.1831C19.7103 11.2295 19.7194 11.2197 19.6719 11.2661C19.6686 11.2693 19.6544 11.2847 19.6514 11.2876C19.6454 11.2935 19.6515 11.2866 19.6455 11.2925L19.6299 11.3081C19.5971 11.3402 19.641 11.2968 19.6084 11.3286C19.5952 11.3415 19.6001 11.3372 19.5869 11.3501C19.5738 11.3629 19.557 11.3784 19.5439 11.3911C19.517 11.4174 19.5505 11.3862 19.5234 11.4126C19.5016 11.434 19.5237 11.4118 19.502 11.4331C19.4148 11.5183 19.2473 11.681 19.1602 11.7661C19.1492 11.7769 19.1292 11.7973 19.1182 11.8081C19.1038 11.8221 19.1108 11.8148 19.0967 11.8286L19.0752 11.8501C19.0698 11.8554 19.0369 11.8866 19.0322 11.8911L18.9902 11.9331C18.9077 12.0138 18.9019 12.0194 18.8193 12.1001C18.6185 12.3179 18.4231 12.5259 18.2324 12.7231L17.6592 13.2993C17.483 13.4714 17.3539 13.6091 17.2666 13.7134C17.1933 13.801 17.1695 13.8419 17.166 13.8462L17.1367 13.9292L17.0723 14.0034C16.3281 14.8588 15.6685 15.8472 15.0938 16.9702L15.0898 16.9771C14.5334 18.0224 14.2607 19.0757 14.2607 20.1421V21.0376C14.3032 21.3611 14.3654 21.6854 14.4482 22.0103C14.5247 22.2687 14.6392 22.5327 14.7949 22.8022C14.8788 22.9219 14.9987 23.0307 15.1709 23.1206L15.3662 23.2056L15.3906 23.2144L15.4141 23.2261C15.4025 23.2204 15.4269 23.2327 15.5225 23.2534C15.6079 23.272 15.7255 23.2917 15.8779 23.313C16.2045 23.3586 16.5499 23.4263 16.9141 23.5142C17.2725 23.558 17.6094 23.603 17.9248 23.647C18.0906 23.6701 18.2353 23.6943 18.3545 23.7202C18.4332 23.7373 18.5184 23.7611 18.5986 23.7905C19.9184 24.0268 21.0023 24.4995 21.8105 25.2397C22.3627 25.7455 22.9393 26.3011 23.541 26.9058L24.1514 27.5269L24.1689 27.5444L24.1836 27.564C24.8072 28.3473 25.3741 28.9399 25.8828 29.354C26.5009 29.8572 27.019 30.5682 27.4502 31.4575L27.5 31.5601V33.9419Z" fill="white" stroke="black"/>
</svg>
