<svg width="27" height="44" viewBox="0 0 27 44" fill="none" xmlns="http://www.w3.org/2000/svg">
<path d="M2.24672 40.942C2.24672 39.8308 2.37795 38.9864 2.64042 38.4086C2.90289 37.8308 3.25284 37.3642 3.69029 37.0086C4.12773 36.6975 4.6308 36.4086 5.19947 36.142C5.76815 35.8753 6.33683 35.4753 6.90551 34.942C7.12423 34.7197 7.45232 34.3864 7.88976 33.942C8.32721 33.4975 8.76465 33.0531 9.2021 32.6086C9.5958 32.1642 9.96763 31.7642 10.3176 31.4086C10.6675 31.0531 10.8644 30.8086 10.9081 30.6753C11.6518 29.7864 12.308 28.7642 12.8766 27.6086C13.4453 26.4975 13.7297 25.3642 13.7297 24.2086C13.7297 23.942 13.7297 23.6308 13.7297 23.2753C13.6859 22.9197 13.6203 22.5642 13.5328 22.2086C13.4453 21.8975 13.3141 21.5864 13.1391 21.2753C12.9641 21.0086 12.7017 20.8086 12.3517 20.6753C12.2642 20.6308 12.0674 20.5864 11.7612 20.542C11.4549 20.4975 11.1269 20.4308 10.7769 20.342C10.4269 20.2975 10.0989 20.2531 9.79265 20.2086C9.48644 20.1642 9.28959 20.1197 9.2021 20.0753C7.97725 19.8531 7.01487 19.4086 6.31496 18.742C5.61505 18.0753 4.87139 17.3197 4.08399 16.4753C3.47157 15.6753 2.90289 15.0531 2.37795 14.6086C1.85302 14.1642 1.3937 13.5197 1 12.6753L1 10.4086C1 9.34196 1.08749 8.40862 1.26247 7.60862C1.3937 6.85307 1.65617 6.16418 2.04987 5.54196C2.44357 4.96418 2.96851 4.45307 3.62467 4.00862C4.2371 3.56418 5.0245 3.11973 5.98688 2.67529C6.29309 2.54196 6.68679 2.36418 7.16798 2.14196C7.64917 1.96418 8.13036 1.76418 8.61155 1.54196C9.049 1.36418 9.46457 1.1864 9.85827 1.00862C10.252 0.830845 10.4926 0.719734 10.5801 0.675289L11.6955 0.67529C12.308 0.67529 13.1829 0.853067 14.3202 1.20862C15.4138 1.60862 16.5512 2.07529 17.7323 2.60862C18.8696 3.1864 19.9195 3.7864 20.8819 4.40862C21.8005 5.07529 22.413 5.67529 22.7192 6.20862C22.7629 6.25307 22.8285 6.3864 22.916 6.60862C23.0035 6.87529 23.1129 7.14196 23.2441 7.40862C23.3316 7.67529 23.4409 7.91974 23.5722 8.14196C23.6597 8.36418 23.7034 8.49751 23.7034 8.54196C23.8346 8.94196 24.0315 9.40862 24.294 9.94196C24.5564 10.5197 24.8189 11.0975 25.0814 11.6753C25.3438 12.2975 25.5626 12.8975 25.7375 13.4753C25.9125 14.0531 26 14.5642 26 15.0086C26 15.5864 25.9125 16.142 25.7375 16.6753C25.5188 17.2086 25.4095 17.7642 25.4095 18.342C25.4095 18.9642 25.5188 19.5642 25.7375 20.142C25.9125 20.7642 26 21.3864 26 22.0086C26 22.8975 25.9781 23.6753 25.9344 24.342C25.8906 25.0086 25.7594 25.742 25.5407 26.542C25.4532 26.6308 25.3657 26.7197 25.2782 26.8086C25.147 26.942 25.0376 27.0086 24.9501 27.0086C24.294 28.4308 23.5722 29.942 22.7848 31.542C21.9974 33.142 21.0569 34.542 19.9633 35.742C19.7883 36.0086 19.5477 36.2753 19.2415 36.542C18.9353 36.8086 18.6509 37.0753 18.3885 37.342C18.0822 37.6531 17.8416 37.9864 17.6667 38.342C17.4479 38.6975 17.3386 39.0975 17.3386 39.542C17.2511 39.5864 17.0761 39.6308 16.8136 39.6753C16.5512 39.7642 16.2887 39.8531 16.0262 39.942C15.72 40.0308 15.4576 40.1197 15.2388 40.2086C14.9764 40.2975 14.7795 40.342 14.6483 40.342C14.5608 40.342 14.3858 40.3642 14.1234 40.4086C13.8609 40.4531 13.5984 40.4975 13.336 40.542C13.0297 40.6308 12.7454 40.6975 12.4829 40.742C12.1767 40.7864 11.9799 40.8086 11.8924 40.8086C11.8486 40.8531 11.7393 40.9197 11.5643 41.0086C11.3456 41.0975 11.1487 41.1864 10.9738 41.2753C10.755 41.4086 10.5582 41.5197 10.3832 41.6086C10.2082 41.6975 10.1207 41.7864 10.1207 41.8753C9.94576 41.9197 9.68329 41.9864 9.33333 42.0753C8.93963 42.1642 8.54593 42.2531 8.15223 42.342C7.75853 42.4308 7.40857 42.4975 7.10236 42.542C6.7524 42.6308 6.51181 42.6753 6.38058 42.6753L3.29659 42.6753C2.77165 42.5864 2.46544 42.3642 2.37795 42.0086C2.29046 41.6531 2.24672 41.2975 2.24672 40.942Z" fill="white" stroke="black"/>
</svg>
