<svg width="257" height="17" viewBox="0 0 257 17" fill="none" xmlns="http://www.w3.org/2000/svg">
<path d="M6.17188 8.9375C6.26562 9.375 6.37891 9.74219 6.51172 10.0391C6.65234 10.3281 6.86328 10.5859 7.14453 10.8125C7.42578 11.0312 7.59766 11.1406 7.66016 11.1406C8.02734 10.8516 8.30078 10.4727 8.48047 10.0039C8.75391 9.43359 8.96094 8.98047 9.10156 8.64453C9.32812 8.27734 9.55859 7.98438 9.79297 7.76562C10.0664 7.42188 10.5273 7.25 11.1758 7.25C11.8164 7.35156 12.2422 7.79688 12.4531 8.58594V8.72656C12.3516 9.14062 12.1328 9.35938 11.7969 9.38281H11.7266C11.4688 9.38281 11.1602 9.28906 10.8008 9.10156H10.707C10.5273 9.125 10.3281 9.33203 10.1094 9.72266C9.95312 10.0586 9.76562 10.4805 9.54688 10.9883C9.42969 11.3945 9.23438 12.0195 8.96094 12.8633C9.30469 13.7773 9.875 14.3945 10.6719 14.7148L10.9648 14.7852C11.3789 14.7695 11.5977 14.5664 11.6211 14.1758C11.6523 13.7773 11.7227 13.4922 11.832 13.3203C11.9492 13.1484 12.1484 13.0352 12.4297 12.9805L12.5352 12.9453C13.082 13 13.4219 13.3477 13.5547 13.9883V14.2344C13.5547 15.0938 13.4023 15.6953 13.0977 16.0391C12.5586 16.6094 12.0312 16.8945 11.5156 16.8945C11.3359 16.9102 11.168 16.918 11.0117 16.918C10.3477 16.918 9.85156 16.7695 9.52344 16.4727C9.39062 16.418 8.85547 15.9805 7.91797 15.1602C7.85547 15.1211 7.79688 15.1016 7.74219 15.1016C7.65625 15.1016 7.57422 15.1406 7.49609 15.2188L7.0625 15.6055L6.40625 16.1445C5.96875 16.4961 5.32812 16.7188 4.48438 16.8125L3.92188 16.8008C2.64844 16.6914 1.69531 16.2227 1.0625 15.3945C0.914062 15.168 0.777344 14.9922 0.652344 14.8672C0.386719 14.4453 0.230469 13.9141 0.183594 13.2734C0.175781 13.1406 0.171875 13.0078 0.171875 12.875C0.171875 12.3516 0.242188 11.8008 0.382812 11.2227C0.757812 10.2227 1.48438 9.26953 2.5625 8.36328H2.58594C2.73438 8.25391 2.97656 8.09375 3.3125 7.88281L4.03906 7.22656C4.07812 7.16406 4.09766 7.07422 4.09766 6.95703C4.09766 6.88672 4.08984 6.80859 4.07422 6.72266L3.59375 4.41406C3.57812 4.17188 3.57031 3.94922 3.57031 3.74609C3.57031 3.30078 3.60938 2.93359 3.6875 2.64453C3.8125 2.23047 3.92578 1.97656 4.02734 1.88281C4.44922 1.28125 5.00781 0.945312 5.70312 0.875C5.83594 0.859375 5.96875 0.851562 6.10156 0.851562C6.61719 0.851562 7.10156 0.953125 7.55469 1.15625C8.07812 1.46094 8.42969 1.76172 8.60938 2.05859L8.86719 2.44531L9.11328 3.14844L9.18359 3.67578L9.16016 4.17969C9.12891 4.74219 8.94531 5.25 8.60938 5.70312C8.28906 6.21875 7.85938 6.66797 7.32031 7.05078C6.55469 7.77734 6.14844 8.19922 6.10156 8.31641C6.08594 8.33203 6.07812 8.35938 6.07812 8.39844C6.07812 8.52344 6.10938 8.70312 6.17188 8.9375ZM3.25391 10.2031C2.85547 10.5859 2.49219 11.1367 2.16406 11.8555L2.05859 12.2539C2.05078 12.3711 2.04688 12.4922 2.04688 12.6172C2.04688 12.9688 2.08984 13.3008 2.17578 13.6133C2.26953 13.9727 2.53125 14.3516 2.96094 14.75C3.41406 14.9688 3.78906 15.0781 4.08594 15.0781C4.14062 15.0781 4.25781 15.0625 4.4375 15.0312C4.625 14.9922 4.875 14.875 5.1875 14.6797C5.92969 14.0859 6.30078 13.5859 6.30078 13.1797C6.30078 12.9062 6.09375 12.5742 5.67969 12.1836C5.27344 11.7695 4.94141 11.0391 4.68359 9.99219C4.55078 9.78125 4.42578 9.67578 4.30859 9.67578H4.10938C4.07031 9.67578 3.88672 9.75391 3.55859 9.91016C3.45703 9.94922 3.35547 10.0469 3.25391 10.2031ZM7.00391 4.92969C7.17578 4.625 7.27734 4.35547 7.30859 4.12109C7.33203 3.98047 7.34375 3.84766 7.34375 3.72266C7.34375 3.62891 7.33594 3.53906 7.32031 3.45312C7.29688 3.28906 7.1875 3.05078 6.99219 2.73828C6.73438 2.54297 6.51953 2.4375 6.34766 2.42188H6.30078C6.15234 2.42188 6.02734 2.45312 5.92578 2.51562C5.83203 2.57812 5.75391 2.64453 5.69141 2.71484C5.63672 2.78516 5.59766 2.87891 5.57422 2.99609C5.55078 3.10547 5.52734 3.33984 5.50391 3.69922V3.80469L5.52734 4.29688V4.36719C5.52734 4.69531 5.61328 5.27344 5.78516 6.10156C5.78516 6.09375 5.86328 6.03906 6.01953 5.9375C6.32422 5.71094 6.65234 5.375 7.00391 4.92969Z" fill="#1A1A1A"/>
<path d="M16.168 7.28516C16.3008 7.28516 16.6367 7.33594 17.1758 7.4375L17.4688 7.46094L18.5 7.34375L19.5898 7.47266H19.6836C19.7695 7.47266 20.0547 7.42969 20.5391 7.34375H20.7969L21.7812 7.49609H21.875C22.0312 7.49609 22.293 7.46094 22.6602 7.39062L22.9062 7.35547L23.5859 7.40234L24.1836 7.44922C24.6758 7.50391 25.043 7.75391 25.2852 8.19922L25.3555 8.41016C25.3477 8.91016 25.0234 9.26172 24.3828 9.46484L23.0586 9.59375L22.0742 9.51172L20.9375 9.57031L19.8594 9.46484L18.6523 9.61719C18.0742 9.51562 17.6797 9.46484 17.4688 9.46484H17.375L16.3203 9.54688C14.9766 9.46094 14.3047 9.08984 14.3047 8.43359C14.3047 8.13672 14.5625 7.80859 15.0781 7.44922C15.3672 7.33984 15.7305 7.28516 16.168 7.28516Z" fill="#1A1A1A"/>
<path d="M26.9961 7.28516C27.1289 7.28516 27.4648 7.33594 28.0039 7.4375L28.2969 7.46094L29.3281 7.34375L30.418 7.47266H30.5117C30.5977 7.47266 30.8828 7.42969 31.3672 7.34375H31.625L32.6094 7.49609H32.7031C32.8594 7.49609 33.1211 7.46094 33.4883 7.39062L33.7344 7.35547L34.4141 7.40234L35.0117 7.44922C35.5039 7.50391 35.8711 7.75391 36.1133 8.19922L36.1836 8.41016C36.1758 8.91016 35.8516 9.26172 35.2109 9.46484L33.8867 9.59375L32.9023 9.51172L31.7656 9.57031L30.6875 9.46484L29.4805 9.61719C28.9023 9.51562 28.5078 9.46484 28.2969 9.46484H28.2031L27.1484 9.54688C25.8047 9.46094 25.1328 9.08984 25.1328 8.43359C25.1328 8.13672 25.3906 7.80859 25.9062 7.44922C26.1953 7.33984 26.5586 7.28516 26.9961 7.28516Z" fill="#1A1A1A"/>
<path d="M37.8242 7.28516C37.957 7.28516 38.293 7.33594 38.832 7.4375L39.125 7.46094L40.1562 7.34375L41.2461 7.47266H41.3398C41.4258 7.47266 41.7109 7.42969 42.1953 7.34375H42.4531L43.4375 7.49609H43.5312C43.6875 7.49609 43.9492 7.46094 44.3164 7.39062L44.5625 7.35547L45.2422 7.40234L45.8398 7.44922C46.332 7.50391 46.6992 7.75391 46.9414 8.19922L47.0117 8.41016C47.0039 8.91016 46.6797 9.26172 46.0391 9.46484L44.7148 9.59375L43.7305 9.51172L42.5938 9.57031L41.5156 9.46484L40.3086 9.61719C39.7305 9.51562 39.3359 9.46484 39.125 9.46484H39.0312L37.9766 9.54688C36.6328 9.46094 35.9609 9.08984 35.9609 8.43359C35.9609 8.13672 36.2188 7.80859 36.7344 7.44922C37.0234 7.33984 37.3867 7.28516 37.8242 7.28516Z" fill="#1A1A1A"/>
<path d="M48.6523 7.28516C48.7852 7.28516 49.1211 7.33594 49.6602 7.4375L49.9531 7.46094L50.9844 7.34375L52.0742 7.47266H52.168C52.2539 7.47266 52.5391 7.42969 53.0234 7.34375H53.2812L54.2656 7.49609H54.3594C54.5156 7.49609 54.7773 7.46094 55.1445 7.39062L55.3906 7.35547L56.0703 7.40234L56.668 7.44922C57.1602 7.50391 57.5273 7.75391 57.7695 8.19922L57.8398 8.41016C57.832 8.91016 57.5078 9.26172 56.8672 9.46484L55.543 9.59375L54.5586 9.51172L53.4219 9.57031L52.3438 9.46484L51.1367 9.61719C50.5586 9.51562 50.1641 9.46484 49.9531 9.46484H49.8594L48.8047 9.54688C47.4609 9.46094 46.7891 9.08984 46.7891 8.43359C46.7891 8.13672 47.0469 7.80859 47.5625 7.44922C47.8516 7.33984 48.2148 7.28516 48.6523 7.28516Z" fill="#1A1A1A"/>
<path d="M59.4805 7.28516C59.6133 7.28516 59.9492 7.33594 60.4883 7.4375L60.7812 7.46094L61.8125 7.34375L62.9023 7.47266H62.9961C63.082 7.47266 63.3672 7.42969 63.8516 7.34375H64.1094L65.0938 7.49609H65.1875C65.3438 7.49609 65.6055 7.46094 65.9727 7.39062L66.2188 7.35547L66.8984 7.40234L67.4961 7.44922C67.9883 7.50391 68.3555 7.75391 68.5977 8.19922L68.668 8.41016C68.6602 8.91016 68.3359 9.26172 67.6953 9.46484L66.3711 9.59375L65.3867 9.51172L64.25 9.57031L63.1719 9.46484L61.9648 9.61719C61.3867 9.51562 60.9922 9.46484 60.7812 9.46484H60.6875L59.6328 9.54688C58.2891 9.46094 57.6172 9.08984 57.6172 8.43359C57.6172 8.13672 57.875 7.80859 58.3906 7.44922C58.6797 7.33984 59.043 7.28516 59.4805 7.28516Z" fill="#1A1A1A"/>
<path d="M70.3086 7.28516C70.4414 7.28516 70.7773 7.33594 71.3164 7.4375L71.6094 7.46094L72.6406 7.34375L73.7305 7.47266H73.8242C73.9102 7.47266 74.1953 7.42969 74.6797 7.34375H74.9375L75.9219 7.49609H76.0156C76.1719 7.49609 76.4336 7.46094 76.8008 7.39062L77.0469 7.35547L77.7266 7.40234L78.3242 7.44922C78.8164 7.50391 79.1836 7.75391 79.4258 8.19922L79.4961 8.41016C79.4883 8.91016 79.1641 9.26172 78.5234 9.46484L77.1992 9.59375L76.2148 9.51172L75.0781 9.57031L74 9.46484L72.793 9.61719C72.2148 9.51562 71.8203 9.46484 71.6094 9.46484H71.5156L70.4609 9.54688C69.1172 9.46094 68.4453 9.08984 68.4453 8.43359C68.4453 8.13672 68.7031 7.80859 69.2188 7.44922C69.5078 7.33984 69.8711 7.28516 70.3086 7.28516Z" fill="#1A1A1A"/>
<path d="M81.1367 7.28516C81.2695 7.28516 81.6055 7.33594 82.1445 7.4375L82.4375 7.46094L83.4688 7.34375L84.5586 7.47266H84.6523C84.7383 7.47266 85.0234 7.42969 85.5078 7.34375H85.7656L86.75 7.49609H86.8438C87 7.49609 87.2617 7.46094 87.6289 7.39062L87.875 7.35547L88.5547 7.40234L89.1523 7.44922C89.6445 7.50391 90.0117 7.75391 90.2539 8.19922L90.3242 8.41016C90.3164 8.91016 89.9922 9.26172 89.3516 9.46484L88.0273 9.59375L87.043 9.51172L85.9062 9.57031L84.8281 9.46484L83.6211 9.61719C83.043 9.51562 82.6484 9.46484 82.4375 9.46484H82.3438L81.2891 9.54688C79.9453 9.46094 79.2734 9.08984 79.2734 8.43359C79.2734 8.13672 79.5312 7.80859 80.0469 7.44922C80.3359 7.33984 80.6992 7.28516 81.1367 7.28516Z" fill="#1A1A1A"/>
<path d="M91.9648 7.28516C92.0977 7.28516 92.4336 7.33594 92.9727 7.4375L93.2656 7.46094L94.2969 7.34375L95.3867 7.47266H95.4805C95.5664 7.47266 95.8516 7.42969 96.3359 7.34375H96.5938L97.5781 7.49609H97.6719C97.8281 7.49609 98.0898 7.46094 98.457 7.39062L98.7031 7.35547L99.3828 7.40234L99.9805 7.44922C100.473 7.50391 100.84 7.75391 101.082 8.19922L101.152 8.41016C101.145 8.91016 100.82 9.26172 100.18 9.46484L98.8555 9.59375L97.8711 9.51172L96.7344 9.57031L95.6562 9.46484L94.4492 9.61719C93.8711 9.51562 93.4766 9.46484 93.2656 9.46484H93.1719L92.1172 9.54688C90.7734 9.46094 90.1016 9.08984 90.1016 8.43359C90.1016 8.13672 90.3594 7.80859 90.875 7.44922C91.1641 7.33984 91.5273 7.28516 91.9648 7.28516Z" fill="#1A1A1A"/>
<path d="M102.793 7.28516C102.926 7.28516 103.262 7.33594 103.801 7.4375L104.094 7.46094L105.125 7.34375L106.215 7.47266H106.309C106.395 7.47266 106.68 7.42969 107.164 7.34375H107.422L108.406 7.49609H108.5C108.656 7.49609 108.918 7.46094 109.285 7.39062L109.531 7.35547L110.211 7.40234L110.809 7.44922C111.301 7.50391 111.668 7.75391 111.91 8.19922L111.98 8.41016C111.973 8.91016 111.648 9.26172 111.008 9.46484L109.684 9.59375L108.699 9.51172L107.562 9.57031L106.484 9.46484L105.277 9.61719C104.699 9.51562 104.305 9.46484 104.094 9.46484H104L102.945 9.54688C101.602 9.46094 100.93 9.08984 100.93 8.43359C100.93 8.13672 101.188 7.80859 101.703 7.44922C101.992 7.33984 102.355 7.28516 102.793 7.28516Z" fill="#1A1A1A"/>
<path d="M113.621 7.28516C113.754 7.28516 114.09 7.33594 114.629 7.4375L114.922 7.46094L115.953 7.34375L117.043 7.47266H117.137C117.223 7.47266 117.508 7.42969 117.992 7.34375H118.25L119.234 7.49609H119.328C119.484 7.49609 119.746 7.46094 120.113 7.39062L120.359 7.35547L121.039 7.40234L121.637 7.44922C122.129 7.50391 122.496 7.75391 122.738 8.19922L122.809 8.41016C122.801 8.91016 122.477 9.26172 121.836 9.46484L120.512 9.59375L119.527 9.51172L118.391 9.57031L117.312 9.46484L116.105 9.61719C115.527 9.51562 115.133 9.46484 114.922 9.46484H114.828L113.773 9.54688C112.43 9.46094 111.758 9.08984 111.758 8.43359C111.758 8.13672 112.016 7.80859 112.531 7.44922C112.82 7.33984 113.184 7.28516 113.621 7.28516Z" fill="#1A1A1A"/>
<path d="M124.449 7.28516C124.582 7.28516 124.918 7.33594 125.457 7.4375L125.75 7.46094L126.781 7.34375L127.871 7.47266H127.965C128.051 7.47266 128.336 7.42969 128.82 7.34375H129.078L130.062 7.49609H130.156C130.312 7.49609 130.574 7.46094 130.941 7.39062L131.188 7.35547L131.867 7.40234L132.465 7.44922C132.957 7.50391 133.324 7.75391 133.566 8.19922L133.637 8.41016C133.629 8.91016 133.305 9.26172 132.664 9.46484L131.34 9.59375L130.355 9.51172L129.219 9.57031L128.141 9.46484L126.934 9.61719C126.355 9.51562 125.961 9.46484 125.75 9.46484H125.656L124.602 9.54688C123.258 9.46094 122.586 9.08984 122.586 8.43359C122.586 8.13672 122.844 7.80859 123.359 7.44922C123.648 7.33984 124.012 7.28516 124.449 7.28516Z" fill="#1A1A1A"/>
<path d="M135.277 7.28516C135.41 7.28516 135.746 7.33594 136.285 7.4375L136.578 7.46094L137.609 7.34375L138.699 7.47266H138.793C138.879 7.47266 139.164 7.42969 139.648 7.34375H139.906L140.891 7.49609H140.984C141.141 7.49609 141.402 7.46094 141.77 7.39062L142.016 7.35547L142.695 7.40234L143.293 7.44922C143.785 7.50391 144.152 7.75391 144.395 8.19922L144.465 8.41016C144.457 8.91016 144.133 9.26172 143.492 9.46484L142.168 9.59375L141.184 9.51172L140.047 9.57031L138.969 9.46484L137.762 9.61719C137.184 9.51562 136.789 9.46484 136.578 9.46484H136.484L135.43 9.54688C134.086 9.46094 133.414 9.08984 133.414 8.43359C133.414 8.13672 133.672 7.80859 134.188 7.44922C134.477 7.33984 134.84 7.28516 135.277 7.28516Z" fill="#1A1A1A"/>
<path d="M146.105 7.28516C146.238 7.28516 146.574 7.33594 147.113 7.4375L147.406 7.46094L148.438 7.34375L149.527 7.47266H149.621C149.707 7.47266 149.992 7.42969 150.477 7.34375H150.734L151.719 7.49609H151.812C151.969 7.49609 152.23 7.46094 152.598 7.39062L152.844 7.35547L153.523 7.40234L154.121 7.44922C154.613 7.50391 154.98 7.75391 155.223 8.19922L155.293 8.41016C155.285 8.91016 154.961 9.26172 154.32 9.46484L152.996 9.59375L152.012 9.51172L150.875 9.57031L149.797 9.46484L148.59 9.61719C148.012 9.51562 147.617 9.46484 147.406 9.46484H147.312L146.258 9.54688C144.914 9.46094 144.242 9.08984 144.242 8.43359C144.242 8.13672 144.5 7.80859 145.016 7.44922C145.305 7.33984 145.668 7.28516 146.105 7.28516Z" fill="#1A1A1A"/>
<path d="M156.934 7.28516C157.066 7.28516 157.402 7.33594 157.941 7.4375L158.234 7.46094L159.266 7.34375L160.355 7.47266H160.449C160.535 7.47266 160.82 7.42969 161.305 7.34375H161.562L162.547 7.49609H162.641C162.797 7.49609 163.059 7.46094 163.426 7.39062L163.672 7.35547L164.352 7.40234L164.949 7.44922C165.441 7.50391 165.809 7.75391 166.051 8.19922L166.121 8.41016C166.113 8.91016 165.789 9.26172 165.148 9.46484L163.824 9.59375L162.84 9.51172L161.703 9.57031L160.625 9.46484L159.418 9.61719C158.84 9.51562 158.445 9.46484 158.234 9.46484H158.141L157.086 9.54688C155.742 9.46094 155.07 9.08984 155.07 8.43359C155.07 8.13672 155.328 7.80859 155.844 7.44922C156.133 7.33984 156.496 7.28516 156.934 7.28516Z" fill="#1A1A1A"/>
<path d="M167.762 7.28516C167.895 7.28516 168.23 7.33594 168.77 7.4375L169.062 7.46094L170.094 7.34375L171.184 7.47266H171.277C171.363 7.47266 171.648 7.42969 172.133 7.34375H172.391L173.375 7.49609H173.469C173.625 7.49609 173.887 7.46094 174.254 7.39062L174.5 7.35547L175.18 7.40234L175.777 7.44922C176.27 7.50391 176.637 7.75391 176.879 8.19922L176.949 8.41016C176.941 8.91016 176.617 9.26172 175.977 9.46484L174.652 9.59375L173.668 9.51172L172.531 9.57031L171.453 9.46484L170.246 9.61719C169.668 9.51562 169.273 9.46484 169.062 9.46484H168.969L167.914 9.54688C166.57 9.46094 165.898 9.08984 165.898 8.43359C165.898 8.13672 166.156 7.80859 166.672 7.44922C166.961 7.33984 167.324 7.28516 167.762 7.28516Z" fill="#1A1A1A"/>
<path d="M178.59 7.28516C178.723 7.28516 179.059 7.33594 179.598 7.4375L179.891 7.46094L180.922 7.34375L182.012 7.47266H182.105C182.191 7.47266 182.477 7.42969 182.961 7.34375H183.219L184.203 7.49609H184.297C184.453 7.49609 184.715 7.46094 185.082 7.39062L185.328 7.35547L186.008 7.40234L186.605 7.44922C187.098 7.50391 187.465 7.75391 187.707 8.19922L187.777 8.41016C187.77 8.91016 187.445 9.26172 186.805 9.46484L185.48 9.59375L184.496 9.51172L183.359 9.57031L182.281 9.46484L181.074 9.61719C180.496 9.51562 180.102 9.46484 179.891 9.46484H179.797L178.742 9.54688C177.398 9.46094 176.727 9.08984 176.727 8.43359C176.727 8.13672 176.984 7.80859 177.5 7.44922C177.789 7.33984 178.152 7.28516 178.59 7.28516Z" fill="#1A1A1A"/>
<path d="M189.418 7.28516C189.551 7.28516 189.887 7.33594 190.426 7.4375L190.719 7.46094L191.75 7.34375L192.84 7.47266H192.934C193.02 7.47266 193.305 7.42969 193.789 7.34375H194.047L195.031 7.49609H195.125C195.281 7.49609 195.543 7.46094 195.91 7.39062L196.156 7.35547L196.836 7.40234L197.434 7.44922C197.926 7.50391 198.293 7.75391 198.535 8.19922L198.605 8.41016C198.598 8.91016 198.273 9.26172 197.633 9.46484L196.309 9.59375L195.324 9.51172L194.188 9.57031L193.109 9.46484L191.902 9.61719C191.324 9.51562 190.93 9.46484 190.719 9.46484H190.625L189.57 9.54688C188.227 9.46094 187.555 9.08984 187.555 8.43359C187.555 8.13672 187.812 7.80859 188.328 7.44922C188.617 7.33984 188.98 7.28516 189.418 7.28516Z" fill="#1A1A1A"/>
<path d="M200.246 7.28516C200.379 7.28516 200.715 7.33594 201.254 7.4375L201.547 7.46094L202.578 7.34375L203.668 7.47266H203.762C203.848 7.47266 204.133 7.42969 204.617 7.34375H204.875L205.859 7.49609H205.953C206.109 7.49609 206.371 7.46094 206.738 7.39062L206.984 7.35547L207.664 7.40234L208.262 7.44922C208.754 7.50391 209.121 7.75391 209.363 8.19922L209.434 8.41016C209.426 8.91016 209.102 9.26172 208.461 9.46484L207.137 9.59375L206.152 9.51172L205.016 9.57031L203.938 9.46484L202.73 9.61719C202.152 9.51562 201.758 9.46484 201.547 9.46484H201.453L200.398 9.54688C199.055 9.46094 198.383 9.08984 198.383 8.43359C198.383 8.13672 198.641 7.80859 199.156 7.44922C199.445 7.33984 199.809 7.28516 200.246 7.28516Z" fill="#1A1A1A"/>
<path d="M211.074 7.28516C211.207 7.28516 211.543 7.33594 212.082 7.4375L212.375 7.46094L213.406 7.34375L214.496 7.47266H214.59C214.676 7.47266 214.961 7.42969 215.445 7.34375H215.703L216.688 7.49609H216.781C216.938 7.49609 217.199 7.46094 217.566 7.39062L217.812 7.35547L218.492 7.40234L219.09 7.44922C219.582 7.50391 219.949 7.75391 220.191 8.19922L220.262 8.41016C220.254 8.91016 219.93 9.26172 219.289 9.46484L217.965 9.59375L216.98 9.51172L215.844 9.57031L214.766 9.46484L213.559 9.61719C212.98 9.51562 212.586 9.46484 212.375 9.46484H212.281L211.227 9.54688C209.883 9.46094 209.211 9.08984 209.211 8.43359C209.211 8.13672 209.469 7.80859 209.984 7.44922C210.273 7.33984 210.637 7.28516 211.074 7.28516Z" fill="#1A1A1A"/>
<path d="M221.902 7.28516C222.035 7.28516 222.371 7.33594 222.91 7.4375L223.203 7.46094L224.234 7.34375L225.324 7.47266H225.418C225.504 7.47266 225.789 7.42969 226.273 7.34375H226.531L227.516 7.49609H227.609C227.766 7.49609 228.027 7.46094 228.395 7.39062L228.641 7.35547L229.32 7.40234L229.918 7.44922C230.41 7.50391 230.777 7.75391 231.02 8.19922L231.09 8.41016C231.082 8.91016 230.758 9.26172 230.117 9.46484L228.793 9.59375L227.809 9.51172L226.672 9.57031L225.594 9.46484L224.387 9.61719C223.809 9.51562 223.414 9.46484 223.203 9.46484H223.109L222.055 9.54688C220.711 9.46094 220.039 9.08984 220.039 8.43359C220.039 8.13672 220.297 7.80859 220.812 7.44922C221.102 7.33984 221.465 7.28516 221.902 7.28516Z" fill="#1A1A1A"/>
<path d="M232.73 7.28516C232.863 7.28516 233.199 7.33594 233.738 7.4375L234.031 7.46094L235.062 7.34375L236.152 7.47266H236.246C236.332 7.47266 236.617 7.42969 237.102 7.34375H237.359L238.344 7.49609H238.438C238.594 7.49609 238.855 7.46094 239.223 7.39062L239.469 7.35547L240.148 7.40234L240.746 7.44922C241.238 7.50391 241.605 7.75391 241.848 8.19922L241.918 8.41016C241.91 8.91016 241.586 9.26172 240.945 9.46484L239.621 9.59375L238.637 9.51172L237.5 9.57031L236.422 9.46484L235.215 9.61719C234.637 9.51562 234.242 9.46484 234.031 9.46484H233.938L232.883 9.54688C231.539 9.46094 230.867 9.08984 230.867 8.43359C230.867 8.13672 231.125 7.80859 231.641 7.44922C231.93 7.33984 232.293 7.28516 232.73 7.28516Z" fill="#1A1A1A"/>
<path d="M248.703 8.9375C248.797 9.375 248.91 9.74219 249.043 10.0391C249.184 10.3281 249.395 10.5859 249.676 10.8125C249.957 11.0312 250.129 11.1406 250.191 11.1406C250.559 10.8516 250.832 10.4727 251.012 10.0039C251.285 9.43359 251.492 8.98047 251.633 8.64453C251.859 8.27734 252.09 7.98438 252.324 7.76562C252.598 7.42188 253.059 7.25 253.707 7.25C254.348 7.35156 254.773 7.79688 254.984 8.58594V8.72656C254.883 9.14062 254.664 9.35938 254.328 9.38281H254.258C254 9.38281 253.691 9.28906 253.332 9.10156H253.238C253.059 9.125 252.859 9.33203 252.641 9.72266C252.484 10.0586 252.297 10.4805 252.078 10.9883C251.961 11.3945 251.766 12.0195 251.492 12.8633C251.836 13.7773 252.406 14.3945 253.203 14.7148L253.496 14.7852C253.91 14.7695 254.129 14.5664 254.152 14.1758C254.184 13.7773 254.254 13.4922 254.363 13.3203C254.48 13.1484 254.68 13.0352 254.961 12.9805L255.066 12.9453C255.613 13 255.953 13.3477 256.086 13.9883V14.2344C256.086 15.0938 255.934 15.6953 255.629 16.0391C255.09 16.6094 254.562 16.8945 254.047 16.8945C253.867 16.9102 253.699 16.918 253.543 16.918C252.879 16.918 252.383 16.7695 252.055 16.4727C251.922 16.418 251.387 15.9805 250.449 15.1602C250.387 15.1211 250.328 15.1016 250.273 15.1016C250.188 15.1016 250.105 15.1406 250.027 15.2188L249.594 15.6055L248.938 16.1445C248.5 16.4961 247.859 16.7188 247.016 16.8125L246.453 16.8008C245.18 16.6914 244.227 16.2227 243.594 15.3945C243.445 15.168 243.309 14.9922 243.184 14.8672C242.918 14.4453 242.762 13.9141 242.715 13.2734C242.707 13.1406 242.703 13.0078 242.703 12.875C242.703 12.3516 242.773 11.8008 242.914 11.2227C243.289 10.2227 244.016 9.26953 245.094 8.36328H245.117C245.266 8.25391 245.508 8.09375 245.844 7.88281L246.57 7.22656C246.609 7.16406 246.629 7.07422 246.629 6.95703C246.629 6.88672 246.621 6.80859 246.605 6.72266L246.125 4.41406C246.109 4.17188 246.102 3.94922 246.102 3.74609C246.102 3.30078 246.141 2.93359 246.219 2.64453C246.344 2.23047 246.457 1.97656 246.559 1.88281C246.98 1.28125 247.539 0.945312 248.234 0.875C248.367 0.859375 248.5 0.851562 248.633 0.851562C249.148 0.851562 249.633 0.953125 250.086 1.15625C250.609 1.46094 250.961 1.76172 251.141 2.05859L251.398 2.44531L251.645 3.14844L251.715 3.67578L251.691 4.17969C251.66 4.74219 251.477 5.25 251.141 5.70312C250.82 6.21875 250.391 6.66797 249.852 7.05078C249.086 7.77734 248.68 8.19922 248.633 8.31641C248.617 8.33203 248.609 8.35938 248.609 8.39844C248.609 8.52344 248.641 8.70312 248.703 8.9375ZM245.785 10.2031C245.387 10.5859 245.023 11.1367 244.695 11.8555L244.59 12.2539C244.582 12.3711 244.578 12.4922 244.578 12.6172C244.578 12.9688 244.621 13.3008 244.707 13.6133C244.801 13.9727 245.062 14.3516 245.492 14.75C245.945 14.9688 246.32 15.0781 246.617 15.0781C246.672 15.0781 246.789 15.0625 246.969 15.0312C247.156 14.9922 247.406 14.875 247.719 14.6797C248.461 14.0859 248.832 13.5859 248.832 13.1797C248.832 12.9062 248.625 12.5742 248.211 12.1836C247.805 11.7695 247.473 11.0391 247.215 9.99219C247.082 9.78125 246.957 9.67578 246.84 9.67578H246.641C246.602 9.67578 246.418 9.75391 246.09 9.91016C245.988 9.94922 245.887 10.0469 245.785 10.2031ZM249.535 4.92969C249.707 4.625 249.809 4.35547 249.84 4.12109C249.863 3.98047 249.875 3.84766 249.875 3.72266C249.875 3.62891 249.867 3.53906 249.852 3.45312C249.828 3.28906 249.719 3.05078 249.523 2.73828C249.266 2.54297 249.051 2.4375 248.879 2.42188H248.832C248.684 2.42188 248.559 2.45312 248.457 2.51562C248.363 2.57812 248.285 2.64453 248.223 2.71484C248.168 2.78516 248.129 2.87891 248.105 2.99609C248.082 3.10547 248.059 3.33984 248.035 3.69922V3.80469L248.059 4.29688V4.36719C248.059 4.69531 248.145 5.27344 248.316 6.10156C248.316 6.09375 248.395 6.03906 248.551 5.9375C248.855 5.71094 249.184 5.375 249.535 4.92969Z" fill="#1A1A1A"/>
</svg>
