<svg width="226" height="21" viewBox="0 0 226 21" fill="none" xmlns="http://www.w3.org/2000/svg">
<path d="M10.9531 5.96875C10.4531 6.03125 10.0234 6.13281 9.66406 6.27344C8.9375 6.52344 8.36719 6.96875 7.95312 7.60938C7.35938 8.86719 7.03125 10.1367 6.96875 11.418V11.4648C6.96875 12.2852 7.32422 12.8633 8.03516 13.1992L8.64453 13.2344H8.72656C9.09375 13.2344 9.47266 13.1367 9.86328 12.9414C10.2539 12.7383 10.6406 12.4609 11.0234 12.1094C11.6172 11.4688 11.9141 10.8438 11.9141 10.2344V10.1172L12.6406 7.04688V6.90625C12.6875 6.78125 12.7109 6.67969 12.7109 6.60156V6.54297C12.7109 6.30078 12.6055 6.16406 12.3945 6.13281L11.9844 6.03906L10.9531 5.96875ZM2.99609 7.49219C2.94141 7.76562 2.84766 8.13672 2.71484 8.60547L2.35156 9.58984V9.85938L2.48047 10.9375L2.35156 11.8984C2.35156 12.1719 2.57031 12.7188 3.00781 13.5391C3.58594 14.3672 3.98828 14.9961 4.21484 15.4258C4.55078 15.9727 4.85547 16.3438 5.12891 16.5391C5.41016 16.7422 5.86328 17.0547 6.48828 17.4766C7.93359 17.9375 8.88281 18.168 9.33594 18.168C9.60156 18.168 10.3828 18.1016 11.6797 17.9688L12.6758 17.7227C13.1211 17.5977 13.6562 17.3789 14.2812 17.0664C14.6406 16.9414 14.9375 16.8789 15.1719 16.8789C15.6406 16.8789 15.8789 17.1055 15.8867 17.5586C15.832 18.1836 15.2383 18.7188 14.1055 19.1641C13.3008 19.5234 12.5195 19.7734 11.7617 19.9141L10.3672 20.1133C7.95312 20.1133 6.49219 19.9062 5.98438 19.4922C4.77344 18.9219 3.41016 17.7539 1.89453 15.9883C0.941406 14.0742 0.464844 12.3789 0.464844 10.9023V10.6445C0.503906 9.88672 0.589844 9.14453 0.722656 8.41797C0.863281 7.68359 1.20312 6.85938 1.74219 5.94531H1.76562C2.67969 4.6875 3.28125 4.05859 3.57031 4.05859H3.65234C3.87891 4.15234 3.99219 4.3125 3.99219 4.53906C3.99219 4.65625 3.96484 4.78906 3.91016 4.9375C3.78516 5.23438 3.48047 6.08594 2.99609 7.49219ZM14.6914 0.90625C15.4336 1.03906 15.9141 1.28125 16.1328 1.63281C16.4766 1.76562 16.8867 2.09766 17.3633 2.62891C18.9805 4.22266 19.8164 6.39453 19.8711 9.14453C19.5273 11.2383 19.0664 12.6367 18.4883 13.3398C17.918 14.043 17.4375 14.5742 17.0469 14.9336C16.4766 15.3945 15.9844 15.6758 15.5703 15.7773C15.375 15.832 15.1562 15.8594 14.9141 15.8594C14.6484 15.8594 14.3633 15.8281 14.0586 15.7656C13.793 15.7656 13.1914 15.3398 12.2539 14.4883L11.7266 14.4062L9.45312 15.0273L7.95312 15.0977C6.57812 14.8711 5.71094 14.2969 5.35156 13.375C5.17188 12.9219 5.03906 12.3516 4.95312 11.6641V11.582L5.11719 9.77734C5.36719 9.22266 5.58594 8.59766 5.77344 7.90234C5.96875 7.20703 6.4375 6.53125 7.17969 5.875C8.33594 5.07031 9.41016 4.64844 10.4023 4.60938L12.0547 4.48047L13.2031 4.52734H13.3086C13.6523 4.52734 13.9727 4.49219 14.2695 4.42188C14.6836 4.52344 14.9023 4.78125 14.9258 5.19531L14.6094 6.15625L14.5508 6.37891L14.5625 7.08203V7.29297L14.2227 8.67578L14.0938 9.51953C13.9922 10.1211 13.9414 10.5117 13.9414 10.6914C13.832 11.582 13.7773 12.1719 13.7773 12.4609C13.7773 12.6016 13.793 12.7422 13.8242 12.8828C13.9023 13.2812 14.3047 13.5234 15.0312 13.6094C15.5703 13.6094 16.1172 13.1914 16.6719 12.3555C17.2969 11.5586 17.75 10.4414 18.0312 9.00391C18.0703 8.76953 18.0898 8.51953 18.0898 8.25391C18.0898 7.91016 18.0625 7.54297 18.0078 7.15234C17.8203 6.49609 17.5977 5.83594 17.3398 5.17188C16.9023 4.57812 16.5312 4.09766 16.2266 3.73047C15.1328 2.87891 14.418 2.35156 14.082 2.14844C13.7695 2 13.5391 1.85156 13.3906 1.70312C13.25 1.54688 13.1797 1.42969 13.1797 1.35156C13.1562 1.34375 13.1445 1.28906 13.1445 1.1875C13.1445 0.992188 13.2539 0.855469 13.4727 0.777344C13.5195 0.761719 13.5859 0.753906 13.6719 0.753906C13.875 0.753906 14.2148 0.804688 14.6914 0.90625ZM11.2461 1.55078C10.1758 1.66016 9.59375 1.71875 9.5 1.72656C9.40625 1.72656 9.22266 1.75391 8.94922 1.80859C8.67578 1.86328 8.21094 2.01172 7.55469 2.25391C6.64062 2.73047 6.07031 3.05469 5.84375 3.22656C5.625 3.39844 5.37891 3.55469 5.10547 3.69531C4.98828 3.75781 4.88281 3.78906 4.78906 3.78906C4.5625 3.78906 4.44531 3.65625 4.4375 3.39062V3.33203C4.44531 3.05078 4.54297 2.73047 4.73047 2.37109C6.04297 1.02734 7.33984 0.3125 8.62109 0.226562L10.3672 0.109375H10.4141C10.8359 0.109375 11.2383 0.203125 11.6211 0.390625C12.0508 0.601562 12.2734 0.804688 12.2891 1V1.03516C12.2891 1.23047 12.1641 1.37109 11.9141 1.45703C11.7188 1.51953 11.4961 1.55078 11.2461 1.55078Z" fill="#1A1A1A"/>
<path d="M22.8008 6.28516C22.9336 6.28516 23.2695 6.33594 23.8086 6.4375L24.1016 6.46094L25.1328 6.34375L26.2227 6.47266H26.3164C26.4023 6.47266 26.6875 6.42969 27.1719 6.34375H27.4297L28.4141 6.49609H28.5078C28.6641 6.49609 28.9258 6.46094 29.293 6.39062L29.5391 6.35547L30.2188 6.40234L30.8164 6.44922C31.3086 6.50391 31.6758 6.75391 31.918 7.19922L31.9883 7.41016C31.9805 7.91016 31.6562 8.26172 31.0156 8.46484L29.6914 8.59375L28.707 8.51172L27.5703 8.57031L26.4922 8.46484L25.2852 8.61719C24.707 8.51562 24.3125 8.46484 24.1016 8.46484H24.0078L22.9531 8.54688C21.6094 8.46094 20.9375 8.08984 20.9375 7.43359C20.9375 7.13672 21.1953 6.80859 21.7109 6.44922C22 6.33984 22.3633 6.28516 22.8008 6.28516Z" fill="#1A1A1A"/>
<path d="M33.6289 6.28516C33.7617 6.28516 34.0977 6.33594 34.6367 6.4375L34.9297 6.46094L35.9609 6.34375L37.0508 6.47266H37.1445C37.2305 6.47266 37.5156 6.42969 38 6.34375H38.2578L39.2422 6.49609H39.3359C39.4922 6.49609 39.7539 6.46094 40.1211 6.39062L40.3672 6.35547L41.0469 6.40234L41.6445 6.44922C42.1367 6.50391 42.5039 6.75391 42.7461 7.19922L42.8164 7.41016C42.8086 7.91016 42.4844 8.26172 41.8438 8.46484L40.5195 8.59375L39.5352 8.51172L38.3984 8.57031L37.3203 8.46484L36.1133 8.61719C35.5352 8.51562 35.1406 8.46484 34.9297 8.46484H34.8359L33.7812 8.54688C32.4375 8.46094 31.7656 8.08984 31.7656 7.43359C31.7656 7.13672 32.0234 6.80859 32.5391 6.44922C32.8281 6.33984 33.1914 6.28516 33.6289 6.28516Z" fill="#1A1A1A"/>
<path d="M44.457 6.28516C44.5898 6.28516 44.9258 6.33594 45.4648 6.4375L45.7578 6.46094L46.7891 6.34375L47.8789 6.47266H47.9727C48.0586 6.47266 48.3438 6.42969 48.8281 6.34375H49.0859L50.0703 6.49609H50.1641C50.3203 6.49609 50.582 6.46094 50.9492 6.39062L51.1953 6.35547L51.875 6.40234L52.4727 6.44922C52.9648 6.50391 53.332 6.75391 53.5742 7.19922L53.6445 7.41016C53.6367 7.91016 53.3125 8.26172 52.6719 8.46484L51.3477 8.59375L50.3633 8.51172L49.2266 8.57031L48.1484 8.46484L46.9414 8.61719C46.3633 8.51562 45.9688 8.46484 45.7578 8.46484H45.6641L44.6094 8.54688C43.2656 8.46094 42.5938 8.08984 42.5938 7.43359C42.5938 7.13672 42.8516 6.80859 43.3672 6.44922C43.6562 6.33984 44.0195 6.28516 44.457 6.28516Z" fill="#1A1A1A"/>
<path d="M55.2852 6.28516C55.418 6.28516 55.7539 6.33594 56.293 6.4375L56.5859 6.46094L57.6172 6.34375L58.707 6.47266H58.8008C58.8867 6.47266 59.1719 6.42969 59.6562 6.34375H59.9141L60.8984 6.49609H60.9922C61.1484 6.49609 61.4102 6.46094 61.7773 6.39062L62.0234 6.35547L62.7031 6.40234L63.3008 6.44922C63.793 6.50391 64.1602 6.75391 64.4023 7.19922L64.4727 7.41016C64.4648 7.91016 64.1406 8.26172 63.5 8.46484L62.1758 8.59375L61.1914 8.51172L60.0547 8.57031L58.9766 8.46484L57.7695 8.61719C57.1914 8.51562 56.7969 8.46484 56.5859 8.46484H56.4922L55.4375 8.54688C54.0938 8.46094 53.4219 8.08984 53.4219 7.43359C53.4219 7.13672 53.6797 6.80859 54.1953 6.44922C54.4844 6.33984 54.8477 6.28516 55.2852 6.28516Z" fill="#1A1A1A"/>
<path d="M66.1133 6.28516C66.2461 6.28516 66.582 6.33594 67.1211 6.4375L67.4141 6.46094L68.4453 6.34375L69.5352 6.47266H69.6289C69.7148 6.47266 70 6.42969 70.4844 6.34375H70.7422L71.7266 6.49609H71.8203C71.9766 6.49609 72.2383 6.46094 72.6055 6.39062L72.8516 6.35547L73.5312 6.40234L74.1289 6.44922C74.6211 6.50391 74.9883 6.75391 75.2305 7.19922L75.3008 7.41016C75.293 7.91016 74.9688 8.26172 74.3281 8.46484L73.0039 8.59375L72.0195 8.51172L70.8828 8.57031L69.8047 8.46484L68.5977 8.61719C68.0195 8.51562 67.625 8.46484 67.4141 8.46484H67.3203L66.2656 8.54688C64.9219 8.46094 64.25 8.08984 64.25 7.43359C64.25 7.13672 64.5078 6.80859 65.0234 6.44922C65.3125 6.33984 65.6758 6.28516 66.1133 6.28516Z" fill="#1A1A1A"/>
<path d="M76.9414 6.28516C77.0742 6.28516 77.4102 6.33594 77.9492 6.4375L78.2422 6.46094L79.2734 6.34375L80.3633 6.47266H80.457C80.543 6.47266 80.8281 6.42969 81.3125 6.34375H81.5703L82.5547 6.49609H82.6484C82.8047 6.49609 83.0664 6.46094 83.4336 6.39062L83.6797 6.35547L84.3594 6.40234L84.957 6.44922C85.4492 6.50391 85.8164 6.75391 86.0586 7.19922L86.1289 7.41016C86.1211 7.91016 85.7969 8.26172 85.1562 8.46484L83.832 8.59375L82.8477 8.51172L81.7109 8.57031L80.6328 8.46484L79.4258 8.61719C78.8477 8.51562 78.4531 8.46484 78.2422 8.46484H78.1484L77.0938 8.54688C75.75 8.46094 75.0781 8.08984 75.0781 7.43359C75.0781 7.13672 75.3359 6.80859 75.8516 6.44922C76.1406 6.33984 76.5039 6.28516 76.9414 6.28516Z" fill="#1A1A1A"/>
<path d="M87.7695 6.28516C87.9023 6.28516 88.2383 6.33594 88.7773 6.4375L89.0703 6.46094L90.1016 6.34375L91.1914 6.47266H91.2852C91.3711 6.47266 91.6562 6.42969 92.1406 6.34375H92.3984L93.3828 6.49609H93.4766C93.6328 6.49609 93.8945 6.46094 94.2617 6.39062L94.5078 6.35547L95.1875 6.40234L95.7852 6.44922C96.2773 6.50391 96.6445 6.75391 96.8867 7.19922L96.957 7.41016C96.9492 7.91016 96.625 8.26172 95.9844 8.46484L94.6602 8.59375L93.6758 8.51172L92.5391 8.57031L91.4609 8.46484L90.2539 8.61719C89.6758 8.51562 89.2812 8.46484 89.0703 8.46484H88.9766L87.9219 8.54688C86.5781 8.46094 85.9062 8.08984 85.9062 7.43359C85.9062 7.13672 86.1641 6.80859 86.6797 6.44922C86.9688 6.33984 87.332 6.28516 87.7695 6.28516Z" fill="#1A1A1A"/>
<path d="M98.5977 6.28516C98.7305 6.28516 99.0664 6.33594 99.6055 6.4375L99.8984 6.46094L100.93 6.34375L102.02 6.47266H102.113C102.199 6.47266 102.484 6.42969 102.969 6.34375H103.227L104.211 6.49609H104.305C104.461 6.49609 104.723 6.46094 105.09 6.39062L105.336 6.35547L106.016 6.40234L106.613 6.44922C107.105 6.50391 107.473 6.75391 107.715 7.19922L107.785 7.41016C107.777 7.91016 107.453 8.26172 106.812 8.46484L105.488 8.59375L104.504 8.51172L103.367 8.57031L102.289 8.46484L101.082 8.61719C100.504 8.51562 100.109 8.46484 99.8984 8.46484H99.8047L98.75 8.54688C97.4062 8.46094 96.7344 8.08984 96.7344 7.43359C96.7344 7.13672 96.9922 6.80859 97.5078 6.44922C97.7969 6.33984 98.1602 6.28516 98.5977 6.28516Z" fill="#1A1A1A"/>
<path d="M109.426 6.28516C109.559 6.28516 109.895 6.33594 110.434 6.4375L110.727 6.46094L111.758 6.34375L112.848 6.47266H112.941C113.027 6.47266 113.312 6.42969 113.797 6.34375H114.055L115.039 6.49609H115.133C115.289 6.49609 115.551 6.46094 115.918 6.39062L116.164 6.35547L116.844 6.40234L117.441 6.44922C117.934 6.50391 118.301 6.75391 118.543 7.19922L118.613 7.41016C118.605 7.91016 118.281 8.26172 117.641 8.46484L116.316 8.59375L115.332 8.51172L114.195 8.57031L113.117 8.46484L111.91 8.61719C111.332 8.51562 110.938 8.46484 110.727 8.46484H110.633L109.578 8.54688C108.234 8.46094 107.562 8.08984 107.562 7.43359C107.562 7.13672 107.82 6.80859 108.336 6.44922C108.625 6.33984 108.988 6.28516 109.426 6.28516Z" fill="#1A1A1A"/>
<path d="M120.254 6.28516C120.387 6.28516 120.723 6.33594 121.262 6.4375L121.555 6.46094L122.586 6.34375L123.676 6.47266H123.77C123.855 6.47266 124.141 6.42969 124.625 6.34375H124.883L125.867 6.49609H125.961C126.117 6.49609 126.379 6.46094 126.746 6.39062L126.992 6.35547L127.672 6.40234L128.27 6.44922C128.762 6.50391 129.129 6.75391 129.371 7.19922L129.441 7.41016C129.434 7.91016 129.109 8.26172 128.469 8.46484L127.145 8.59375L126.16 8.51172L125.023 8.57031L123.945 8.46484L122.738 8.61719C122.16 8.51562 121.766 8.46484 121.555 8.46484H121.461L120.406 8.54688C119.062 8.46094 118.391 8.08984 118.391 7.43359C118.391 7.13672 118.648 6.80859 119.164 6.44922C119.453 6.33984 119.816 6.28516 120.254 6.28516Z" fill="#1A1A1A"/>
<path d="M131.082 6.28516C131.215 6.28516 131.551 6.33594 132.09 6.4375L132.383 6.46094L133.414 6.34375L134.504 6.47266H134.598C134.684 6.47266 134.969 6.42969 135.453 6.34375H135.711L136.695 6.49609H136.789C136.945 6.49609 137.207 6.46094 137.574 6.39062L137.82 6.35547L138.5 6.40234L139.098 6.44922C139.59 6.50391 139.957 6.75391 140.199 7.19922L140.27 7.41016C140.262 7.91016 139.938 8.26172 139.297 8.46484L137.973 8.59375L136.988 8.51172L135.852 8.57031L134.773 8.46484L133.566 8.61719C132.988 8.51562 132.594 8.46484 132.383 8.46484H132.289L131.234 8.54688C129.891 8.46094 129.219 8.08984 129.219 7.43359C129.219 7.13672 129.477 6.80859 129.992 6.44922C130.281 6.33984 130.645 6.28516 131.082 6.28516Z" fill="#1A1A1A"/>
<path d="M141.91 6.28516C142.043 6.28516 142.379 6.33594 142.918 6.4375L143.211 6.46094L144.242 6.34375L145.332 6.47266H145.426C145.512 6.47266 145.797 6.42969 146.281 6.34375H146.539L147.523 6.49609H147.617C147.773 6.49609 148.035 6.46094 148.402 6.39062L148.648 6.35547L149.328 6.40234L149.926 6.44922C150.418 6.50391 150.785 6.75391 151.027 7.19922L151.098 7.41016C151.09 7.91016 150.766 8.26172 150.125 8.46484L148.801 8.59375L147.816 8.51172L146.68 8.57031L145.602 8.46484L144.395 8.61719C143.816 8.51562 143.422 8.46484 143.211 8.46484H143.117L142.062 8.54688C140.719 8.46094 140.047 8.08984 140.047 7.43359C140.047 7.13672 140.305 6.80859 140.82 6.44922C141.109 6.33984 141.473 6.28516 141.91 6.28516Z" fill="#1A1A1A"/>
<path d="M152.738 6.28516C152.871 6.28516 153.207 6.33594 153.746 6.4375L154.039 6.46094L155.07 6.34375L156.16 6.47266H156.254C156.34 6.47266 156.625 6.42969 157.109 6.34375H157.367L158.352 6.49609H158.445C158.602 6.49609 158.863 6.46094 159.23 6.39062L159.477 6.35547L160.156 6.40234L160.754 6.44922C161.246 6.50391 161.613 6.75391 161.855 7.19922L161.926 7.41016C161.918 7.91016 161.594 8.26172 160.953 8.46484L159.629 8.59375L158.645 8.51172L157.508 8.57031L156.43 8.46484L155.223 8.61719C154.645 8.51562 154.25 8.46484 154.039 8.46484H153.945L152.891 8.54688C151.547 8.46094 150.875 8.08984 150.875 7.43359C150.875 7.13672 151.133 6.80859 151.648 6.44922C151.938 6.33984 152.301 6.28516 152.738 6.28516Z" fill="#1A1A1A"/>
<path d="M163.566 6.28516C163.699 6.28516 164.035 6.33594 164.574 6.4375L164.867 6.46094L165.898 6.34375L166.988 6.47266H167.082C167.168 6.47266 167.453 6.42969 167.938 6.34375H168.195L169.18 6.49609H169.273C169.43 6.49609 169.691 6.46094 170.059 6.39062L170.305 6.35547L170.984 6.40234L171.582 6.44922C172.074 6.50391 172.441 6.75391 172.684 7.19922L172.754 7.41016C172.746 7.91016 172.422 8.26172 171.781 8.46484L170.457 8.59375L169.473 8.51172L168.336 8.57031L167.258 8.46484L166.051 8.61719C165.473 8.51562 165.078 8.46484 164.867 8.46484H164.773L163.719 8.54688C162.375 8.46094 161.703 8.08984 161.703 7.43359C161.703 7.13672 161.961 6.80859 162.477 6.44922C162.766 6.33984 163.129 6.28516 163.566 6.28516Z" fill="#1A1A1A"/>
<path d="M174.395 6.28516C174.527 6.28516 174.863 6.33594 175.402 6.4375L175.695 6.46094L176.727 6.34375L177.816 6.47266H177.91C177.996 6.47266 178.281 6.42969 178.766 6.34375H179.023L180.008 6.49609H180.102C180.258 6.49609 180.52 6.46094 180.887 6.39062L181.133 6.35547L181.812 6.40234L182.41 6.44922C182.902 6.50391 183.27 6.75391 183.512 7.19922L183.582 7.41016C183.574 7.91016 183.25 8.26172 182.609 8.46484L181.285 8.59375L180.301 8.51172L179.164 8.57031L178.086 8.46484L176.879 8.61719C176.301 8.51562 175.906 8.46484 175.695 8.46484H175.602L174.547 8.54688C173.203 8.46094 172.531 8.08984 172.531 7.43359C172.531 7.13672 172.789 6.80859 173.305 6.44922C173.594 6.33984 173.957 6.28516 174.395 6.28516Z" fill="#1A1A1A"/>
<path d="M185.223 6.28516C185.355 6.28516 185.691 6.33594 186.23 6.4375L186.523 6.46094L187.555 6.34375L188.645 6.47266H188.738C188.824 6.47266 189.109 6.42969 189.594 6.34375H189.852L190.836 6.49609H190.93C191.086 6.49609 191.348 6.46094 191.715 6.39062L191.961 6.35547L192.641 6.40234L193.238 6.44922C193.73 6.50391 194.098 6.75391 194.34 7.19922L194.41 7.41016C194.402 7.91016 194.078 8.26172 193.438 8.46484L192.113 8.59375L191.129 8.51172L189.992 8.57031L188.914 8.46484L187.707 8.61719C187.129 8.51562 186.734 8.46484 186.523 8.46484H186.43L185.375 8.54688C184.031 8.46094 183.359 8.08984 183.359 7.43359C183.359 7.13672 183.617 6.80859 184.133 6.44922C184.422 6.33984 184.785 6.28516 185.223 6.28516Z" fill="#1A1A1A"/>
<path d="M196.051 6.28516C196.184 6.28516 196.52 6.33594 197.059 6.4375L197.352 6.46094L198.383 6.34375L199.473 6.47266H199.566C199.652 6.47266 199.938 6.42969 200.422 6.34375H200.68L201.664 6.49609H201.758C201.914 6.49609 202.176 6.46094 202.543 6.39062L202.789 6.35547L203.469 6.40234L204.066 6.44922C204.559 6.50391 204.926 6.75391 205.168 7.19922L205.238 7.41016C205.23 7.91016 204.906 8.26172 204.266 8.46484L202.941 8.59375L201.957 8.51172L200.82 8.57031L199.742 8.46484L198.535 8.61719C197.957 8.51562 197.562 8.46484 197.352 8.46484H197.258L196.203 8.54688C194.859 8.46094 194.188 8.08984 194.188 7.43359C194.188 7.13672 194.445 6.80859 194.961 6.44922C195.25 6.33984 195.613 6.28516 196.051 6.28516Z" fill="#1A1A1A"/>
<path d="M216.852 5.96875C216.352 6.03125 215.922 6.13281 215.562 6.27344C214.836 6.52344 214.266 6.96875 213.852 7.60938C213.258 8.86719 212.93 10.1367 212.867 11.418V11.4648C212.867 12.2852 213.223 12.8633 213.934 13.1992L214.543 13.2344H214.625C214.992 13.2344 215.371 13.1367 215.762 12.9414C216.152 12.7383 216.539 12.4609 216.922 12.1094C217.516 11.4688 217.812 10.8438 217.812 10.2344V10.1172L218.539 7.04688V6.90625C218.586 6.78125 218.609 6.67969 218.609 6.60156V6.54297C218.609 6.30078 218.504 6.16406 218.293 6.13281L217.883 6.03906L216.852 5.96875ZM208.895 7.49219C208.84 7.76562 208.746 8.13672 208.613 8.60547L208.25 9.58984V9.85938L208.379 10.9375L208.25 11.8984C208.25 12.1719 208.469 12.7188 208.906 13.5391C209.484 14.3672 209.887 14.9961 210.113 15.4258C210.449 15.9727 210.754 16.3438 211.027 16.5391C211.309 16.7422 211.762 17.0547 212.387 17.4766C213.832 17.9375 214.781 18.168 215.234 18.168C215.5 18.168 216.281 18.1016 217.578 17.9688L218.574 17.7227C219.02 17.5977 219.555 17.3789 220.18 17.0664C220.539 16.9414 220.836 16.8789 221.07 16.8789C221.539 16.8789 221.777 17.1055 221.785 17.5586C221.73 18.1836 221.137 18.7188 220.004 19.1641C219.199 19.5234 218.418 19.7734 217.66 19.9141L216.266 20.1133C213.852 20.1133 212.391 19.9062 211.883 19.4922C210.672 18.9219 209.309 17.7539 207.793 15.9883C206.84 14.0742 206.363 12.3789 206.363 10.9023V10.6445C206.402 9.88672 206.488 9.14453 206.621 8.41797C206.762 7.68359 207.102 6.85938 207.641 5.94531H207.664C208.578 4.6875 209.18 4.05859 209.469 4.05859H209.551C209.777 4.15234 209.891 4.3125 209.891 4.53906C209.891 4.65625 209.863 4.78906 209.809 4.9375C209.684 5.23438 209.379 6.08594 208.895 7.49219ZM220.59 0.90625C221.332 1.03906 221.812 1.28125 222.031 1.63281C222.375 1.76562 222.785 2.09766 223.262 2.62891C224.879 4.22266 225.715 6.39453 225.77 9.14453C225.426 11.2383 224.965 12.6367 224.387 13.3398C223.816 14.043 223.336 14.5742 222.945 14.9336C222.375 15.3945 221.883 15.6758 221.469 15.7773C221.273 15.832 221.055 15.8594 220.812 15.8594C220.547 15.8594 220.262 15.8281 219.957 15.7656C219.691 15.7656 219.09 15.3398 218.152 14.4883L217.625 14.4062L215.352 15.0273L213.852 15.0977C212.477 14.8711 211.609 14.2969 211.25 13.375C211.07 12.9219 210.938 12.3516 210.852 11.6641V11.582L211.016 9.77734C211.266 9.22266 211.484 8.59766 211.672 7.90234C211.867 7.20703 212.336 6.53125 213.078 5.875C214.234 5.07031 215.309 4.64844 216.301 4.60938L217.953 4.48047L219.102 4.52734H219.207C219.551 4.52734 219.871 4.49219 220.168 4.42188C220.582 4.52344 220.801 4.78125 220.824 5.19531L220.508 6.15625L220.449 6.37891L220.461 7.08203V7.29297L220.121 8.67578L219.992 9.51953C219.891 10.1211 219.84 10.5117 219.84 10.6914C219.73 11.582 219.676 12.1719 219.676 12.4609C219.676 12.6016 219.691 12.7422 219.723 12.8828C219.801 13.2812 220.203 13.5234 220.93 13.6094C221.469 13.6094 222.016 13.1914 222.57 12.3555C223.195 11.5586 223.648 10.4414 223.93 9.00391C223.969 8.76953 223.988 8.51953 223.988 8.25391C223.988 7.91016 223.961 7.54297 223.906 7.15234C223.719 6.49609 223.496 5.83594 223.238 5.17188C222.801 4.57812 222.43 4.09766 222.125 3.73047C221.031 2.87891 220.316 2.35156 219.98 2.14844C219.668 2 219.438 1.85156 219.289 1.70312C219.148 1.54688 219.078 1.42969 219.078 1.35156C219.055 1.34375 219.043 1.28906 219.043 1.1875C219.043 0.992188 219.152 0.855469 219.371 0.777344C219.418 0.761719 219.484 0.753906 219.57 0.753906C219.773 0.753906 220.113 0.804688 220.59 0.90625ZM217.145 1.55078C216.074 1.66016 215.492 1.71875 215.398 1.72656C215.305 1.72656 215.121 1.75391 214.848 1.80859C214.574 1.86328 214.109 2.01172 213.453 2.25391C212.539 2.73047 211.969 3.05469 211.742 3.22656C211.523 3.39844 211.277 3.55469 211.004 3.69531C210.887 3.75781 210.781 3.78906 210.688 3.78906C210.461 3.78906 210.344 3.65625 210.336 3.39062V3.33203C210.344 3.05078 210.441 2.73047 210.629 2.37109C211.941 1.02734 213.238 0.3125 214.52 0.226562L216.266 0.109375H216.312C216.734 0.109375 217.137 0.203125 217.52 0.390625C217.949 0.601562 218.172 0.804688 218.188 1V1.03516C218.188 1.23047 218.062 1.37109 217.812 1.45703C217.617 1.51953 217.395 1.55078 217.145 1.55078Z" fill="#1A1A1A"/>
</svg>
