<svg width="25" height="42" viewBox="0 0 25 42" fill="none" xmlns="http://www.w3.org/2000/svg">
<path d="M23.7533 1.73333C23.7533 2.84444 23.622 3.68889 23.3596 4.26667C23.0971 4.84444 22.7472 5.31111 22.3097 5.66667C21.8723 5.97778 21.3692 6.26667 20.8005 6.53333C20.2318 6.8 19.6632 7.2 19.0945 7.73333C18.8758 7.95556 18.5477 8.28889 18.1102 8.73333C17.6728 9.17778 17.2353 9.62222 16.7979 10.0667C16.4042 10.5111 16.0324 10.9111 15.6824 11.2667C15.3325 11.6222 15.1356 11.8667 15.0919 12C14.3482 12.8889 13.692 13.9111 13.1234 15.0667C12.5547 16.1778 12.2703 17.3111 12.2703 18.4667C12.2703 18.7333 12.2703 19.0444 12.2703 19.4C12.3141 19.7556 12.3797 20.1111 12.4672 20.4667C12.5547 20.7778 12.6859 21.0889 12.8609 21.4C13.0359 21.6667 13.2983 21.8667 13.6483 22C13.7358 22.0444 13.9326 22.0889 14.2388 22.1333C14.5451 22.1778 14.8731 22.2444 15.2231 22.3333C15.5731 22.3778 15.9011 22.4222 16.2073 22.4667C16.5136 22.5111 16.7104 22.5556 16.7979 22.6C18.0227 22.8222 18.9851 23.2667 19.685 23.9333C20.385 24.6 21.1286 25.3556 21.916 26.2C22.5284 27 23.0971 27.6222 23.622 28.0667C24.147 28.5111 24.6063 29.1556 25 30V32.2667C25 33.3333 24.9125 34.2667 24.7375 35.0667C24.6063 35.8222 24.3438 36.5111 23.9501 37.1333C23.5564 37.7111 23.0315 38.2222 22.3753 38.6667C21.7629 39.1111 20.9755 39.5556 20.0131 40C19.7069 40.1333 19.3132 40.3111 18.832 40.5333C18.3508 40.7111 17.8696 40.9111 17.3885 41.1333C16.951 41.3111 16.5354 41.4889 16.1417 41.6667C15.748 41.8444 15.5074 41.9556 15.4199 42H14.3045C13.692 42 12.8171 41.8222 11.6798 41.4667C10.5862 41.0667 9.44882 40.6 8.26772 40.0667C7.13036 39.4889 6.08049 38.8889 5.11811 38.2667C4.19948 37.6 3.58705 37 3.28084 36.4667C3.2371 36.4222 3.17148 36.2889 3.08399 36.0667C2.9965 35.8 2.88714 35.5333 2.75591 35.2667C2.66842 35 2.55906 34.7556 2.42782 34.5333C2.34033 34.3111 2.29659 34.1778 2.29659 34.1333C2.16535 33.7333 1.9685 33.2667 1.70604 32.7333C1.44357 32.1556 1.1811 31.5778 0.918635 31C0.656168 30.3778 0.437445 29.7778 0.262467 29.2C0.0874891 28.6222 0 28.1111 0 27.6667C0 27.0889 0.0874891 26.5333 0.262467 26C0.48119 25.4667 0.590551 24.9111 0.590551 24.3333C0.590551 23.7111 0.48119 23.1111 0.262467 22.5333C0.0874891 21.9111 0 21.2889 0 20.6667C0 19.7778 0.0218723 19 0.0656168 18.3333C0.109361 17.6667 0.240595 16.9333 0.459318 16.1333C0.546807 16.0444 0.634296 15.9556 0.721785 15.8667C0.853018 15.7333 0.96238 15.6667 1.04987 15.6667C1.70604 14.2444 2.42782 12.7333 3.21522 11.1333C4.00262 9.53333 4.94313 8.13333 6.03675 6.93333C6.21172 6.66667 6.45232 6.4 6.75853 6.13333C7.06474 5.86667 7.34908 5.6 7.61155 5.33333C7.91776 5.02222 8.15836 4.68889 8.33333 4.33333C8.55206 3.97778 8.66142 3.57778 8.66142 3.13333C8.74891 3.08889 8.92389 3.04444 9.18635 3C9.44882 2.91111 9.71129 2.82222 9.97375 2.73333C10.28 2.64444 10.5424 2.55556 10.7612 2.46667C11.0236 2.37778 11.2205 2.33333 11.3517 2.33333C11.4392 2.33333 11.6142 2.31111 11.8766 2.26667C12.1391 2.22222 12.4016 2.17778 12.664 2.13333C12.9703 2.04444 13.2546 1.97778 13.5171 1.93333C13.8233 1.88889 14.0201 1.86667 14.1076 1.86667C14.1514 1.82222 14.2607 1.75556 14.4357 1.66667C14.6544 1.57778 14.8513 1.48889 15.0262 1.4C15.245 1.26667 15.4418 1.15556 15.6168 1.06667C15.7918 0.977778 15.8793 0.888889 15.8793 0.8C16.0542 0.755556 16.3167 0.688889 16.6667 0.6C17.0604 0.511111 17.4541 0.422222 17.8478 0.333333C18.2415 0.244444 18.5914 0.177778 18.8976 0.133333C19.2476 0.0444444 19.4882 0 19.6194 0H22.7034C23.2283 0.0888889 23.5346 0.311111 23.622 0.666667C23.7095 1.02222 23.7533 1.37778 23.7533 1.73333Z" fill="#E1B833"/>
</svg>
